<?xml version="1.0" encoding="UTF-8"?>
<!-- Generated by jsxcad -->
<!DOCTYPE svg PUBLIC "-//W3C//DTD SVG 1.1 Tiny//EN" "http://www.w3.org/Graphics/SVG/1.1/DTD/svg11-tiny.dtd">
<svg viewBox="-250 -250 500 500" width="500" height="500" xmlns="http://www.w3.org/2000/svg"><path d="M-29.75430012305449,116.28461871844115L-28.11223741327163,52.41063965774436L-28.43308711530017,53.69281601326231z" style="fill:rgb(2,144,144)"/><path d="M-28.58398819130828,113.12697564455836L-27.001426491515346,49.221903389420326L-28.11223741327163,52.41063965774436z" style="fill:rgb(3,149,149)"/><path d="M-27.089822910771577,110.00466481960233L-25.585222225301532,46.07002789702748L-27.001426491515346,49.221903389420326z" style="fill:rgb(6,155,155)"/><path d="M-25.274783843305045,106.93110890285897L-23.866618846852603,42.968514941142395L-25.585222225301532,46.07002789702748z" style="fill:rgb(8,160,160)"/><path d="M-23.143315825503276,103.91967746373989L-21.849981509991593,39.93079840570314L-23.866618846852603,42.968514941142395z" style="fill:rgb(11,165,165)"/><path d="M-20.701443705661745,100.98381999031947L-19.54115088713454,36.970360430784204L-21.849981509991593,39.93079840570314z" style="fill:rgb(15,170,170)"/><path d="M-17.956670630883785,98.13679105612977L-16.947343971190865,34.1004815056986L-19.54115088713454,36.970360430784204z" style="fill:rgb(19,175,175)"/><path d="M-29.75430012305449,116.28461871844115L-28.43308711530017,53.69281601326231L-30.091612524314055,117.55395744516424z" style="fill:rgb(2,144,144)"/><path d="M-28.58398819130828,113.12697564455836L-28.11223741327163,52.41063965774436L-29.75430012305449,116.28461871844115z" style="fill:rgb(3,149,149)"/><path d="M-14.918140069054212,95.39174970797089L-14.077303804566107,31.33433279084936L-16.947343971190865,34.1004815056986z" style="fill:rgb(24,180,180)"/><path d="M-11.59650978580522,92.7615253997936L-10.941177370284075,28.684732553731003L-14.077303804566107,31.33433279084936z" style="fill:rgb(28,184,184)"/><path d="M-27.089822910771577,110.00466481960233L-27.001426491515346,49.221903389420326L-28.58398819130828,113.12697564455836z" style="fill:rgb(6,155,155)"/><path d="M-8.004014419908822,90.2586765913639L-7.550572487111191,26.164209762207115L-10.941177370284075,28.684732553731003z" style="fill:rgb(34,188,188)"/><path d="M-25.274783843305045,106.93110890285897L-25.585222225301532,46.07002789702748L-27.089822910771577,110.00466481960233z" style="fill:rgb(8,160,160)"/><path d="M-4.15441612875409,87.8952100262285L-3.918509387816014,23.78475225482056L-7.550572487111191,26.164209762207115z" style="fill:rgb(39,193,192)"/><path d="M97.35862237413691,88.23384223914589L93.65594925394574,25.0771198577579L91.83200638553323,24.12563484874143z" style="fill:rgb(202,200,200)"/><path d="M-23.143315825503276,103.91967746373989L-23.866618846852603,42.968514941142395L-25.274783843305045,106.93110890285897z" style="fill:rgb(11,165,165)"/><path d="M-0.06296176217708077,85.6827655648948L-0.05937868316269262,21.557948008569554L-3.918509387816014,23.78475225482056z" style="fill:rgb(45,196,196)"/><path d="M104.12075330668993,85.44673662027782L99.65790208863383,22.20163599233244L98.19398517650855,21.320421250727243z" style="fill:rgb(208,197,197)"/><path d="M-0.06296176217708077,85.6827655648948L4.011158513620423,19.494675124362658L-0.05937868316269262,21.557948008569554z" style="fill:rgb(52,200,200)"/><path d="M100.00229758237374,83.41493237072505L98.19398517650855,21.320421250727243L94.2985528454544,19.275992312994596z" style="fill:rgb(202,200,200)"/><path d="M-20.701443705661745,100.98381999031947L-21.849981509991593,39.93079840570314L-23.143315825503276,103.91967746373989z" style="fill:rgb(15,170,170)"/><path d="M4.253722512490041,83.63228901446492L8.276108148644335,17.605213330572816L4.011158513620423,19.494675124362658z" style="fill:rgb(58,203,203)"/><path d="M95.65977069723772,81.55647394412412L94.2985528454544,19.275992312994596L90.19372924389847,17.406434135014816z" style="fill:rgb(195,203,203)"/><path d="M8.777564770211226,81.7540987099154L12.717355685303223,15.899010035998566L8.276108148644335,17.605213330572816z" style="fill:rgb(65,206,206)"/><path d="M-17.956670630883785,98.13679105612977L-19.54115088713454,36.970360430784204L-20.701443705661745,100.98381999031947z" style="fill:rgb(19,175,175)"/><path d="M91.11162204926289,79.88085776090755L90.19372924389847,17.406434135014816L85.89689621052416,15.721151352671495z" style="fill:rgb(188,206,206)"/><path d="M13.489273325884495,80.0577150271738L17.315721270699974,14.384694538946434L12.717355685303223,15.899010035998566z" style="fill:rgb(72,208,208)"/><path d="M86.37746934436561,78.39662954726866L85.89689621052416,15.721151352671495L81.42650731528629,14.228646627874442z" style="fill:rgb(181,209,209)"/><path d="M18.36839650503737,78.551826750289L22.0509741688264,13.070012247816658L17.315721270699974,14.384694538946434z" style="fill:rgb(80,211,211)"/><path d="M-14.918140069054212,95.39174970797089L-16.947343971190865,34.1004815056986L-17.956670630883785,98.13679105612977z" style="fill:rgb(24,180,180)"/><path d="M81.47820566077787,77.11150005824709L81.42650731528629,14.228646627874442L76.80218473210627,12.936566204192282z" style="fill:rgb(174,211,211)"/><path d="M-25.74357708441997,107.72494962799716L-29.75430012305449,116.28461871844115L-30.091612524314055,117.55395744516424z" style="fill:rgb(127,37,217)"/><path d="M23.39334000562097,77.24423943099985L26.902085458551166,11.961692271802399L22.0509741688264,13.070012247816658z" style="fill:rgb(87,213,213)"/><path d="M-25.74357708441997,107.72494962799716L-30.091612524314055,117.55395744516424L-22.286433855021112,115.75836670307773z" style="fill:rgb(127,37,217)"/><path d="M76.43558482605916,76.03216486052182L76.80218473210627,12.936566204192282L72.04433165902215,11.851541465986593z" style="fill:rgb(166,213,213)"/><path d="M28.541637876397125,76.14174345034174L31.847295241044606,11.06547838675206L26.902085458551166,11.961692271802399z" style="fill:rgb(95,214,214)"/><path d="M-25.74357708441997,107.72494962799716L-22.286433855021112,115.75836670307773L-21.755089745630872,114.35450024572894z" style="fill:rgb(127,37,217)"/><path d="M71.27245364201191,75.16430029988452L72.04433165902215,11.851541465986593L67.17435552944187,10.979207463354962z" style="fill:rgb(158,214,214)"/><path d="M-25.74357708441997,107.72494962799716L-28.58398819130828,113.12697564455836L-29.75430012305449,116.28461871844115z" style="fill:rgb(127,37,217)"/><path d="M-11.59650978580522,92.7615253997936L-14.077303804566107,31.33433279084936L-14.918140069054212,95.39174970797089z" style="fill:rgb(28,184,184)"/><path d="M33.79002702510846,75.25013651602627L36.86414802939215,10.38603761841917L31.847295241044606,11.06547838675206z" style="fill:rgb(103,216,215)"/><path d="M66.01229153444758,74.5124774826083L67.17435552944187,10.979207463354962L62.21423483936591,10.324085259916089z" style="fill:rgb(150,216,216)"/><path d="M39.114488359554116,74.57412117748848L41.92978778089728,9.926903789231789L36.86414802939215,10.38603761841917z" style="fill:rgb(111,216,216)"/><path d="M60.679291882142785,74.08017741509566L62.21423483936591,10.324085259916089L57.186601557874596,9.889623820075213z" style="fill:rgb(143,216,216)"/><path d="M44.49056513386609,74.11727526039152L47.021028920579596,9.690498565734675L41.92978778089728,9.926903789231789z" style="fill:rgb(119,217,217)"/><path d="M55.29801167169128,73.86964060232941L57.186601557874596,9.889623820075213L52.11441424041478,9.678044244421269z" style="fill:rgb(135,217,217)"/><path d="M49.893441651926224,73.882032437398L52.11441424041478,9.678044244421269L47.021028920579596,9.690498565734675z" style="fill:rgb(127,217,217)"/><path d="M-24.100934841787527,105.2726428443187L-21.755089745630872,114.35450024572894L-20.370250569015305,111.5081972257752zM-25.74357708441997,107.72494962799716L-27.089822910771577,110.00466481960233L-28.58398819130828,113.12697564455836z" style="fill:rgb(127,37,217)"/><path d="M-8.004014419908822,90.2586765913639L-10.941177370284075,28.684732553731003L-11.59650978580522,92.7615253997936z" style="fill:rgb(34,188,188)"/><path d="M-24.100934841787527,105.2726428443187L-25.74357708441997,107.72494962799716L-21.755089745630872,114.35450024572894zM-22.209196364993925,102.79661748672028L-20.370250569015305,111.5081972257752L-18.693729801466766,108.70795180957151z" style="fill:rgb(127,37,217)"/><path d="M-4.15441612875409,87.8952100262285L-7.550572487111191,26.164209762207115L-8.004014419908822,90.2586765913639z" style="fill:rgb(39,193,192)"/><path d="M97.35862237413691,88.23384223914589L99.28674553456241,89.17897600093023L93.65594925394574,25.0771198577579z" style="fill:rgb(202,200,200)"/><path d="M-24.100934841787527,105.2726428443187L-25.274783843305045,106.93110890285897L-25.74357708441997,107.72494962799716zM-22.209196364993925,102.79661748672028L-24.100934841787527,105.2726428443187L-20.370250569015305,111.5081972257752z" style="fill:rgb(127,37,217)"/><path d="M-0.06296176217708077,85.6827655648948L-3.918509387816014,23.78475225482056L-4.15441612875409,87.8952100262285z" style="fill:rgb(45,196,196)"/><path d="M-20.0641263542844,100.32276587245578L-18.693729801466766,108.70795180957151L-16.72986024691957,105.96587105819809z" style="fill:rgb(127,37,217)"/><path d="M104.12075330668993,85.44673662027782L105.66752070675707,86.3223682692709L99.65790208863383,22.20163599233244z" style="fill:rgb(208,197,197)"/><path d="M-22.209196364993925,102.79661748672028L-23.143315825503276,103.91967746373989L-24.100934841787527,105.2726428443187zM-20.0641263542844,100.32276587245578L-22.209196364993925,102.79661748672028L-18.693729801466766,108.70795180957151z" style="fill:rgb(127,37,217)"/><path d="M100.00229758237374,83.41493237072505L104.12075330668993,85.44673662027782L98.19398517650855,21.320421250727243z" style="fill:rgb(202,200,200)"/><path d="M-0.06296176217708077,85.6827655648948L4.253722512490041,83.63228901446492L4.011158513620423,19.494675124362658z" style="fill:rgb(52,200,200)"/><path d="M-17.66517272974023,97.87344663275579L-16.72986024691957,105.96587105819809L-14.484436734760079,103.29409616211956zM-17.66517272974023,97.87344663275579L-20.0641263542844,100.32276587245578L-16.72986024691957,105.96587105819809zM-20.0641263542844,100.32276587245578L-20.701443705661745,100.98381999031947L-22.209196364993925,102.79661748672028z" style="fill:rgb(127,37,217)"/><path d="M95.65977069723772,81.55647394412412L100.00229758237374,83.41493237072505L94.2985528454544,19.275992312994596z" style="fill:rgb(195,203,203)"/><path d="M4.253722512490041,83.63228901446492L8.777564770211226,81.7540987099154L8.276108148644335,17.605213330572816z" style="fill:rgb(58,203,203)"/><path d="M-15.010598119431533,95.47528391317557L-14.484436734760079,103.29409616211956L-11.964600738941613,100.70457182340141z" style="fill:rgb(127,37,217)"/><path d="M91.11162204926289,79.88085776090755L95.65977069723772,81.55647394412412L90.19372924389847,17.406434135014816z" style="fill:rgb(188,206,206)"/><path d="M8.777564770211226,81.7540987099154L13.489273325884495,80.0577150271738L12.717355685303223,15.899010035998566z" style="fill:rgb(65,206,206)"/><path d="M-15.010598119431533,95.47528391317557L-17.66517272974023,97.87344663275579L-14.484436734760079,103.29409616211956zM-17.66517272974023,97.87344663275579L-17.956670630883785,98.13679105612977L-20.0641263542844,100.32276587245578z" style="fill:rgb(127,37,217)"/><path d="M86.37746934436561,78.39662954726866L91.11162204926289,79.88085776090755L85.89689621052416,15.721151352671495z" style="fill:rgb(181,209,209)"/><path d="M13.489273325884495,80.0577150271738L18.36839650503737,78.551826750289L17.315721270699974,14.384694538946434z" style="fill:rgb(72,208,208)"/><path d="M-12.098030646332317,93.15866048265035L-11.964600738941613,100.70457182340141L-9.178917411897675,98.20908666660917zM-12.098030646332317,93.15866048265035L-15.010598119431533,95.47528391317557L-11.964600738941613,100.70457182340141z" style="fill:rgb(127,37,217)"/><path d="M81.47820566077787,77.11150005824709L86.37746934436561,78.39662954726866L81.42650731528629,14.228646627874442z" style="fill:rgb(174,211,211)"/><path d="M18.36839650503737,78.551826750289L23.39334000562097,77.24423943099985L22.0509741688264,13.070012247816658z" style="fill:rgb(80,211,211)"/><path d="M76.43558482605916,76.03216486052182L81.47820566077787,77.11150005824709L76.80218473210627,12.936566204192282z" style="fill:rgb(166,213,213)"/><path d="M23.39334000562097,77.24423943099985L28.541637876397125,76.14174345034174L26.902085458551166,11.961692271802399z" style="fill:rgb(87,213,213)"/><path d="M-8.948092512561168,90.91641824961677L-9.178917411897675,98.20908666660917L-6.1372436330255615,95.81920564224782zM-12.098030646332317,93.15866048265035L-14.918140069054212,95.39174970797089L-15.010598119431533,95.47528391317557z" style="fill:rgb(127,37,217)"/><path d="M71.27245364201191,75.16430029988452L76.43558482605916,76.03216486052182L72.04433165902215,11.851541465986593z" style="fill:rgb(158,214,214)"/><path d="M-8.948092512561168,90.91641824961677L-12.098030646332317,93.15866048265035L-9.178917411897675,98.20908666660917z" style="fill:rgb(127,37,217)"/><path d="M28.541637876397125,76.14174345034174L33.79002702510846,75.25013651602627L31.847295241044606,11.06547838675206z" style="fill:rgb(95,214,214)"/><path d="M66.01229153444758,74.5124774826083L71.27245364201191,75.16430029988452L67.17435552944187,10.979207463354962z" style="fill:rgb(150,216,216)"/><path d="M33.79002702510846,75.25013651602627L39.114488359554116,74.57412117748848L36.86414802939215,10.38603761841917z" style="fill:rgb(103,216,215)"/><path d="M60.679291882142785,74.08017741509566L66.01229153444758,74.5124774826083L62.21423483936591,10.324085259916089z" style="fill:rgb(143,216,216)"/><path d="M39.114488359554116,74.57412117748848L44.49056513386609,74.11727526039152L41.92978778089728,9.926903789231789z" style="fill:rgb(111,216,216)"/><path d="M-5.569445607154361,88.76396535120003L-6.1372436330255615,95.81920564224782L-2.8508995183715595,93.54613308893741z" style="fill:rgb(127,37,217)"/><path d="M55.29801167169128,73.86964060232941L60.679291882142785,74.08017741509566L57.186601557874596,9.889623820075213z" style="fill:rgb(135,217,217)"/><path d="M44.49056513386609,74.11727526039152L49.893441651926224,73.882032437398L47.021028920579596,9.690498565734675z" style="fill:rgb(119,217,217)"/><path d="M49.893441651926224,73.882032437398L55.29801167169128,73.86964060232941L52.11441424041478,9.678044244421269z" style="fill:rgb(127,217,217)"/><path d="M-8.948092512561168,90.91641824961677L-11.59650978580522,92.7615253997936L-12.098030646332317,93.15866048265035zM-5.569445607154361,88.76396535120003L-8.948092512561168,90.91641824961677L-6.1372436330255615,95.81920564224782zM-1.9726059651536285,86.71540279937456L-2.8508995183715595,93.54613308893741L0.6674772976124707,91.40064749648776zM-5.569445607154361,88.76396535120003L-8.004014419908822,90.2586765913639L-8.948092512561168,90.91641824961677zM-1.9726059651536285,86.71540279937456L-5.569445607154361,88.76396535120003L-2.8508995183715595,93.54613308893741zM1.830046655089735,84.78355564929194L0.6674772976124707,91.40064749648776L4.403908604669378,89.39310987003978zM-1.9726059651536285,86.71540279937456L-4.15441612875409,87.8952100262285L-5.569445607154361,88.76396535120003zM1.830046655089735,84.78355564929194L-1.9726059651536285,86.71540279937456L0.6674772976124707,91.40064749648776zM104.12075330668993,85.44673662027782L95.52732407985731,87.33615849181442L97.35862237413691,88.23384223914589zM104.12075330668993,85.44673662027782L97.35862237413691,88.23384223914589L105.66752070675707,86.3223682692709zM5.824582455676675,82.98011108815766L4.403908604669378,89.39310987003978L8.343202834711349,87.533273252491zM1.830046655089735,84.78355564929194L-0.06296176217708077,85.6827655648948L-1.9726059651536285,86.71540279937456zM5.824582455676675,82.98011108815766L1.830046655089735,84.78355564929194L4.403908604669378,89.39310987003978zM9.995592088074284,81.3155552107363L8.343202834711349,87.533273252491L12.469024529630014,85.83030453032197zM92.28497658384826,80.31313972457284L91.56606318226062,85.65116972914699L95.52732407985731,87.33615849181442zM104.12075330668993,85.44673662027782L92.28497658384826,80.31313972457284L95.52732407985731,87.33615849181442zM9.995592088074284,81.3155552107363L5.824582455676675,82.98011108815766L8.343202834711349,87.533273252491zM5.824582455676675,82.98011108815766L4.253722512490041,83.63228901446492L1.830046655089735,84.78355564929194zM104.12075330668993,85.44673662027782L100.00229758237374,83.41493237072505L95.65977069723772,81.55647394412412zM14.326265827369259,79.79938319654445L12.469024529630014,85.83030453032197L16.763843979022287,84.29271025817341zM88.5024572144317,79.06283920212775L87.4196508644252,84.13244240525721L91.56606318226062,85.65116972914699zM104.12075330668993,85.44673662027782L95.65977069723772,81.55647394412412L92.28497658384826,80.31313972457284zM14.326265827369259,79.79938319654445L9.995592088074284,81.3155552107363L12.469024529630014,85.83030453032197zM9.995592088074284,81.3155552107363L8.777564770211226,81.7540987099154L5.824582455676675,82.98011108815766zM18.798545624481573,78.43989059097467L16.763843979022287,84.29271025817341L21.209127952515622,82.92820333656455zM92.28497658384826,80.31313972457284L88.5024572144317,79.06283920212775L91.56606318226062,85.65116972914699zM84.50124493249164,77.90448485370257L83.10581897699002,82.78758337196174L87.4196508644252,84.13244240525721zM18.798545624481573,78.43989059097467L14.326265827369259,79.79938319654445L16.763843979022287,84.29271025817341zM23.39334000562097,77.24423943099985L21.209127952515622,82.92820333656455L25.785462574621313,81.74367727030379zM80.30562708437508,76.86051777235066L78.64345231270109,81.62345563492437L83.10581897699002,82.78758337196174zM14.326265827369259,79.79938319654445L13.489273325884495,80.0577150271738L9.995592088074284,81.3155552107363zM88.5024572144317,79.06283920212775L84.50124493249164,77.90448485370257L87.4196508644252,84.13244240525721zM92.28497658384826,80.31313972457284L91.11162204926289,79.88085776090755L88.5024572144317,79.06283920212775zM28.099917811173402,76.23633493652686L25.785462574621313,81.74367727030379L30.47254495991073,80.74516159748042zM23.39334000562097,77.24423943099985L18.798545624481573,78.43989059097467L21.209127952515622,82.92820333656455zM75.93935856160725,75.9487491587505L74.05221394676316,80.64594995243438L78.64345231270109,81.62345563492437zM84.50124493249164,77.90448485370257L80.30562708437508,76.86051777235066L83.10581897699002,82.78758337196174zM18.798545624481573,78.43989059097467L18.36839650503737,78.551826750289L14.326265827369259,79.79938319654445zM32.88783522315885,75.40340515427675L30.47254495991073,80.74516159748042L35.24938687967862,79.937801578739zM71.42925539156624,75.19065509848924L69.35263058586261,79.86007921856387L74.05221394676316,80.64594995243438zM88.5024572144317,79.06283920212775L86.37746934436561,78.39662954726866L84.50124493249164,77.90448485370257zM28.099917811173402,76.23633493652686L23.39334000562097,77.24423943099985L25.785462574621313,81.74367727030379zM80.30562708437508,76.86051777235066L75.93935856160725,75.9487491587505L78.64345231270109,81.62345563492437zM37.735531649671614,74.74918749453511L35.24938687967862,79.937801578739L40.094485343141095,79.32575282243269zM66.80509619633087,74.61072416570099L64.5658278026267,79.26995122830229L69.35263058586261,79.86007921856387zM42.62081718223913,74.27616515798412L40.094485343141095,79.32575282243269L44.98583370968518,78.91218630622338zM32.88783522315885,75.40340515427675L28.099917811173402,76.23633493652686L30.47254495991073,80.74516159748042zM62.07851797017457,74.1936121325888L59.713529134168155,78.8785981098159L64.5658278026267,79.26995122830229zM84.50124493249164,77.90448485370257L81.47820566077787,77.11150005824709L80.30562708437508,76.86051777235066zM75.93935856160725,75.9487491587505L71.42925539156624,75.19065509848924L74.05221394676316,80.64594995243438zM47.520920263431364,73.98532825867701L44.98583370968518,78.91218630622338L49.901082273678185,78.69925425260908zM57.2732225512292,73.94691838647944L54.817807339052216,78.68803316368586L59.713529134168155,78.8785981098159zM52.412836223792866,73.87626152903302L49.901082273678185,78.69925425260908L54.817807339052216,78.68803316368586zM37.735531649671614,74.74918749453511L32.88783522315885,75.40340515427675L35.24938687967862,79.937801578739zM71.42925539156624,75.19065509848924L66.80509619633087,74.61072416570099L69.35263058586261,79.86007921856387zM80.30562708437508,76.86051777235066L76.43558482605916,76.03216486052182L75.93935856160725,75.9487491587505zM42.62081718223913,74.27616515798412L37.735531649671614,74.74918749453511L40.094485343141095,79.32575282243269zM66.80509619633087,74.61072416570099L62.07851797017457,74.1936121325888L64.5658278026267,79.26995122830229zM32.88783522315885,75.40340515427675L28.541637876397125,76.14174345034174L28.099917811173402,76.23633493652686zM47.520920263431364,73.98532825867701L42.62081718223913,74.27616515798412L44.98583370968518,78.91218630622338zM62.07851797017457,74.1936121325888L57.2732225512292,73.94691838647944L59.713529134168155,78.8785981098159zM52.412836223792866,73.87626152903302L47.520920263431364,73.98532825867701L49.901082273678185,78.69925425260908zM57.2732225512292,73.94691838647944L52.412836223792866,73.87626152903302L54.817807339052216,78.68803316368586zM37.735531649671614,74.74918749453511L33.79002702510846,75.25013651602627L32.88783522315885,75.40340515427675zM71.42925539156624,75.19065509848924L71.27245364201191,75.16430029988452L66.80509619633087,74.61072416570099zM42.62081718223913,74.27616515798412L39.114488359554116,74.57412117748848L37.735531649671614,74.74918749453511zM66.80509619633087,74.61072416570099L66.01229153444758,74.5124774826083L62.07851797017457,74.1936121325888zM47.520920263431364,73.98532825867701L44.49056513386609,74.11727526039152L42.62081718223913,74.27616515798412zM62.07851797017457,74.1936121325888L60.679291882142785,74.08017741509566L57.2732225512292,73.94691838647944zM52.412836223792866,73.87626152903302L49.893441651926224,73.882032437398L47.520920263431364,73.98532825867701zM57.2732225512292,73.94691838647944L55.29801167169128,73.86964060232941L52.412836223792866,73.87626152903302z" style="fill:rgb(127,37,217)"/><path d="M-80.40408600751142,-126.18211498762977L-80.37211317708766,-62.43282270712278L-75.13565453320552,-126.1967009691145z" style="fill:rgb(127,217,217)"/><path d="M-85.68242121706544,-126.42993404877117L-86.00764422419228,-62.418076902618985L-80.40408600751142,-126.18211498762977z" style="fill:rgb(135,217,217)"/><path d="M-75.13565453320552,-126.1967009691145L-74.76675494866636,-62.712891267794255L-69.89434550997898,-126.47363556904966z" style="fill:rgb(119,217,217)"/><path d="M-90.95331895022142,-126.93950634651854L-91.65519564911963,-62.6686905917582L-85.68242121706544,-126.42993404877117z" style="fill:rgb(143,216,216)"/><path d="M-69.89434550997898,-126.47363556904966L-69.20966141466751,-63.257597813959634L-64.69731724207162,-127.01223443217877z" style="fill:rgb(111,216,216)"/><path d="M-96.19951953061538,-127.70952766674456L-97.29647770095964,-63.1840423110623L-90.95331895022142,-126.93950634651854z" style="fill:rgb(150,216,216)"/><path d="M-64.69731724207162,-127.01223443217877L-63.71892597475172,-64.06557590063134L-59.561727445219475,-127.81108678964476z" style="fill:rgb(103,216,215)"/><path d="M-101.40371172399486,-128.73800787114308L-102.91328189450657,-63.96286120291525L-96.19951953061538,-127.70952766674456z" style="fill:rgb(158,214,214)"/><path d="M-59.561727445219475,-127.81108678964476L-58.31251231207274,-65.13478942117818L-54.50460440392266,-128.8680960803819z" style="fill:rgb(95,214,214)"/><path d="M-106.54864323853481,-130.02216880477644L-108.48733490647219,-65.00319251521388L-101.40371172399486,-128.73800787114308z" style="fill:rgb(166,213,213)"/><path d="M-54.50460440392266,-128.8680960803819L-53.00819220767714,-66.46250997066541L-49.54278412270639,-130.18048192596484z" style="fill:rgb(87,213,213)"/><path d="M-111.61707649540313,-131.55861009126082L-114.000408140926,-66.3023312570582L-106.54864323853481,-130.02216880477644z" style="fill:rgb(174,211,211)"/><path d="M-49.54278412270639,-130.18048192596484L-47.82367574472494,-68.04530094031196L-44.69303110264687,-131.74472824798318z" style="fill:rgb(80,211,211)"/><path d="M-116.59191195333011,-133.34327847305366L-119.43426979896088,-67.85696496626598L-111.61707649540313,-131.55861009126082z" style="fill:rgb(181,209,209)"/><path d="M-44.69303110264687,-131.74472824798318L-42.776527402544296,-69.87908485237469L-39.97195586088594,-133.5566560912572z" style="fill:rgb(72,208,208)"/><path d="M-121.45600741564166,-135.3712855124572L-124.77081663117882,-69.66311279140758L-116.59191195333011,-133.34327847305366z" style="fill:rgb(188,206,206)"/><path d="M-39.97195586088594,-133.5566560912572L-37.88404918699015,-71.95907542408709L-35.395901883927976,-135.61137705224994z" style="fill:rgb(65,206,206)"/><path d="M-126.19252736382697,-137.63710919339877L-129.9918675661261,-71.7160053784825L-121.45600741564166,-135.3712855124572z" style="fill:rgb(195,203,203)"/><path d="M-35.395901883927976,-135.61137705224994L-33.16336970569771,-74.27974317940236L-30.98102613397259,-137.90326614362465z" style="fill:rgb(58,203,203)"/><path d="M-128.42482557121906,-138.8510849948294L-135.0795450522664,-74.01021101023409L-126.19252736382697,-137.63710919339877z" style="fill:rgb(202,200,200)"/><path d="M-137.47901888956855,-75.23965121200793L-128.42482557121906,-138.8510849948294L-136.98611922867772,-136.2718512033189z" style="fill:rgb(83,212,212)"/><path d="M-30.98102613397259,-137.90326614362465L-28.63138203136336,-76.83480684944233L-26.743239889425578,-140.4259137709089z" style="fill:rgb(52,200,200)"/><path d="M-26.743239889425578,-140.4259137709089L-24.304607890287148,-79.61726794230101L-22.698077865642933,-143.17220001998666z" style="fill:rgb(45,196,196)"/><path d="M-22.698077865642933,-143.17220001998666L-20.199275223008986,-82.61938323552843L-18.86076853742401,-146.13428910432785z" style="fill:rgb(39,193,192)"/><path d="M-18.86076853742401,-146.13428910432785L-16.331281185764652,-85.8326080186512L-15.246199685759418,-149.3035067121763z" style="fill:rgb(34,188,188)"/><path d="M-15.246199685759418,-149.3035067121763L-12.716048829743075,-89.24767255358283L-11.868781455607078,-152.6704842157061z" style="fill:rgb(28,184,184)"/><path d="M-80.40408600751142,-126.18211498762977L-86.00764422419228,-62.418076902618985L-80.37211317708766,-62.43282270712278z" style="fill:rgb(127,217,217)"/><path d="M-75.13565453320552,-126.1967009691145L-80.37211317708766,-62.43282270712278L-74.76675494866636,-62.712891267794255z" style="fill:rgb(119,217,217)"/><path d="M-85.68242121706544,-126.42993404877117L-91.65519564911963,-62.6686905917582L-86.00764422419228,-62.418076902618985z" style="fill:rgb(135,217,217)"/><path d="M-69.89434550997898,-126.47363556904966L-74.76675494866636,-62.712891267794255L-69.20966141466751,-63.257597813959634z" style="fill:rgb(111,216,216)"/><path d="M-90.95331895022142,-126.93950634651854L-97.29647770095964,-63.1840423110623L-91.65519564911963,-62.6686905917582z" style="fill:rgb(143,216,216)"/><path d="M-64.69731724207162,-127.01223443217877L-69.20966141466751,-63.257597813959634L-63.71892597475172,-64.06557590063134z" style="fill:rgb(103,216,215)"/><path d="M-96.19951953061538,-127.70952766674456L-102.91328189450657,-63.96286120291525L-97.29647770095964,-63.1840423110623z" style="fill:rgb(150,216,216)"/><path d="M-59.561727445219475,-127.81108678964476L-63.71892597475172,-64.06557590063134L-58.31251231207274,-65.13478942117818z" style="fill:rgb(95,214,214)"/><path d="M-101.40371172399486,-128.73800787114308L-108.48733490647219,-65.00319251521388L-102.91328189450657,-63.96286120291525z" style="fill:rgb(158,214,214)"/><path d="M-11.868781455607078,-152.6704842157061L-9.368541434854924,-92.85448405350327L-8.74245969421729,-156.22503771345987z" style="fill:rgb(24,180,180)"/><path d="M-54.50460440392266,-128.8680960803819L-58.31251231207274,-65.13478942117818L-53.00819220767714,-66.46250997066541z" style="fill:rgb(87,213,213)"/><path d="M-106.54864323853481,-130.02216880477644L-114.000408140926,-66.3023312570582L-108.48733490647219,-65.00319251521388z" style="fill:rgb(166,213,213)"/><path d="M-49.54278412270639,-130.18048192596484L-53.00819220767714,-66.46250997066541L-47.82367574472494,-68.04530094031196z" style="fill:rgb(80,211,211)"/><path d="M-111.61707649540313,-131.55861009126082L-119.43426979896088,-67.85696496626598L-114.000408140926,-66.3023312570582z" style="fill:rgb(174,211,211)"/><path d="M-44.69303110264687,-131.74472824798318L-47.82367574472494,-68.04530094031196L-42.776527402544296,-69.87908485237469z" style="fill:rgb(72,208,208)"/><path d="M-8.74245969421729,-156.22503771345987L-6.303067240131626,-96.64210579564435L-5.88053314626821,-159.95615607337248z" style="fill:rgb(19,175,175)"/><path d="M-116.59191195333011,-133.34327847305366L-124.77081663117882,-69.66311279140758L-119.43426979896088,-67.85696496626598z" style="fill:rgb(181,209,209)"/><path d="M-39.97195586088594,-133.5566560912572L-42.776527402544296,-69.87908485237469L-37.88404918699015,-71.95907542408709z" style="fill:rgb(65,206,206)"/><path d="M-121.45600741564166,-135.3712855124572L-129.9918675661261,-71.7160053784825L-124.77081663117882,-69.66311279140758z" style="fill:rgb(188,206,206)"/><path d="M-5.88053314626821,-159.95615607337248L-3.533433637929184,-100.59882714840134L-3.2957973422896947,-163.85208327241276z" style="fill:rgb(15,170,170)"/><path d="M-35.395901883927976,-135.61137705224994L-37.88404918699015,-71.95907542408709L-33.16336970569771,-74.27974317940236z" style="fill:rgb(58,203,203)"/><path d="M-126.19252736382697,-137.63710919339877L-135.0795450522664,-74.01021101023409L-129.9918675661261,-71.7160053784825z" style="fill:rgb(195,203,203)"/><path d="M-137.47901888956855,-75.23965121200793L-136.98611922867772,-136.2718512033189L-146.62131261309685,-72.62777445798424z" style="fill:rgb(83,212,212)"/><path d="M-128.42482557121906,-138.8510849948294L-137.47901888956855,-75.23965121200793L-135.0795450522664,-74.01021101023409z" style="fill:rgb(202,200,200)"/><path d="M-30.98102613397259,-137.90326614362465L-33.16336970569771,-74.27974317940236L-28.63138203136336,-76.83480684944233z" style="fill:rgb(52,200,200)"/><path d="M-3.2957973422896947,-163.85208327241276L-1.0727249535074,-104.71221881480878L-1.0003380035996197,-167.90033048550976z" style="fill:rgb(11,165,165)"/><path d="M-26.743239889425578,-140.4259137709089L-28.63138203136336,-76.83480684944233L-24.304607890287148,-79.61726794230101z" style="fill:rgb(45,196,196)"/><path d="M-1.0003380035996197,-167.90033048550976L1.0666772604278962,-108.96885158094628L0.9944492087171448,-172.0874961577378z" style="fill:rgb(8,160,160)"/><path d="M-22.698077865642933,-143.17220001998666L-24.304607890287148,-79.61726794230101L-20.199275223008986,-82.61938323552843z" style="fill:rgb(39,193,192)"/><path d="M-88.00671577277578,-56.250686037331L-85.7529426186329,-56.15122953025032L-82.48114953960318,-56.15974315579979zM-82.48114953960318,-56.15974315579979L-79.62406446185243,-56.16717542203305L-76.94775799205608,-56.30013246248256zM-93.5036237238141,-56.56840928933587L-91.89494624925547,-56.42227047642292L-88.00671577277578,-56.250686037331zM-76.94775799205608,-56.30013246248256L-73.52761338971197,-56.470050487689775L-71.42673998795499,-56.674808893415744zM-98.95029638779987,-57.10640672022915L-98.03056203053937,-56.97959739177493L-93.5036237238141,-56.56840928933587zM-71.42673998795499,-56.674808893415744L-67.48300641941559,-57.05915517962661L-65.93765767782436,-57.28521785987055zM-104.32421567492833,-57.85605967857967L-104.1403822087918,-57.82194978822392L-98.95029638779987,-57.10640672022915zM-65.93765767782436,-57.28521785987055L-61.50946520485543,-57.93305128441588L-60.499778554928575,-58.13155461245893zM-88.00671577277578,-56.250686037331L-82.48114953960318,-56.15974315579979L-86.00764422419228,-62.418076902618985zM-82.48114953960318,-56.15974315579979L-76.94775799205608,-56.30013246248256L-80.37211317708766,-62.43282270712278zM-93.5036237238141,-56.56840928933587L-88.00671577277578,-56.250686037331L-91.65519564911963,-62.6686905917582zM-76.94775799205608,-56.30013246248256L-71.42673998795499,-56.674808893415744L-74.76675494866636,-62.712891267794255zM-60.499778554928575,-58.13155461245893L-55.626137664364755,-59.089664448614165L-55.13184057777858,-59.21263874657895z" style="fill:rgb(127,37,217)"/><path d="M-18.86076853742401,-146.13428910432785L-20.199275223008986,-82.61938323552843L-16.331281185764652,-85.8326080186512z" style="fill:rgb(34,188,188)"/><path d="M-98.95029638779987,-57.10640672022915L-93.5036237238141,-56.56840928933587L-97.29647770095964,-63.1840423110623zM-71.42673998795499,-56.674808893415744L-65.93765767782436,-57.28521785987055L-69.20966141466751,-63.257597813959634zM-114.80693509513387,-60.025404997802084L-110.20488768278173,-58.947265739441775L-109.62102099188628,-58.838915876580025zM-104.32421567492833,-57.85605967857967L-98.95029638779987,-57.10640672022915L-102.91328189450657,-63.96286120291525z" style="fill:rgb(127,37,217)"/><path d="M0.9944492087171448,-172.0874961577378L2.873344151360415,-113.35466424952871L2.678089774842772,-176.39953043477195z" style="fill:rgb(6,155,155)"/><path d="M-65.93765767782436,-57.28521785987055L-60.499778554928575,-58.13155461245893L-63.71892597475172,-64.06557590063134zM-82.48114953960318,-56.15974315579979L-80.37211317708766,-62.43282270712278L-86.00764422419228,-62.418076902618985zM-88.00671577277578,-56.250686037331L-86.00764422419228,-62.418076902618985L-91.65519564911963,-62.6686905917582zM-76.94775799205608,-56.30013246248256L-74.76675494866636,-62.712891267794255L-80.37211317708766,-62.43282270712278zM-109.62102099188628,-58.838915876580025L-104.32421567492833,-57.85605967857967L-108.48733490647219,-65.00319251521388zM-119.85070991206888,-61.38983072901877L-116.20464643552451,-60.35285153815298L-114.80693509513387,-60.025404997802084zM-93.5036237238141,-56.56840928933587L-91.65519564911963,-62.6686905917582L-97.29647770095964,-63.1840423110623zM-60.499778554928575,-58.13155461245893L-55.13184057777858,-59.21263874657895L-58.31251231207274,-65.13478942117818zM-71.42673998795499,-56.674808893415744L-69.20966141466751,-63.257597813959634L-74.76675494866636,-62.712891267794255zM-98.95029638779987,-57.10640672022915L-97.29647770095964,-63.1840423110623L-102.91328189450657,-63.96286120291525zM-65.93765767782436,-57.28521785987055L-63.71892597475172,-64.06557590063134L-69.20966141466751,-63.257597813959634zM-114.80693509513387,-60.025404997802084L-109.62102099188628,-58.838915876580025L-114.000408140926,-66.3023312570582z" style="fill:rgb(127,37,217)"/><path d="M-15.246199685759418,-149.3035067121763L-16.331281185764652,-85.8326080186512L-12.716048829743075,-89.24767255358283z" style="fill:rgb(28,184,184)"/><path d="M-55.13184057777858,-59.21263874657895L-49.85214398358686,-60.52617873106263L-53.00819220767714,-66.46250997066541zM-124.72402316487941,-62.91120121835307L-122.12008440707586,-62.0352464241142L-119.85070991206888,-61.38983072901877zM-104.32421567492833,-57.85605967857967L-102.91328189450657,-63.96286120291525L-108.48733490647219,-65.00319251521388zM-60.499778554928575,-58.13155461245893L-58.31251231207274,-65.13478942117818L-63.71892597475172,-64.06557590063134zM-44.69096255532311,-62.09204281924799L-44.20638218692415,-62.239065578020856L-39.65353799431984,-63.8826582444168zM-119.85070991206888,-61.38983072901877L-114.80693509513387,-60.025404997802084L-119.43426979896088,-67.85696496626598zM-109.62102099188628,-58.838915876580025L-108.48733490647219,-65.00319251521388L-114.000408140926,-66.3023312570582zM-49.85214398358686,-60.52617873106263L-44.69096255532311,-62.09204281924799L-47.82367574472494,-68.04530094031196zM-55.13184057777858,-59.21263874657895L-53.00819220767714,-66.46250997066541L-58.31251231207274,-65.13478942117818zM-129.39538486651406,-64.56216538319971L-127.93187734458283,-63.99031488821759L-124.72402316487941,-62.91120121835307z" style="fill:rgb(127,37,217)"/><path d="M2.678089774842772,-176.39953043477195L4.33672583986797,-117.85471152658732L4.040959279968596,-180.82157450435693z" style="fill:rgb(3,149,149)"/><path d="M-124.72402316487941,-62.91120121835307L-119.85070991206888,-61.38983072901877L-124.77081663117882,-69.66311279140758zM-39.65353799431984,-63.8826582444168L-38.707620511226686,-64.2241361618406L-34.75708703278374,-65.89250482680306zM-114.80693509513387,-60.025404997802084L-114.000408140926,-66.3023312570582L-119.43426979896088,-67.85696496626598z" style="fill:rgb(127,37,217)"/><path d="M13.445042616845246,-118.3574023733894L12.527714231380406,-181.31542484169617L3.3400701187924593,-178.54747376797013z" style="fill:rgb(83,212,212)"/><path d="M-49.85214398358686,-60.52617873106263L-47.82367574472494,-68.04530094031196L-53.00819220767714,-66.46250997066541zM-44.69096255532311,-62.09204281924799L-39.65353799431984,-63.8826582444168L-42.776527402544296,-69.87908485237469z" style="fill:rgb(127,37,217)"/><path d="M-11.868781455607078,-152.6704842157061L-12.716048829743075,-89.24767255358283L-9.368541434854924,-92.85448405350327z" style="fill:rgb(24,180,180)"/><path d="M-119.85070991206888,-61.38983072901877L-119.43426979896088,-67.85696496626598L-124.77081663117882,-69.66311279140758zM-129.39538486651406,-64.56216538319971L-124.72402316487941,-62.91120121835307L-129.9918675661261,-71.7160053784825zM-44.69096255532311,-62.09204281924799L-42.776527402544296,-69.87908485237469L-47.82367574472494,-68.04530094031196zM-34.75708703278374,-65.89250482680306L-33.37454055364928,-66.47639319506011L-30.018417843773058,-68.11485429776332zM-39.65353799431984,-63.8826582444168L-34.75708703278374,-65.89250482680306L-37.88404918699015,-71.95907542408709zM-144.55151495906543,-71.43885341076404L-133.62054445241208,-66.21313960185346L-129.39538486651406,-64.56216538319971zM-124.72402316487941,-62.91120121835307L-124.77081663117882,-69.66311279140758L-129.9918675661261,-71.7160053784825zM-39.65353799431984,-63.8826582444168L-37.88404918699015,-71.95907542408709L-42.776527402544296,-69.87908485237469zM-144.55151495906543,-71.43885341076404L-139.16685410847802,-68.6981304663447L-133.62054445241208,-66.21313960185346z" style="fill:rgb(127,37,217)"/><path d="M-8.74245969421729,-156.22503771345987L-9.368541434854924,-92.85448405350327L-6.303067240131626,-96.64210579564435z" style="fill:rgb(19,175,175)"/><path d="M-30.018417843773058,-68.11485429776332L-28.22554534296909,-68.99012476555643L-25.453766096656636,-70.54151801340733zM-34.75708703278374,-65.89250482680306L-30.018417843773058,-68.11485429776332L-33.16336970569771,-74.27974317940236zM-144.55151495906543,-71.43885341076404L-129.39538486651406,-64.56216538319971L-135.0795450522664,-74.01021101023409zM-129.39538486651406,-64.56216538319971L-129.9918675661261,-71.7160053784825L-135.0795450522664,-74.01021101023409zM-34.75708703278374,-65.89250482680306L-33.16336970569771,-74.27974317940236L-37.88404918699015,-71.95907542408709zM-25.453766096656636,-70.54151801340733L-23.278820025655946,-71.75886389284463L-21.078698278970254,-73.16297979106642zM-30.018417843773058,-68.11485429776332L-25.453766096656636,-70.54151801340733L-28.63138203136336,-76.83480684944233z" style="fill:rgb(127,37,217)"/><path d="M-5.88053314626821,-159.95615607337248L-6.303067240131626,-96.64210579564435L-3.533433637929184,-100.59882714840134z" style="fill:rgb(15,170,170)"/><path d="M-30.018417843773058,-68.11485429776332L-28.63138203136336,-76.83480684944233L-33.16336970569771,-74.27974317940236zM-144.55151495906543,-71.43885341076404L-137.47901888956855,-75.23965121200793L-146.62131261309685,-72.62777445798424zM-144.55151495906543,-71.43885341076404L-135.0795450522664,-74.01021101023409L-137.47901888956855,-75.23965121200793zM-25.453766096656636,-70.54151801340733L-21.078698278970254,-73.16297979106642L-24.304607890287148,-79.61726794230101zM-21.078698278970254,-73.16297979106642L-18.55235230099034,-74.77528625763006L-16.908052397675522,-75.96806132517717zM-25.453766096656636,-70.54151801340733L-24.304607890287148,-79.61726794230101L-28.63138203136336,-76.83480684944233z" style="fill:rgb(127,37,217)"/><path d="M-3.2957973422896947,-163.85208327241276L-3.533433637929184,-100.59882714840134L-1.0727249535074,-104.71221881480878z" style="fill:rgb(11,165,165)"/><path d="M-21.078698278970254,-73.16297979106642L-16.908052397675522,-75.96806132517717L-20.199275223008986,-82.61938323552843zM-16.908052397675522,-75.96806132517717L-14.063718906524858,-78.03134817262102L-12.955887483179856,-78.94377684495328zM-21.078698278970254,-73.16297979106642L-20.199275223008986,-82.61938323552843L-24.304607890287148,-79.61726794230101zM-16.908052397675522,-75.96806132517717L-12.955887483179856,-78.94377684495328L-16.331281185764652,-85.8326080186512z" style="fill:rgb(127,37,217)"/><path d="M-1.0003380035996197,-167.90033048550976L-1.0727249535074,-104.71221881480878L1.0666772604278962,-108.96885158094628z" style="fill:rgb(8,160,160)"/><path d="M-12.955887483179856,-78.94377684495328L-9.830191082282568,-81.51806930577605L-9.235126224046326,-82.07501309493851zM-16.908052397675522,-75.96806132517717L-16.331281185764652,-85.8326080186512L-20.199275223008986,-82.61938323552843zM-12.955887483179856,-78.94377684495328L-9.235126224046326,-82.07501309493851L-12.716048829743075,-89.24767255358283zM-9.235126224046326,-82.07501309493851L-5.868633248468086,-85.22577806165982L-5.757551500260911,-85.34426077151296z" style="fill:rgb(127,37,217)"/><path d="M0.9944492087171448,-172.0874961577378L1.0666772604278962,-108.96885158094628L2.873344151360415,-113.35466424952871z" style="fill:rgb(6,155,155)"/><path d="M-12.955887483179856,-78.94377684495328L-12.716048829743075,-89.24767255358283L-16.331281185764652,-85.8326080186512zM-9.235126224046326,-82.07501309493851L-5.757551500260911,-85.34426077151296L-9.368541434854924,-92.85448405350327zM-9.235126224046326,-82.07501309493851L-9.368541434854924,-92.85448405350327L-12.716048829743075,-89.24767255358283z" style="fill:rgb(127,37,217)"/><path d="M2.678089774842772,-176.39953043477195L2.873344151360415,-113.35466424952871L4.33672583986797,-117.85471152658732z" style="fill:rgb(3,149,149)"/><path d="M-2.5498540386346633,-88.76575257363258L-2.195434037363653,-89.14380646303871L0.3873177700121345,-92.29990281570826z" style="fill:rgb(127,37,217)"/><path d="M13.445042616845246,-118.3574023733894L3.3400701187924593,-178.54747376797013L3.5840490483112566,-115.5401989004825z" style="fill:rgb(83,212,212)"/><path d="M-5.757551500260911,-85.34426077151296L-2.5498540386346633,-88.76575257363258L-6.303067240131626,-96.64210579564435zM-5.757551500260911,-85.34426077151296L-6.303067240131626,-96.64210579564435L-9.368541434854924,-92.85448405350327zM0.3873177700121345,-92.29990281570826L1.1735862093036227,-93.26071910235208L3.0515783132018837,-95.91086007222657zM-2.5498540386346633,-88.76575257363258L0.3873177700121345,-92.29990281570826L-3.533433637929184,-100.59882714840134zM-2.5498540386346633,-88.76575257363258L-3.533433637929184,-100.59882714840134L-6.303067240131626,-96.64210579564435zM0.3873177700121345,-92.29990281570826L3.0515783132018837,-95.91086007222657L-1.0727249535074,-104.71221881480878zM3.0515783132018837,-95.91086007222657L4.223144511223229,-97.56407549785924L5.438405193066634,-99.56739717325769zM0.3873177700121345,-92.29990281570826L-1.0727249535074,-104.71221881480878L-3.533433637929184,-100.59882714840134zM3.0515783132018837,-95.91086007222657L5.438405193066634,-99.56739717325769L1.0666772604278962,-108.96885158094628zM5.438405193066634,-99.56739717325769L6.938745007282469,-102.04066564514048L7.546987555116014,-103.23143894141009zM3.0515783132018837,-95.91086007222657L1.0666772604278962,-108.96885158094628L-1.0727249535074,-104.71221881480878zM5.438405193066634,-99.56739717325769L7.546987555116014,-103.23143894141009L2.873344151360415,-113.35466424952871zM7.546987555116014,-103.23143894141009L9.306556787451534,-106.67623984526561L11.31366925249046,-111.45580296455132zM5.438405193066634,-99.56739717325769L2.873344151360415,-113.35466424952871L1.0666772604278962,-108.96885158094628zM7.546987555116014,-103.23143894141009L11.31366925249046,-111.45580296455132L12.948065334977287,-116.36331613109918zM7.546987555116014,-103.23143894141009L3.5840490483112566,-115.5401989004825L2.873344151360415,-113.35466424952871zM7.546987555116014,-103.23143894141009L13.445042616845246,-118.3574023733894L3.5840490483112566,-115.5401989004825zM7.546987555116014,-103.23143894141009L12.948065334977287,-116.36331613109918L13.445042616845246,-118.3574023733894z" style="fill:rgb(127,37,217)"/></svg>
