<?xml version="1.0" encoding="UTF-8"?>
<!-- Generated by jsxcad -->
<!DOCTYPE svg PUBLIC "-//W3C//DTD SVG 1.1 Tiny//EN" "http://www.w3.org/Graphics/SVG/1.1/DTD/svg11-tiny.dtd">
<svg viewBox="-250 -250 500 500" width="500" height="500" xmlns="http://www.w3.org/2000/svg"><path d="M65.53394161628017,99.46771080164572L65.07617949333438,98.25218383465433L-29.633745999662292,-91.43318863188796z" style="fill:rgb(244,178,136)"/><path d="M42.105362735863615,110.17775068973312L42.84247102508253,111.24837872214542L-56.496224153930754,-76.12115087432029z" style="fill:rgb(18,61,137)"/><path d="M65.77644713740067,100.76602552281787L65.53394161628017,99.46771080164572L-29.224571916488227,-90.25481953638905z" style="fill:rgb(246,167,149)"/><path d="M42.84247102508253,111.24837872214542L43.77104849880304,112.1906313149551L-55.524704418371236,-75.26113092022888z" style="fill:rgb(26,53,150)"/><path d="M65.79855274719795,102.12406566911521L65.77644713740067,100.76602552281787L-29.071153347990236,-88.9709485788168z" style="fill:rgb(247,155,161)"/><path d="M43.77104849880304,112.1906313149551L44.87507998023902,112.98707141753832L-54.33619445085391,-74.56531040141243z" style="fill:rgb(36,45,162)"/><path d="M65.599093915476,103.51752209740467L65.79855274719795,102.12406566911521L-29.177367175966484,-87.6042572779566z" style="fill:rgb(245,142,172)"/><path d="M44.87507998023902,112.98707141753832L46.13523668401243,113.62283117226167L-52.95130315875812,-74.04697924830478z" style="fill:rgb(47,39,173)"/><path d="M65.18095458959938,104.9212857832748L65.599093915476,103.51752209740467L-29.542377188118497,-86.17911877531856z" style="fill:rgb(241,130,183)"/><path d="M46.13523668401243,113.62283117226167L47.529200452146966,114.08586163086999L-51.39442800570928,-73.71624123803198z" style="fill:rgb(59,35,184)"/><path d="M64.55107614895341,106.30987848596587L65.18095458959938,104.9212857832748L-30.160569605544655,-84.72119782431251z" style="fill:rgb(236,117,193)"/><path d="M47.529200452146966,114.08586163086999L49.032043658498885,114.36723298212245L-49.693325624746045,-73.57980276788504z" style="fill:rgb(73,33,194)"/><path d="M63.720359670734474,107.65797437266627L64.55107614895341,106.30987848596587L-31.021590508204536,-83.25695358221397z" style="fill:rgb(228,104,202)"/><path d="M49.032043658498885,114.36723298212245L50.61668163076714,114.4613458345245L-47.878662160018074,-73.64078900907481z" style="fill:rgb(88,32,202)"/><path d="M62.70350409795235,108.9408679363016L63.720359670734474,107.65797437266627L-32.11048645277064,-81.81313700966885z" style="fill:rgb(218,92,209)"/><path d="M50.61668163076714,114.4613458345245L52.25437510376427,114.3660375566463L-45.98339740456296,-73.89861635440157z" style="fill:rgb(103,33,209)"/><path d="M61.51874318717026,110.13497114982553L62.70350409795235,108.9408679363016L-33.407920600753535,-80.41629013284776z" style="fill:rgb(207,81,215)"/><path d="M52.25437510376427,114.3660375566463L53.91526140324609,114.08269577944412L-44.042195385404845,-74.34900383267951z" style="fill:rgb(119,35,215)"/><path d="M60.18753239888621,111.21828185407803L61.51874318717026,110.13497114982553L-34.890533601042044,-79.09218463471687z" style="fill:rgb(195,70,219)"/><path d="M53.91526140324609,114.08269577944412L55.568959977627834,113.61625199097874L-42.09070949358504,-74.9839877238007z" style="fill:rgb(135,39,219)"/><path d="M58.73413236027787,112.17082826771797L60.18753239888621,111.21828185407803L-36.531352731062995,-77.86533267413603z" style="fill:rgb(181,60,221)"/><path d="M55.568959977627834,113.61625199097874L57.1851344368921,112.97507157247482L-40.16491006147504,-75.79207780660674z" style="fill:rgb(151,45,221)"/><path d="M57.1851344368921,112.97507157247482L58.73413236027787,112.17082826771797L-38.30032960618594,-76.7584662018651z" style="fill:rgb(166,52,222)"/><path d="M42.105362735863615,110.17775068973312L-56.496224153930754,-76.12115087432029L-57.234257694667875,-77.12923231422567z" style="fill:rgb(18,61,137)"/><path d="M65.53394161628017,99.46771080164572L-29.633745999662292,-91.43318863188796L-29.224571916488227,-90.25481953638905z" style="fill:rgb(244,178,136)"/><path d="M42.84247102508253,111.24837872214542L-55.524704418371236,-75.26113092022888L-56.496224153930754,-76.12115087432029z" style="fill:rgb(26,53,150)"/><path d="M65.77644713740067,100.76602552281787L-29.224571916488227,-90.25481953638905L-29.071153347990236,-88.9709485788168z" style="fill:rgb(246,167,149)"/><path d="M43.77104849880304,112.1906313149551L-54.33619445085391,-74.56531040141243L-55.524704418371236,-75.26113092022888z" style="fill:rgb(36,45,162)"/><path d="M65.79855274719795,102.12406566911521L-29.071153347990236,-88.9709485788168L-29.177367175966484,-87.6042572779566z" style="fill:rgb(247,155,161)"/><path d="M44.87507998023902,112.98707141753832L-52.95130315875812,-74.04697924830478L-54.33619445085391,-74.56531040141243z" style="fill:rgb(47,39,173)"/><path d="M65.599093915476,103.51752209740467L-29.177367175966484,-87.6042572779566L-29.542377188118497,-86.17911877531856z" style="fill:rgb(245,142,172)"/><path d="M46.13523668401243,113.62283117226167L-51.39442800570928,-73.71624123803198L-52.95130315875812,-74.04697924830478z" style="fill:rgb(59,35,184)"/><path d="M65.18095458959938,104.9212857832748L-29.542377188118497,-86.17911877531856L-30.160569605544655,-84.72119782431251z" style="fill:rgb(241,130,183)"/><path d="M47.529200452146966,114.08586163086999L-49.693325624746045,-73.57980276788504L-51.39442800570928,-73.71624123803198z" style="fill:rgb(73,33,194)"/><path d="M64.55107614895341,106.30987848596587L-30.160569605544655,-84.72119782431251L-31.021590508204536,-83.25695358221397z" style="fill:rgb(236,117,193)"/><path d="M49.032043658498885,114.36723298212245L-47.878662160018074,-73.64078900907481L-49.693325624746045,-73.57980276788504z" style="fill:rgb(88,32,202)"/><path d="M63.720359670734474,107.65797437266627L-31.021590508204536,-83.25695358221397L-32.11048645277064,-81.81313700966885z" style="fill:rgb(228,104,202)"/><path d="M50.61668163076714,114.4613458345245L-45.98339740456296,-73.89861635440157L-47.878662160018074,-73.64078900907481z" style="fill:rgb(103,33,209)"/><path d="M62.70350409795235,108.9408679363016L-32.11048645277064,-81.81313700966885L-33.407920600753535,-80.41629013284776z" style="fill:rgb(218,92,209)"/><path d="M52.25437510376427,114.3660375566463L-44.042195385404845,-74.34900383267951L-45.98339740456296,-73.89861635440157z" style="fill:rgb(119,35,215)"/><path d="M61.51874318717026,110.13497114982553L-33.407920600753535,-80.41629013284776L-34.890533601042044,-79.09218463471687z" style="fill:rgb(207,81,215)"/><path d="M53.91526140324609,114.08269577944412L-42.09070949358504,-74.9839877238007L-44.042195385404845,-74.34900383267951z" style="fill:rgb(135,39,219)"/><path d="M60.18753239888621,111.21828185407803L-34.890533601042044,-79.09218463471687L-36.531352731062995,-77.86533267413603z" style="fill:rgb(195,70,219)"/><path d="M55.568959977627834,113.61625199097874L-40.16491006147504,-75.79207780660674L-42.09070949358504,-74.9839877238007z" style="fill:rgb(151,45,221)"/><path d="M58.73413236027787,112.17082826771797L-36.531352731062995,-77.86533267413603L-38.30032960618594,-76.7584662018651z" style="fill:rgb(181,60,221)"/><path d="M57.1851344368921,112.97507157247482L-38.30032960618594,-76.7584662018651L-40.16491006147504,-75.79207780660674z" style="fill:rgb(166,52,222)"/><path d="M-38.30032960618594,-76.7584662018651L-45.97831959775822,-93.5434663677209L-47.835530850948366,-92.67214879636059zM-38.30032960618594,-76.7584662018651L-47.835530850948366,-92.67214879636059L-49.617610508406806,-91.65755955608229zM-38.30032960618594,-76.7584662018651L-44.07801492741306,-94.2564517666025L-45.97831959775822,-93.5434663677209zM-38.30032960618594,-76.7584662018651L-49.617610508406806,-91.65755955608229L-51.2937631523362,-90.51717954810391zM-38.30032960618594,-76.7584662018651L-42.1674133690371,-94.79863194024703L-44.07801492741306,-94.2564517666025zM-38.30032960618594,-76.7584662018651L-51.2937631523362,-90.51717954810391L-52.834941416501245,-89.27058790664596zM-38.30032960618594,-76.7584662018651L-40.279552733412174,-95.16039971534198L-42.1674133690371,-94.79863194024703zM-38.30032960618594,-76.7584662018651L-52.834941416501245,-89.27058790664596L-54.21427432065125,-87.9392226994041zM-38.30032960618594,-76.7584662018651L-38.44721393673767,-95.33511154917575L-40.279552733412174,-95.16039971534198zM-38.30032960618594,-76.7584662018651L-54.21427432065125,-87.9392226994041L-55.40751823587952,-86.54598773894186zM-38.30032960618594,-76.7584662018651L-36.70238114112445,-95.31926866053092L-38.44721393673767,-95.33511154917575zM-38.30032960618594,-76.7584662018651L-55.40751823587952,-86.54598773894186L-56.393461625124935,-85.114945201553zM-38.30032960618594,-76.7584662018651L-35.075729561949075,-95.11260284469446L-36.70238114112445,-95.31926866053092zM-38.30032960618594,-76.7584662018651L-56.393461625124935,-85.114945201553L-57.15429791620252,-83.67093760885275zM-38.30032960618594,-76.7584662018651L-33.59610865427507,-94.71806897375218L-35.075729561949075,-95.11260284469446zM-38.30032960618594,-76.7584662018651L-57.15429791620252,-83.67093760885275L-57.67595433557694,-82.23919087571993zM-38.30032960618594,-76.7584662018651L-32.29004664225765,-94.14190090698851L-33.59610865427507,-94.71806897375218zM-38.30032960618594,-76.7584662018651L-57.67595433557694,-82.23919087571993L-57.94836703058636,-80.84489036883667z" style="fill:rgb(83,212,212)"/><path d="M-79.96053490959966,-126.29237520891074L-79.89981938391746,-64.76082106741298L-74.86324630636999,-126.30648867450911z" style="fill:rgb(127,217,217)"/><path d="M-85.06726626752315,-126.53216457172783L-85.33996838240746,-64.74655649654835L-79.96053490959966,-126.29237520891074z" style="fill:rgb(135,217,217)"/><path d="M-74.86324630636999,-126.30648867450911L-74.48874792148175,-65.03174678252313L-69.79219063838077,-126.57444975669205z" style="fill:rgb(119,217,217)"/><path d="M-90.1665657686508,-127.02520591692418L-90.79151534334902,-64.98898936459892L-85.06726626752315,-126.53216457172783z" style="fill:rgb(143,216,216)"/><path d="M-69.79219063838077,-126.57444975669205L-69.12433133842949,-65.55865710059037L-64.76405945866262,-127.09557488358453z" style="fill:rgb(111,216,216)"/><path d="M-38.30032960618594,-76.7584662018651L-31.181266225413736,-93.39353302396799L-32.29004664225765,-94.14190090698851z" style="fill:rgb(83,212,212)"/><path d="M-95.24162994884223,-127.77024488665928L-96.23668362728978,-65.48750571287762L-90.1665657686508,-127.02520591692418z" style="fill:rgb(150,216,216)"/><path d="M-38.30032960618594,-76.7584662018651L-57.94836703058636,-80.84489036883667L-57.965728700538556,-79.51277741447721z" style="fill:rgb(83,212,212)"/><path d="M-64.76405945866262,-127.09557488358453L-63.82418812241715,-66.34020530651969L-59.79557929835044,-127.8684957074874z" style="fill:rgb(103,216,215)"/><path d="M-100.27557519737745,-128.76528496397424L-101.65777085160148,-66.2408533626107L-95.24162994884223,-127.77024488665928z" style="fill:rgb(158,214,214)"/><path d="M-38.30032960618594,-76.7584662018651L-30.290233789013104,-92.48548024137119L-31.181266225413736,-93.39353302396799zM-38.30032960618594,-76.7584662018651L-57.965728700538556,-79.51277741447721L-57.726646928714935,-78.26671412540401z" style="fill:rgb(83,212,212)"/><path d="M-59.79557929835044,-127.8684957074874L-58.60576227904015,-67.37438264377029L-54.90330790580209,-128.89114063864744z" style="fill:rgb(95,214,214)"/><path d="M-60.331767682222555,-82.00692670814793L-59.06266950169302,-102.1821099141297L-63.1669912977338,-101.55768979121588z" style="fill:rgb(103,216,215)"/><path d="M-105.25163844621419,-130.00762470533033L-107.03697340836693,-67.24710167579788L-100.27557519737745,-128.76528496397424z" style="fill:rgb(166,213,213)"/><path d="M-38.30032960618594,-76.7584662018651L-29.633745999662292,-91.43318863188796L-30.290233789013104,-92.48548024137119zM-38.30032960618594,-76.7584662018651L-57.726646928714935,-78.26671412540401L-57.234257694667875,-77.12923231422567z" style="fill:rgb(83,212,212)"/><path d="M-53.62253484359197,-103.29414584506304L-59.06266950169302,-102.1821099141297L-60.331767682222555,-82.00692670814793z" style="fill:rgb(95,214,214)"/><path d="M-54.90330790580209,-128.89114063864744L-53.486341802904306,-68.65849437331654L-50.10364421670938,-130.1607752998758z" style="fill:rgb(87,213,213)"/><path d="M-110.15303903504878,-131.49392189704912L-112.35660637086033,-68.50358695614138L-105.25163844621419,-130.00762470533033z" style="fill:rgb(174,211,211)"/><path d="M-38.30032960618594,-76.7584662018651L-29.224571916488227,-90.25481953638905L-29.633745999662292,-91.43318863188796zM-38.30032960618594,-76.7584662018651L-57.234257694667875,-77.12923231422567L-56.496224153930754,-76.12115087432029z" style="fill:rgb(83,212,212)"/><path d="M-48.28394315763291,-104.67505974936249L-53.62253484359197,-103.29414584506304L-54.77588352311102,-83.12284275915866z" style="fill:rgb(87,213,213)"/><path d="M-50.10364421670938,-130.1607752998758L-48.48312486476198,-70.18917022616608L-45.4128915172313,-131.67394628427994z" style="fill:rgb(80,211,211)"/><path d="M-38.30032960618594,-76.7584662018651L-29.071153347990236,-88.9709485788168L-29.224571916488227,-90.25481953638905zM-38.30032960618594,-76.7584662018651L-56.496224153930754,-76.12115087432029L-55.524704418371236,-75.26113092022888z" style="fill:rgb(83,212,212)"/><path d="M-114.96315779964651,-133.22016443338165L-117.5989457990675,-70.00704470063442L-110.15303903504878,-131.49392189704912z" style="fill:rgb(181,209,209)"/><path d="M-43.06463467410522,-106.32128216956853L-48.28394315763291,-104.67505974936249L-49.3237458008132,-84.50863531648244z" style="fill:rgb(80,211,211)"/><path d="M-38.30032960618594,-76.7584662018651L-29.177367175966484,-87.6042572779566L-29.071153347990236,-88.9709485788168zM-38.30032960618594,-76.7584662018651L-55.524704418371236,-75.26113092022888L-54.33619445085391,-74.56531040141243z" style="fill:rgb(83,212,212)"/><path d="M-45.4128915172313,-131.67394628427994L-43.613165498189176,-71.96237854292649L-40.84720050776441,-133.42654626173473z" style="fill:rgb(72,208,208)"/><path d="M-35.06550155029655,-89.6875166844898L-28.76848706798142,-98.62280907687196L-34.32294390297807,-109.83503682768256z" style="fill:rgb(247,158,158)"/><path d="M-38.30032960618594,-76.7584662018651L-29.542377188118497,-86.17911877531856L-29.177367175966484,-87.6042572779566z" style="fill:rgb(83,212,212)"/><path d="M-119.66531535724316,-135.18159206527628L-122.74641908398715,-71.75355132066949L-114.96315779964651,-133.22016443338165z" style="fill:rgb(188,206,206)"/><path d="M-38.30032960618594,-76.7584662018651L-54.33619445085391,-74.56531040141243L-52.95130315875812,-74.04697924830478z" style="fill:rgb(83,212,212)"/><path d="M-37.98222023156845,-108.2286153134588L-43.06463467410522,-106.32128216956853L-43.993398928452535,-86.16078216174967z" style="fill:rgb(72,208,208)"/><path d="M-38.30032960618594,-76.7584662018651L-30.160569605544655,-84.72119782431251L-29.542377188118497,-86.17911877531856z" style="fill:rgb(83,212,212)"/><path d="M-40.84720050776441,-133.42654626173473L-38.89324615288262,-73.97341338521075L-36.422448724543365,-135.41377585725687z" style="fill:rgb(65,206,206)"/><path d="M-38.30032960618594,-76.7584662018651L-52.95130315875812,-74.04697924830478L-51.39442800570928,-73.71624123803198zM-84.37149733322481,-102.66126269587225L-63.355575484755555,-127.36350670516237L-65.23524093476995,-126.4408608920842zM-84.37149733322481,-102.66126269587225L-65.23524093476995,-126.4408608920842L-67.07467160218215,-125.44101468147878zM-84.37149733322481,-102.66126269587225L-61.445308379521876,-128.20423082992326L-63.355575484755555,-127.36350670516237zM-38.30032960618594,-76.7584662018651L-31.021590508204536,-83.25695358221397L-30.160569605544655,-84.72119782431251zM-84.37149733322481,-102.66126269587225L-67.07467160218215,-125.44101468147878L-68.8644247737018,-124.36910547266484zM-38.30032960618594,-76.7584662018651L-51.39442800570928,-73.71624123803198L-49.693325624746045,-73.57980276788504zM-84.37149733322481,-102.66126269587225L-59.514231878553815,-128.9586545543441L-61.445308379521876,-128.20423082992326zM-84.37149733322481,-102.66126269587225L-68.8644247737018,-124.36910547266484L-70.59528317568778,-123.23057919189438z" style="fill:rgb(83,212,212)"/><path d="M-124.24315991066463,-137.37274649430685L-127.78136804605958,-73.73841587529773L-119.66531535724316,-135.18159206527628z" style="fill:rgb(195,203,203)"/><path d="M-84.37149733322481,-102.66126269587225L-57.57224853325547,-129.62285210710039L-59.514231878553815,-128.9586545543441zM-84.37149733322481,-102.66126269587225L-70.59528317568778,-123.23057919189438L-72.25830964639495,-122.03125005915061zM-84.37149733322481,-102.66126269587225L-55.629324764342186,-130.19329882249903L-57.57224853325547,-129.62285210710039zM-38.30032960618594,-76.7584662018651L-32.11048645277064,-81.81313700966885L-31.021590508204536,-83.25695358221397zM-84.37149733322481,-102.66126269587225L-72.25830964639495,-122.03125005915061L-73.84487400311609,-120.77719379377055z" style="fill:rgb(83,212,212)"/><path d="M-35.06550155029655,-89.6875166844898L-34.32294390297807,-109.83503682768256L-37.98222023156845,-108.2286153134588z" style="fill:rgb(65,206,206)"/><path d="M-38.30032960618594,-76.7584662018651L-49.693325624746045,-73.57980276788504L-47.878662160018074,-73.64078900907481zM-84.37149733322481,-102.66126269587225L-53.6954782462257,-130.66691900510324L-55.629324764342186,-130.19329882249903zM-84.37149733322481,-102.66126269587225L-73.84487400311609,-120.77719379377055L-75.34668147976001,-119.47479036909392z" style="fill:rgb(83,212,212)"/><path d="M-36.422448724543365,-135.41377585725687L-34.33996462886187,-76.2168365215192L-32.15431831775038,-137.63011537631198z" style="fill:rgb(58,203,203)"/><path d="M-60.331767682222555,-82.00692670814793L-63.1669912977338,-101.55768979121588L-64.52352339727854,-81.3803482976104z" style="fill:rgb(103,216,215)"/><path d="M-38.30032960618594,-76.7584662018651L-33.407920600753535,-80.41629013284776L-32.11048645277064,-81.81313700966885zM-38.30032960618594,-76.7584662018651L-47.878662160018074,-73.64078900907481L-45.98339740456296,-73.89861635440157zM-84.37149733322481,-102.66126269587225L-51.780695640868146,-131.0410971151937L-53.6954782462257,-130.66691900510324zM-84.37149733322481,-102.66126269587225L-75.34668147976001,-119.47479036909392L-76.7558434606662,-118.13068903220152zM-38.30032960618594,-76.7584662018651L-34.890533601042044,-79.09218463471687L-33.407920600753535,-80.41629013284776zM-38.30032960618594,-76.7584662018651L-45.98339740456296,-73.89861635440157L-44.042195385404845,-74.34900383267951z" style="fill:rgb(83,212,212)"/><path d="M-35.06550155029655,-89.6875166844898L-29.384679806035052,-78.4355156379464L-28.76848706798142,-98.62280907687196z" style="fill:rgb(247,158,158)"/><path d="M-126.40023738730521,-138.54660785261456L-132.68645215119395,-75.95629264938651L-124.24315991066463,-137.37274649430685z" style="fill:rgb(202,200,200)"/><path d="M-134.99925487060045,-77.14469794655666L-126.40023738730521,-138.54660785261456L-134.68537196817758,-136.05250719408264z" style="fill:rgb(83,212,212)"/><path d="M-60.331767682222555,-82.00692670814793L-58.59313344796765,-70.29220511962706L-54.69094304278665,-71.38013696771148z" style="fill:rgb(127,37,217)"/><path d="M-84.37149733322481,-102.66126269587225L-49.89491785027358,-131.31368823886461L-51.780695640868146,-131.0410971151937zM-84.37149733322481,-102.66126269587225L-76.7558434606662,-118.13068903220152L-78.06486012138065,-116.75174252065364zM-38.30032960618594,-76.7584662018651L-36.531352731062995,-77.86533267413603L-34.890533601042044,-79.09218463471687zM-38.30032960618594,-76.7584662018651L-44.042195385404845,-74.34900383267951L-42.09070949358504,-74.9839877238007z" style="fill:rgb(83,212,212)"/><path d="M-53.62253484359197,-103.29414584506304L-60.331767682222555,-82.00692670814793L-54.77588352311102,-83.12284275915866z" style="fill:rgb(95,214,214)"/><path d="M-38.30032960618594,-76.7584662018651L-42.09070949358504,-74.9839877238007L-40.16491006147504,-75.79207780660674zM-84.37149733322481,-102.66126269587225L-48.047992172400406,-131.4830478312205L-49.89491785027358,-131.31368823886461zM-84.37149733322481,-102.66126269587225L-78.06486012138065,-116.75174252065364L-79.2667203179777,-115.34503188929332z" style="fill:rgb(83,212,212)"/><path d="M-54.77588352311102,-83.12284275915866L-54.69094304278665,-71.38013696771148L-49.38417144027349,-72.85966269608986z" style="fill:rgb(127,37,217)"/><path d="M-84.37149733322481,-102.66126269587225L-46.24961844990355,-131.54801212224206L-48.047992172400406,-131.4830478312205zM-84.37149733322481,-102.66126269587225L-79.2667203179777,-115.34503188929332L-80.35487839175035,-113.91777712061243z" style="fill:rgb(83,212,212)"/><path d="M-32.15431831775038,-137.63011537631198L-29.969690845512893,-78.68647550721586L-28.05825494755372,-140.06928011209723z" style="fill:rgb(52,200,200)"/><path d="M-48.28394315763291,-104.67505974936249L-54.77588352311102,-83.12284275915866L-49.3237458008132,-84.50863531648244z" style="fill:rgb(87,213,213)"/><path d="M-84.37149733322481,-102.66126269587225L-44.50931352296055,-131.5079537848788L-46.24961844990355,-131.54801212224206zM-84.37149733322481,-102.66126269587225L-80.35487839175035,-113.91777712061243L-81.3233322823602,-112.4773611241912z" style="fill:rgb(83,212,212)"/><path d="M-49.3237458008132,-84.50863531648244L-49.38417144027349,-72.85966269608986L-44.042195385404845,-74.34900383267951z" style="fill:rgb(127,37,217)"/><path d="M-84.37149733322481,-102.66126269587225L-42.83637022008287,-131.36273071786064L-44.50931352296055,-131.5079537848788zM-84.37149733322481,-102.66126269587225L-81.3233322823602,-112.4773611241912L-82.1666255046372,-111.03129651234113z" style="fill:rgb(83,212,212)"/><path d="M-43.06463467410522,-106.32128216956853L-49.3237458008132,-84.50863531648244L-43.993398928452535,-86.16078216174967z" style="fill:rgb(80,211,211)"/><path d="M-60.331767682222555,-82.00692670814793L-64.52352339727854,-81.3803482976104L-58.59313344796765,-70.29220511962706z" style="fill:rgb(127,37,217)"/><path d="M-84.37149733322481,-102.66126269587225L-41.239794272555905,-131.11275594058864L-42.83637022008287,-131.36273071786064zM-84.37149733322481,-102.66126269587225L-82.1666255046372,-111.03129651234113L-82.87991351167877,-109.58714248913321z" style="fill:rgb(83,212,212)"/><path d="M-28.05825494755372,-140.06928011209723L-25.79839832167692,-81.375459430821L-24.14930599791148,-142.72430326919786z" style="fill:rgb(45,196,196)"/><path d="M-43.993398928452535,-86.16078216174967L-44.042195385404845,-74.34900383267951L-38.68591863081853,-75.84233046920886zM-54.77588352311102,-83.12284275915866L-60.331767682222555,-82.00692670814793L-54.69094304278665,-71.38013696771148z" style="fill:rgb(127,37,217)"/><path d="M-84.37149733322481,-102.66126269587225L-39.728273694562766,-130.75896661594746L-41.239794272555905,-131.11275594058864zM-84.37149733322481,-102.66126269587225L-82.87991351167877,-109.58714248913321L-83.45895292950597,-108.15252810713866z" style="fill:rgb(83,212,212)"/><path d="M-37.98222023156845,-108.2286153134588L-43.993398928452535,-86.16078216174967L-38.80276387054548,-88.07509669992912z" style="fill:rgb(72,208,208)"/><path d="M-49.3237458008132,-84.50863531648244L-54.77588352311102,-83.12284275915866L-49.38417144027349,-72.85966269608986z" style="fill:rgb(127,37,217)"/><path d="M-84.37149733322481,-102.66126269587225L-38.31012598691674,-130.3028377143745L-39.728273694562766,-130.75896661594746zM-84.37149733322481,-102.66126269587225L-83.45895292950597,-108.15252810713866L-83.90017395785624,-106.73506510697598z" style="fill:rgb(83,212,212)"/><path d="M-38.80276387054548,-88.07509669992912L-38.68591863081853,-75.84233046920886L-33.33648091797774,-77.33375218872496z" style="fill:rgb(127,37,217)"/><path d="M-35.06550155029655,-89.6875166844898L-37.98222023156845,-108.2286153134588L-38.80276387054548,-88.07509669992912z" style="fill:rgb(65,206,206)"/><path d="M-24.14930599791148,-142.72430326919786L-21.84177730871086,-84.27619066070443L-20.44222555903811,-145.58749274838559z" style="fill:rgb(39,193,192)"/><path d="M-84.37149733322481,-102.66126269587225L-36.99325894097031,-129.74638032272372L-38.31012598691674,-130.3028377143745zM-84.37149733322481,-102.66126269587225L-83.90017395785624,-106.73506510697598L-84.20067499789678,-105.3423691008102z" style="fill:rgb(83,212,212)"/><path d="M-43.993398928452535,-86.16078216174967L-49.3237458008132,-84.50863531648244L-44.042195385404845,-74.34900383267951zM-35.06550155029655,-89.6875166844898L-33.33648091797774,-77.33375218872496L-29.384679806035052,-78.4355156379464z" style="fill:rgb(127,37,217)"/><path d="M-84.37149733322481,-102.66126269587225L-35.78511298930655,-129.09214807527775L-36.99325894097031,-129.74638032272372zM-84.37149733322481,-102.66126269587225L-84.20067499789678,-105.3423691008102L-84.35827030060828,-103.98195358409176z" style="fill:rgb(83,212,212)"/><path d="M-78.4339616998773,-89.55379832218912L-77.93274131491016,-88.79802979797624L-77.6142830719112,-88.32097719447434z" style="fill:rgb(18,62,136)"/><path d="M-84.37149733322481,-102.66126269587225L-34.69262897114241,-128.34322513493984L-35.78511298930655,-129.09214807527775z" style="fill:rgb(83,212,212)"/><path d="M-38.80276387054548,-88.07509669992912L-43.993398928452535,-86.16078216174967L-38.68591863081853,-75.84233046920886z" style="fill:rgb(127,37,217)"/><path d="M-20.44222555903811,-145.58749274838559L-18.11516546126156,-87.38029552583012L-16.95140846663514,-148.6503629839436z" style="fill:rgb(34,188,188)"/><path d="M-84.37149733322481,-102.66126269587225L-33.72218893771821,-127.5032267572592L-34.69262897114241,-128.34322513493984z" style="fill:rgb(83,212,212)"/><path d="M-35.06550155029655,-89.6875166844898L-38.80276387054548,-88.07509669992912L-33.33648091797774,-77.33375218872496z" style="fill:rgb(127,37,217)"/><path d="M-84.37149733322481,-102.66126269587225L-32.87958878446166,-126.57627572739483L-33.72218893771821,-127.5032267572592zM-84.37149733322481,-102.66126269587225L-84.23964762725194,-101.3875712331712L-83.96278862671286,-100.1679792141882z" style="fill:rgb(83,212,212)"/><path d="M-78.4339616998773,-89.55379832218912L-77.6142830719112,-88.32097719447434L-82.27451808333825,-96.90112740794123z" style="fill:rgb(18,62,136)"/><path d="M-27.56604184587947,-116.19887075276826L-31.166973732532043,-123.32255344179173L-27.197615090202046,-115.17104505215349z" style="fill:rgb(243,178,135)"/><path d="M-84.37149733322481,-102.66126269587225L-32.169982054577304,-125.56702238697268L-32.87958878446166,-126.57627572739483zM-84.37149733322481,-102.66126269587225L-83.96278862671286,-100.1679792141882L-83.54175520946416,-99.00936314928491z" style="fill:rgb(83,212,212)"/><path d="M-16.95140846663514,-148.6503629839436L-14.633428419640929,-90.67870664285223L-13.690775836499304,-151.90378680275444z" style="fill:rgb(28,184,184)"/><path d="M-76.6572397888453,-87.16438817599946L-82.27451808333825,-96.90112740794123L-77.6142830719112,-88.32097719447434z" style="fill:rgb(22,57,143)"/><path d="M-79.96053490959966,-126.29237520891074L-85.33996838240746,-64.74655649654835L-79.89981938391746,-64.76082106741298z" style="fill:rgb(127,217,217)"/><path d="M-74.86324630636999,-126.30648867450911L-79.89981938391746,-64.76082106741298L-74.48874792148175,-65.03174678252313z" style="fill:rgb(119,217,217)"/><path d="M-85.06726626752315,-126.53216457172783L-90.79151534334902,-64.98898936459892L-85.33996838240746,-64.74655649654835z" style="fill:rgb(135,217,217)"/><path d="M-84.37149733322481,-102.66126269587225L-31.59785650754679,-124.48058057270876L-32.169982054577304,-125.56702238697268zM-84.37149733322481,-102.66126269587225L-83.54175520946416,-99.00936314928491L-82.9781921083124,-97.91831507629429z" style="fill:rgb(83,212,212)"/><path d="M-69.79219063838077,-126.57444975669205L-74.48874792148175,-65.03174678252313L-69.12433133842949,-65.55865710059037z" style="fill:rgb(111,216,216)"/><path d="M-90.1665657686508,-127.02520591692418L-96.23668362728978,-65.48750571287762L-90.79151534334902,-64.98898936459892z" style="fill:rgb(143,216,216)"/><path d="M-27.197615090202046,-115.17104505215349L-30.880355592776265,-122.09898726063334L-26.952658462049175,-114.03743391306384z" style="fill:rgb(245,172,142)"/><path d="M-27.56604184587947,-116.19887075276826L-31.59785650754679,-124.48058057270876L-31.166973732532043,-123.32255344179173z" style="fill:rgb(243,178,135)"/><path d="M-78.4339616998773,-89.55379832218912L-82.27451808333825,-96.90112740794123L-82.9781921083124,-97.91831507629429z" style="fill:rgb(18,62,136)"/><path d="M-64.76405945866262,-127.09557488358453L-69.12433133842949,-65.55865710059037L-63.82418812241715,-66.34020530651969z" style="fill:rgb(103,216,215)"/><path d="M-95.24162994884223,-127.77024488665928L-101.65777085160148,-66.2408533626107L-96.23668362728978,-65.48750571287762z" style="fill:rgb(150,216,216)"/><path d="M-75.55316549752193,-86.06412951011556L-81.43397636319294,-95.96375244966909L-76.6572397888453,-87.16438817599946z" style="fill:rgb(26,52,150)"/><path d="M-84.37149733322481,-102.66126269587225L-31.166973732532043,-123.32255344179173L-31.59785650754679,-124.48058057270876zM-84.37149733322481,-102.66126269587225L-82.9781921083124,-97.91831507629429L-82.27451808333825,-96.90112740794123z" style="fill:rgb(83,212,212)"/><path d="M-74.30770303855934,-85.02660081637313L-73.03122769204906,-84.13077647606566L-72.9301330317101,-84.06300114923795z" style="fill:rgb(37,44,163)"/><path d="M-59.79557929835044,-127.8684957074874L-63.82418812241715,-66.34020530651969L-58.60576227904015,-67.37438264377029z" style="fill:rgb(95,214,214)"/><path d="M-100.27557519737745,-128.76528496397424L-107.03697340836693,-67.24710167579788L-101.65777085160148,-66.2408533626107z" style="fill:rgb(158,214,214)"/><path d="M-26.952658462049175,-114.03743391306384L-30.740248858171196,-120.81635092579225L-26.833145056296168,-112.80391722662712z" style="fill:rgb(246,166,149)"/><path d="M-84.37149733322481,-102.66126269587225L-30.880355592776265,-122.09898726063334L-31.166973732532043,-123.32255344179173zM-84.37149733322481,-102.66126269587225L-82.27451808333825,-96.90112740794123L-81.43397636319294,-95.96375244966909z" style="fill:rgb(83,212,212)"/><path d="M-27.197615090202046,-115.17104505215349L-31.166973732532043,-123.32255344179173L-30.880355592776265,-122.09898726063334z" style="fill:rgb(245,172,142)"/><path d="M-13.690775836499304,-151.90378680275444L-11.41096940426183,-94.16152935833158L-10.673785306993047,-155.33777711452018z" style="fill:rgb(24,180,180)"/><path d="M-74.30770303855934,-85.02660081637313L-80.46058737361383,-95.11173317738357L-75.55316549752193,-86.06412951011556z" style="fill:rgb(31,48,157)"/><path d="M-54.90330790580209,-128.89114063864744L-58.60576227904015,-67.37438264377029L-53.486341802904306,-68.65849437331654z" style="fill:rgb(87,213,213)"/><path d="M-76.6572397888453,-87.16438817599946L-81.43397636319294,-95.96375244966909L-82.27451808333825,-96.90112740794123z" style="fill:rgb(22,57,143)"/><path d="M-105.25163844621419,-130.00762470533033L-112.35660637086033,-68.50358695614138L-107.03697340836693,-67.24710167579788z" style="fill:rgb(166,213,213)"/><path d="M-84.37149733322481,-102.66126269587225L-30.740248858171196,-120.81635092579225L-30.880355592776265,-122.09898726063334zM-84.37149733322481,-102.66126269587225L-81.43397636319294,-95.96375244966909L-80.46058737361383,-95.11173317738357z" style="fill:rgb(83,212,212)"/><path d="M-26.833145056296168,-112.80391722662712L-30.748085371433092,-119.48149812664181L-26.840330678937583,-111.4770435690259z" style="fill:rgb(247,159,156)"/><path d="M-50.10364421670938,-130.1607752998758L-53.486341802904306,-68.65849437331654L-48.48312486476198,-70.18917022616608z" style="fill:rgb(80,211,211)"/><path d="M-26.952658462049175,-114.03743391306384L-30.880355592776265,-122.09898726063334L-30.740248858171196,-120.81635092579225z" style="fill:rgb(246,166,149)"/><path d="M-110.15303903504878,-131.49392189704912L-117.5989457990675,-70.00704470063442L-112.35660637086033,-68.50358695614138z" style="fill:rgb(174,211,211)"/><path d="M-75.55316549752193,-86.06412951011556L-80.46058737361383,-95.11173317738357L-81.43397636319294,-95.96375244966909z" style="fill:rgb(26,52,150)"/><path d="M-74.30770303855934,-85.02660081637313L-72.9301330317101,-84.06300114923795L-78.13529247624881,-93.68374796183272z" style="fill:rgb(37,44,163)"/><path d="M-84.37149733322481,-102.66126269587225L-30.748085371433092,-119.48149812664181L-30.740248858171196,-120.81635092579225zM-84.37149733322481,-102.66126269587225L-80.46058737361383,-95.11173317738357L-79.35916706985356,-94.35018441338244z" style="fill:rgb(83,212,212)"/><path d="M-71.46196312411932,-83.24230028109989L-78.13529247624881,-93.68374796183272L-72.9301330317101,-84.06300114923795z" style="fill:rgb(43,41,170)"/><path d="M-26.840330678937583,-111.4770435690259L-30.904478884084572,-118.10164198560118L-26.974730929383238,-110.06392238746933z" style="fill:rgb(247,153,163)"/><path d="M-84.37149733322481,-102.66126269587225L-30.904478884084572,-118.10164198560118L-30.748085371433092,-119.48149812664181z" style="fill:rgb(83,212,212)"/><path d="M-45.4128915172313,-131.67394628427994L-48.48312486476198,-70.18917022616608L-43.613165498189176,-71.96237854292649z" style="fill:rgb(72,208,208)"/><path d="M-84.37149733322481,-102.66126269587225L-79.35916706985356,-94.35018441338244L-78.13529247624881,-93.68374796183272z" style="fill:rgb(83,212,212)"/><path d="M-68.1840910001974,-81.86053040538957L-67.97383799152617,-81.79568052485759L-66.43271102633433,-81.38309090659493z" style="fill:rgb(64,34,187)"/><path d="M-26.833145056296168,-112.80391722662712L-30.740248858171196,-120.81635092579225L-30.748085371433092,-119.48149812664181z" style="fill:rgb(247,159,156)"/><path d="M-10.673785306993047,-155.33777711452018L-8.461533673101503,-97.81811032015092L-7.913246324012179,-158.94162553812924z" style="fill:rgb(19,175,175)"/><path d="M-114.96315779964651,-133.22016443338165L-122.74641908398715,-71.75355132066949L-117.5989457990675,-70.00704470063442z" style="fill:rgb(181,209,209)"/><path d="M-74.30770303855934,-85.02660081637313L-79.35916706985356,-94.35018441338244L-80.46058737361383,-95.11173317738357z" style="fill:rgb(31,48,157)"/><path d="M-84.37149733322481,-102.66126269587225L-31.20919052913048,-116.68432274513873L-30.904478884084572,-118.10164198560118z" style="fill:rgb(83,212,212)"/><path d="M-69.87707090422589,-82.50665466374092L-76.79529966674235,-93.11658020336188L-71.46196312411932,-83.24230028109989z" style="fill:rgb(50,38,176)"/><path d="M-84.37149733322481,-102.66126269587225L-78.13529247624881,-93.68374796183272L-76.79529966674235,-93.11658020336188z" style="fill:rgb(83,212,212)"/><path d="M-26.974730929383238,-110.06392238746933L-31.20919052913048,-116.68432274513873L-27.236108354644664,-108.57226120817437z" style="fill:rgb(246,146,169)"/><path d="M-74.30770303855934,-85.02660081637313L-78.13529247624881,-93.68374796183272L-79.35916706985356,-94.35018441338244z" style="fill:rgb(37,44,163)"/><path d="M-26.840330678937583,-111.4770435690259L-30.748085371433092,-119.48149812664181L-30.904478884084572,-118.10164198560118z" style="fill:rgb(247,153,163)"/><path d="M-40.84720050776441,-133.42654626173473L-43.613165498189176,-71.96237854292649L-38.89324615288262,-73.97341338521075z" style="fill:rgb(65,206,206)"/><path d="M-84.37149733322481,-102.66126269587225L-31.661124775277376,-115.23735961621762L-31.20919052913048,-116.68432274513873zM-84.37149733322481,-102.66126269587225L-76.79529966674235,-93.11658020336188L-75.34624774540835,-92.65228254016213z" style="fill:rgb(83,212,212)"/><path d="M-119.66531535724316,-135.18159206527628L-127.78136804605958,-73.73841587529773L-122.74641908398715,-71.75355132066949z" style="fill:rgb(188,206,206)"/><path d="M-68.1840910001974,-81.86053040538957L-75.34624774540835,-92.65228254016213L-69.87707090422589,-82.50665466374092z" style="fill:rgb(57,36,182)"/><path d="M-64.59969951821647,-81.016306069774L-62.87882153966592,-80.7786462706377L-62.69468836364897,-80.76148887393812z" style="fill:rgb(80,32,198)"/><path d="M-27.236108354644664,-108.57226120817437L-31.661124775277376,-115.23735961621762L-27.623473489193948,-107.01031712925236z" style="fill:rgb(244,139,175)"/><path d="M-84.37149733322481,-102.66126269587225L-32.25831732594308,-113.76880389784836L-31.661124775277376,-115.23735961621762zM-84.37149733322481,-102.66126269587225L-75.34624774540835,-92.65228254016213L-73.7958874084684,-92.29387886141878z" style="fill:rgb(83,212,212)"/><path d="M-71.46196312411932,-83.24230028109989L-76.79529966674235,-93.11658020336188L-78.13529247624881,-93.68374796183272z" style="fill:rgb(43,41,170)"/><path d="M-26.974730929383238,-110.06392238746933L-30.904478884084572,-118.10164198560118L-31.20919052913048,-116.68432274513873z" style="fill:rgb(246,146,169)"/><path d="M-29.52879549989988,-102.00987713616718L-29.222801741099353,-102.67166277228745L-28.768324327599167,-103.71088334363687z" style="fill:rgb(236,118,192)"/><path d="M-7.913246324012179,-158.94162553812924L-5.798365268506636,-101.63702324475607L-5.421467434592713,-162.7038650457948z" style="fill:rgb(15,170,170)"/><path d="M-36.422448724543365,-135.41377585725687L-38.89324615288262,-73.97341338521075L-34.33996462886187,-76.2168365215192z" style="fill:rgb(58,203,203)"/><path d="M-84.37149733322481,-102.66126269587225L-32.9979429113366,-112.28689089534126L-32.25831732594308,-113.76880389784836z" style="fill:rgb(83,212,212)"/><path d="M-68.1840910001974,-81.86053040538957L-66.43271102633433,-81.38309090659493L-72.15261652493852,-92.04382008188908z" style="fill:rgb(64,34,187)"/><path d="M-84.37149733322481,-102.66126269587225L-73.7958874084684,-92.29387886141878L-72.15261652493852,-92.04382008188908z" style="fill:rgb(83,212,212)"/><path d="M-27.623473489193948,-107.01031712925236L-32.25831732594308,-113.76880389784836L-28.13505608857244,-105.38679970275496z" style="fill:rgb(242,132,181)"/><path d="M-124.24315991066463,-137.37274649430685L-132.68645215119395,-75.95629264938651L-127.78136804605958,-73.73841587529773z" style="fill:rgb(195,203,203)"/><path d="M-134.99925487060045,-77.14469794655666L-134.68537196817758,-136.05250719408264L-143.82734803222968,-74.61988796345908z" style="fill:rgb(83,212,212)"/><path d="M-64.59969951821647,-81.016306069774L-72.15261652493852,-92.04382008188908L-66.43271102633433,-81.38309090659493z" style="fill:rgb(72,33,193)"/><path d="M-69.87707090422589,-82.50665466374092L-75.34624774540835,-92.65228254016213L-76.79529966674235,-93.11658020336188z" style="fill:rgb(50,38,176)"/><path d="M-84.37149733322481,-102.66126269587225L-33.876305250048105,-110.80000348472208L-32.9979429113366,-112.28689089534126zM-84.37149733322481,-102.66126269587225L-72.15261652493852,-92.04382008188908L-70.42545474535054,-91.90390639742344z" style="fill:rgb(83,212,212)"/><path d="M-27.236108354644664,-108.57226120817437L-31.20919052913048,-116.68432274513873L-31.661124775277376,-115.23735961621762z" style="fill:rgb(244,139,175)"/><path d="M-58.78819539072846,-80.73790158445411L-57.79702585502042,-80.81165307292703L-56.791164581129976,-80.93724359586717z" style="fill:rgb(105,33,210)"/><path d="M-28.13505608857244,-105.38679970275496L-32.9979429113366,-112.28689089534126L-28.768324327599167,-103.71088334363687z" style="fill:rgb(240,125,187)"/><path d="M-84.37149733322481,-102.66126269587225L-34.88887037564562,-109.31662212454471L-33.876305250048105,-110.80000348472208zM-84.37149733322481,-102.66126269587225L-70.42545474535054,-91.90390639742344L-68.62398287687003,-91.87530318546051z" style="fill:rgb(83,212,212)"/><path d="M-126.40023738730521,-138.54660785261456L-134.99925487060045,-77.14469794655666L-132.68645215119395,-75.95629264938651z" style="fill:rgb(202,200,200)"/><path d="M-29.52879549989988,-102.00987713616718L-28.768324327599167,-103.71088334363687L-32.9979429113366,-112.28689089534126z" style="fill:rgb(236,118,192)"/><path d="M-68.1840910001974,-81.86053040538957L-73.7958874084684,-92.29387886141878L-75.34624774540835,-92.65228254016213z" style="fill:rgb(57,36,182)"/><path d="M-64.59969951821647,-81.016306069774L-62.69468836364897,-80.76148887393812L-68.62398287687003,-91.87530318546051z" style="fill:rgb(80,32,198)"/><path d="M-32.15431831775038,-137.63011537631198L-34.33996462886187,-76.2168365215192L-29.969690845512893,-78.68647550721586z" style="fill:rgb(52,200,200)"/><path d="M-27.623473489193948,-107.01031712925236L-31.661124775277376,-115.23735961621762L-32.25831732594308,-113.76880389784836z" style="fill:rgb(242,132,181)"/><path d="M-84.37149733322481,-102.66126269587225L-36.030259274188616,-107.84524452521245L-34.88887037564562,-109.31662212454471zM-84.37149733322481,-102.66126269587225L-68.62398287687003,-91.87530318546051L-66.75827394594856,-91.95855179265502z" style="fill:rgb(83,212,212)"/><path d="M-60.76839804967565,-80.6955951133015L-68.62398287687003,-91.87530318546051L-62.69468836364897,-80.76148887393812z" style="fill:rgb(88,32,202)"/><path d="M-33.755274431523844,-95.16011063571027L-33.661377769130624,-95.28407710477717L-32.53862028982057,-96.87281862639749z" style="fill:rgb(217,91,210)"/><path d="M-68.1840910001974,-81.86053040538957L-72.15261652493852,-92.04382008188908L-73.7958874084684,-92.29387886141878z" style="fill:rgb(64,34,187)"/><path d="M-84.37149733322481,-102.66126269587225L-37.2942971650919,-106.39433461213774L-36.030259274188616,-107.84524452521245zM-84.37149733322481,-102.66126269587225L-66.75827394594856,-91.95855179265502L-64.83886191066026,-92.15346751600093z" style="fill:rgb(83,212,212)"/><path d="M-5.421467434592713,-162.7038650457948L-3.4339882309026115,-105.60612312081622L-3.2100521180363657,-166.61233155180204z" style="fill:rgb(11,165,165)"/><path d="M-29.52879549989988,-102.00987713616718L-34.88887037564562,-109.31662212454471L-30.420752723990326,-100.31027500368083z" style="fill:rgb(232,111,197)"/><path d="M-28.13505608857244,-105.38679970275496L-32.25831732594308,-113.76880389784836L-32.9979429113366,-112.28689089534126z" style="fill:rgb(240,125,187)"/><path d="M-84.37149733322481,-102.66126269587225L-38.674029708568064,-104.97231882548687L-37.2942971650919,-106.39433461213774z" style="fill:rgb(83,212,212)"/><path d="M-48.81173833982861,-83.18218925325318L-47.81240159599832,-83.6211362394554L-46.87585472204548,-84.09042597542563z" style="fill:rgb(149,44,221)"/><path d="M-58.78819539072846,-80.73790158445411L-66.75827394594856,-91.95855179265502L-60.76839804967565,-80.6955951133015z" style="fill:rgb(96,32,206)"/><path d="M-84.37149733322481,-102.66126269587225L-64.83886191066026,-92.15346751600093L-62.87665488973611,-92.45922987219531z" style="fill:rgb(83,212,212)"/><path d="M-39.683041810571915,-88.93012427921678L-38.24107600457739,-90.19068093248161L-38.054372124039254,-90.36855292656436z" style="fill:rgb(190,67,220)"/><path d="M-84.37149733322481,-102.66126269587225L-40.161765222683414,-103.5874593131458L-38.674029708568064,-104.97231882548687zM-84.37149733322481,-102.66126269587225L-62.87665488973611,-92.45922987219531L-60.88287580844092,-92.8743327686028z" style="fill:rgb(83,212,212)"/><path d="M-43.142011047897284,-86.26976789004492L-42.9639355341721,-86.38930713188626L-41.382388973532194,-87.56157455311887z" style="fill:rgb(174,56,222)"/><path d="M-30.420752723990326,-100.31027500368083L-36.030259274188616,-107.84524452521245L-31.42589027665531,-98.59461480076993z" style="fill:rgb(228,104,202)"/><path d="M-64.59969951821647,-81.016306069774L-70.42545474535054,-91.90390639742344L-72.15261652493852,-92.04382008188908z" style="fill:rgb(72,33,193)"/><path d="M-28.05825494755372,-140.06928011209723L-29.969690845512893,-78.68647550721586L-25.79839832167692,-81.375459430821z" style="fill:rgb(45,196,196)"/><path d="M-84.37149733322481,-102.66126269587225L-41.74913093417749,-102.24784185126812L-40.161765222683414,-103.5874593131458zM-84.37149733322481,-102.66126269587225L-60.88287580844092,-92.8743327686028L-58.8689846307772,-93.39658417483221z" style="fill:rgb(83,212,212)"/><path d="M-58.78819539072846,-80.73790158445411L-56.791164581129976,-80.93724359586717L-62.87665488973611,-92.45922987219531z" style="fill:rgb(105,33,210)"/><path d="M-84.37149733322481,-102.66126269587225L-43.427097779684104,-100.96127881282794L-41.74913093417749,-102.24784185126812zM-84.37149733322481,-102.66126269587225L-58.8689846307772,-93.39658417483221L-56.84660275259799,-94.02315875398453z" style="fill:rgb(83,212,212)"/><path d="M-29.52879549989988,-102.00987713616718L-32.9979429113366,-112.28689089534126L-33.876305250048105,-110.80000348472208z" style="fill:rgb(236,118,192)"/><path d="M-31.42589027665531,-98.59461480076993L-37.2942971650919,-106.39433461213774L-32.53862028982057,-96.87281862639749z" style="fill:rgb(223,97,206)"/><path d="M-54.78823393541502,-81.29224341216488L-62.87665488973611,-92.45922987219531L-56.791164581129976,-80.93724359586717z" style="fill:rgb(114,34,213)"/><path d="M-84.37149733322481,-102.66126269587225L-45.186076400311606,-99.7353243213387L-43.427097779684104,-100.96127881282794zM-84.37149733322481,-102.66126269587225L-56.84660275259799,-94.02315875398453L-54.82745120710792,-94.75055144507378z" style="fill:rgb(83,212,212)"/><path d="M-64.59969951821647,-81.016306069774L-68.62398287687003,-91.87530318546051L-70.42545474535054,-91.90390639742344z" style="fill:rgb(80,32,198)"/><path d="M-84.37149733322481,-102.66126269587225L-47.01593889540341,-98.577127862268L-45.186076400311606,-99.7353243213387zM-84.37149733322481,-102.66126269587225L-54.82745120710792,-94.75055144507378L-52.823245097663175,-95.57464113796121zM-84.37149733322481,-102.66126269587225L-48.90610647593929,-97.49349061837775L-47.01593889540341,-98.577127862268zM-84.37149733322481,-102.66126269587225L-52.823245097663175,-95.57464113796121L-50.84563227022726,-96.49072665755875z" style="fill:rgb(83,212,212)"/><path d="M-33.755274431523844,-95.16011063571027L-32.53862028982057,-96.87281862639749L-37.2942971650919,-106.39433461213774z" style="fill:rgb(217,91,210)"/><path d="M-84.37149733322481,-102.66126269587225L-50.84563227022726,-96.49072665755875L-48.90610647593929,-97.49349061837775z" style="fill:rgb(83,212,212)"/><path d="M-52.7660654252237,-81.75415435580099L-60.88287580844092,-92.8743327686028L-54.78823393541502,-81.29224341216488z" style="fill:rgb(123,36,216)"/><path d="M-29.52879549989988,-102.00987713616718L-33.876305250048105,-110.80000348472208L-34.88887037564562,-109.31662212454471z" style="fill:rgb(232,111,197)"/><path d="M-33.755274431523844,-95.16011063571027L-40.161765222683414,-103.5874593131458L-35.101359951393434,-93.53090065150654z" style="fill:rgb(211,84,213)"/><path d="M-52.7660654252237,-81.75415435580099L-50.78710786804264,-82.41771891700027L-56.84660275259799,-94.02315875398453z" style="fill:rgb(131,38,218)"/><path d="M-60.76839804967565,-80.6955951133015L-66.75827394594856,-91.95855179265502L-68.62398287687003,-91.87530318546051z" style="fill:rgb(88,32,202)"/><path d="M-48.81173833982861,-83.18218925325318L-56.84660275259799,-94.02315875398453L-50.78710786804264,-82.41771891700027z" style="fill:rgb(140,41,220)"/><path d="M-30.420752723990326,-100.31027500368083L-34.88887037564562,-109.31662212454471L-36.030259274188616,-107.84524452521245z" style="fill:rgb(228,104,202)"/><path d="M-35.101359951393434,-93.53090065150654L-41.74913093417749,-102.24784185126812L-36.537153918967405,-91.93059830850505z" style="fill:rgb(204,78,216)"/><path d="M-3.2100521180363657,-166.61233155180204L-1.380229953874041,-109.71238305954401L-1.2899217589014602,-170.65399809132364z" style="fill:rgb(8,160,160)"/><path d="M-24.14930599791148,-142.72430326919786L-25.79839832167692,-81.375459430821L-21.84177730871086,-84.27619066070443z" style="fill:rgb(39,193,192)"/><path d="M-36.537153918967405,-91.93059830850505L-43.427097779684104,-100.96127881282794L-38.054372124039254,-90.36855292656436z" style="fill:rgb(197,72,218)"/><path d="M-48.81173833982861,-83.18218925325318L-46.87585472204548,-84.09042597542563L-52.823245097663175,-95.57464113796121z" style="fill:rgb(149,44,221)"/><path d="M-87.2736980782932,-58.7792856047415L-85.09770799136724,-58.683037348295855L-81.93872334986457,-58.69127693529739z" style="fill:rgb(127,37,217)"/><path d="M-39.683041810571915,-88.93012427921678L-38.054372124039254,-90.36855292656436L-43.427097779684104,-100.96127881282794z" style="fill:rgb(190,67,220)"/><path d="M-81.93872334986457,-58.69127693529739L-79.18015822174291,-58.698469470689076L-76.59609536210478,-58.827137359012916z" style="fill:rgb(127,37,217)"/><path d="M-44.990787354289935,-85.13796780799363L-52.823245097663175,-95.57464113796121L-46.87585472204548,-84.09042597542563z" style="fill:rgb(158,48,222)"/><path d="M-58.78819539072846,-80.73790158445411L-64.83886191066026,-92.15346751600093L-66.75827394594856,-91.95855179265502z" style="fill:rgb(96,32,206)"/><path d="M-92.58079010314228,-59.08675638794327L-91.02771427243806,-58.94533428025354L-87.2736980782932,-58.7792856047415z" style="fill:rgb(127,37,217)"/><path d="M-43.142011047897284,-86.26976789004492L-50.84563227022726,-96.49072665755875L-44.990787354289935,-85.13796780799363z" style="fill:rgb(166,52,222)"/><path d="M-76.59609536210478,-58.827137359012916L-73.29385761563589,-58.99157174681369L-71.26541706882149,-59.18972049155738z" style="fill:rgb(127,37,217)"/><path d="M-43.142011047897284,-86.26976789004492L-41.382388973532194,-87.56157455311887L-47.01593889540341,-98.577127862268z" style="fill:rgb(174,56,222)"/><path d="M-39.683041810571915,-88.93012427921678L-47.01593889540341,-98.577127862268L-41.382388973532194,-87.56157455311887z" style="fill:rgb(182,61,221)"/><path d="M-31.42589027665531,-98.59461480076993L-36.030259274188616,-107.84524452521245L-37.2942971650919,-106.39433461213774z" style="fill:rgb(223,97,206)"/><path d="M-97.83905727743213,-59.60737786594886L-96.95118382294977,-59.48466560743236L-92.58079010314228,-59.08675638794327z" style="fill:rgb(127,37,217)"/><path d="M-58.78819539072846,-80.73790158445411L-62.87665488973611,-92.45922987219531L-64.83886191066026,-92.15346751600093z" style="fill:rgb(105,33,210)"/><path d="M-71.26541706882149,-59.18972049155738L-67.4577246920535,-59.561653650353385L-65.96571472360714,-59.78041015317478zM-103.02666504012444,-60.332790389868364L-102.84922994335268,-60.29978478809591L-97.83905727743213,-59.60737786594886z" style="fill:rgb(127,37,217)"/><path d="M-33.755274431523844,-95.16011063571027L-37.2942971650919,-106.39433461213774L-38.674029708568064,-104.97231882548687z" style="fill:rgb(217,91,210)"/><path d="M-65.96571472360714,-59.78041015317478L-61.69046950878854,-60.40729108197991L-60.71569070130821,-60.5993690380365z" style="fill:rgb(127,37,217)"/><path d="M-54.78823393541502,-81.29224341216488L-60.88287580844092,-92.8743327686028L-62.87665488973611,-92.45922987219531z" style="fill:rgb(114,34,213)"/><path d="M-33.755274431523844,-95.16011063571027L-38.674029708568064,-104.97231882548687L-40.161765222683414,-103.5874593131458z" style="fill:rgb(211,84,213)"/><path d="M-87.2736980782932,-58.7792856047415L-81.93872334986457,-58.69127693529739L-85.33996838240746,-64.74655649654835zM-81.93872334986457,-58.69127693529739L-76.59609536210478,-58.827137359012916L-79.89981938391746,-64.76082106741298zM-92.58079010314228,-59.08675638794327L-87.2736980782932,-58.7792856047415L-90.79151534334902,-64.98898936459892zM-76.59609536210478,-58.827137359012916L-71.26541706882149,-59.18972049155738L-74.48874792148175,-65.03174678252313z" style="fill:rgb(127,37,217)"/><path d="M-52.7660654252237,-81.75415435580099L-58.8689846307772,-93.39658417483221L-60.88287580844092,-92.8743327686028z" style="fill:rgb(123,36,216)"/><path d="M-60.71569070130821,-60.5993690380365L-56.01071686725629,-61.526432106154445L-55.5335507837823,-61.645416882571595z" style="fill:rgb(127,37,217)"/><path d="M-20.44222555903811,-145.58749274838559L-21.84177730871086,-84.27619066070443L-18.11516546126156,-87.38029552583012z" style="fill:rgb(34,188,188)"/><path d="M-35.101359951393434,-93.53090065150654L-40.161765222683414,-103.5874593131458L-41.74913093417749,-102.24784185126812z" style="fill:rgb(204,78,216)"/><path d="M-97.83905727743213,-59.60737786594886L-92.58079010314228,-59.08675638794327L-96.23668362728978,-65.48750571287762z" style="fill:rgb(127,37,217)"/><path d="M-52.7660654252237,-81.75415435580099L-56.84660275259799,-94.02315875398453L-58.8689846307772,-93.39658417483221z" style="fill:rgb(131,38,218)"/><path d="M-71.26541706882149,-59.18972049155738L-65.96571472360714,-59.78041015317478L-69.12433133842949,-65.55865710059037zM-113.14422074598897,-62.43179689876514L-108.70281974270706,-61.38865065628528L-108.13927718300909,-61.28381423931141z" style="fill:rgb(127,37,217)"/><path d="M-36.537153918967405,-91.93059830850505L-41.74913093417749,-102.24784185126812L-43.427097779684104,-100.96127881282794z" style="fill:rgb(197,72,218)"/><path d="M-48.81173833982861,-83.18218925325318L-54.82745120710792,-94.75055144507378L-56.84660275259799,-94.02315875398453z" style="fill:rgb(140,41,220)"/><path d="M-103.02666504012444,-60.332790389868364L-97.83905727743213,-59.60737786594886L-101.65777085160148,-66.2408533626107z" style="fill:rgb(127,37,217)"/><path d="M-1.2899217589014602,-170.65399809132364L0.35202116587887705,-113.94209338136086L0.32890941132889817,-174.81522821603943z" style="fill:rgb(6,155,155)"/><path d="M-65.96571472360714,-59.78041015317478L-60.71569070130821,-60.5993690380365L-63.82418812241715,-66.34020530651969z" style="fill:rgb(127,37,217)"/><path d="M-48.81173833982861,-83.18218925325318L-52.823245097663175,-95.57464113796121L-54.82745120710792,-94.75055144507378z" style="fill:rgb(149,44,221)"/><path d="M-39.683041810571915,-88.93012427921678L-43.427097779684104,-100.96127881282794L-45.186076400311606,-99.7353243213387z" style="fill:rgb(190,67,220)"/><path d="M-39.683041810571915,-88.93012427921678L-45.186076400311606,-99.7353243213387L-47.01593889540341,-98.577127862268z" style="fill:rgb(182,61,221)"/><path d="M-44.990787354289935,-85.13796780799363L-50.84563227022726,-96.49072665755875L-52.823245097663175,-95.57464113796121z" style="fill:rgb(158,48,222)"/><path d="M-43.142011047897284,-86.26976789004492L-47.01593889540341,-98.577127862268L-48.90610647593929,-97.49349061837775z" style="fill:rgb(174,56,222)"/><path d="M-43.142011047897284,-86.26976789004492L-48.90610647593929,-97.49349061837775L-50.84563227022726,-96.49072665755875z" style="fill:rgb(166,52,222)"/><path d="M-81.93872334986457,-58.69127693529739L-79.89981938391746,-64.76082106741298L-85.33996838240746,-64.74655649654835zM-87.2736980782932,-58.7792856047415L-85.33996838240746,-64.74655649654835L-90.79151534334902,-64.98898936459892zM-76.59609536210478,-58.827137359012916L-74.48874792148175,-65.03174678252313L-79.89981938391746,-64.76082106741298zM-108.13927718300909,-61.28381423931141L-103.02666504012444,-60.332790389868364L-107.03697340836693,-67.24710167579788zM-118.0112885308843,-63.7518356233972L-114.49308146481931,-62.74860138428602L-113.14422074598897,-62.43179689876514zM-92.58079010314228,-59.08675638794327L-90.79151534334902,-64.98898936459892L-96.23668362728978,-65.48750571287762zM-60.71569070130821,-60.5993690380365L-55.5335507837823,-61.645416882571595L-58.60576227904015,-67.37438264377029zM-71.26541706882149,-59.18972049155738L-69.12433133842949,-65.55865710059037L-74.48874792148175,-65.03174678252313zM-97.83905727743213,-59.60737786594886L-96.23668362728978,-65.48750571287762L-101.65777085160148,-66.2408533626107zM-65.96571472360714,-59.78041015317478L-63.82418812241715,-66.34020530651969L-69.12433133842949,-65.55865710059037zM-113.14422074598897,-62.43179689876514L-108.13927718300909,-61.28381423931141L-112.35660637086033,-68.50358695614138z" style="fill:rgb(127,37,217)"/><path d="M-16.95140846663514,-148.6503629839436L-18.11516546126156,-87.38029552583012L-14.633428419640929,-90.67870664285223z" style="fill:rgb(28,184,184)"/><path d="M-55.5335507837823,-61.645416882571595L-50.437070089064896,-62.91629215960572L-53.486341802904306,-68.65849437331654zM-122.71311371462156,-65.22358002504266L-120.20097638375717,-64.37621483275812L-118.0112885308843,-63.7518356233972zM-103.02666504012444,-60.332790389868364L-101.65777085160148,-66.2408533626107L-107.03697340836693,-67.24710167579788zM-60.71569070130821,-60.5993690380365L-58.60576227904015,-67.37438264377029L-63.82418812241715,-66.34020530651969zM-45.45558421064306,-64.43115887802706L-44.98789817964857,-64.5733857178552L-40.59423981789284,-66.16327521751262zM-118.0112885308843,-63.7518356233972L-113.14422074598897,-62.43179689876514L-117.5989457990675,-70.00704470063442zM-108.13927718300909,-61.28381423931141L-107.03697340836693,-67.24710167579788L-112.35660637086033,-68.50358695614138zM-50.437070089064896,-62.91629215960572L-45.45558421064306,-64.43115887802706L-48.48312486476198,-70.18917022616608zM-55.5335507837823,-61.645416882571595L-53.486341802904306,-68.65849437331654L-58.60576227904015,-67.37438264377029z" style="fill:rgb(127,37,217)"/><path d="M0.32890941132889817,-174.81522821603943L1.752742361127975,-118.28077205638182L1.6372634064588312,-179.08156655074205z" style="fill:rgb(3,149,149)"/><path d="M-127.2193049933294,-66.8205310969888L-125.80770582189865,-66.26740783283837L-122.71311371462156,-65.22358002504266zM-122.71311371462156,-65.22358002504266L-118.0112885308843,-63.7518356233972L-122.74641908398715,-71.75355132066949zM-40.59423981789284,-66.16327521751262L-39.68144819990512,-66.49357422387473L-35.86972068388183,-68.1072270638391zM-113.14422074598897,-62.43179689876514L-112.35660637086033,-68.50358695614138L-117.5989457990675,-70.00704470063442z" style="fill:rgb(127,37,217)"/><path d="M10.528758589179027,-118.76535827304103L9.834803459645258,-179.557942532927L0.9644503003579787,-176.88767067852845z" style="fill:rgb(83,212,212)"/><path d="M-50.437070089064896,-62.91629215960572L-48.48312486476198,-70.18917022616608L-53.486341802904306,-68.65849437331654zM-45.45558421064306,-64.43115887802706L-40.59423981789284,-66.16327521751262L-43.613165498189176,-71.96237854292649z" style="fill:rgb(127,37,217)"/><path d="M-13.690775836499304,-151.90378680275444L-14.633428419640929,-90.67870664285223L-11.41096940426183,-94.16152935833158z" style="fill:rgb(24,180,180)"/><path d="M-118.0112885308843,-63.7518356233972L-117.5989457990675,-70.00704470063442L-122.74641908398715,-71.75355132066949zM-127.2193049933294,-66.8205310969888L-122.71311371462156,-65.22358002504266L-127.78136804605958,-73.73841587529773zM-45.45558421064306,-64.43115887802706L-43.613165498189176,-71.96237854292649L-48.48312486476198,-70.18917022616608zM-35.86972068388183,-68.1072270638391L-34.53584832080218,-68.67192628445194L-31.298322433225632,-70.25642974545521zM-40.59423981789284,-66.16327521751262L-35.86972068388183,-68.1072270638391L-38.89324615288262,-73.97341338521075zM-141.8327583584029,-73.47046309843645L-131.29435136094048,-68.41732759031025L-127.2193049933294,-66.8205310969888zM-122.71311371462156,-65.22358002504266L-122.74641908398715,-71.75355132066949L-127.78136804605958,-73.73841587529773zM-40.59423981789284,-66.16327521751262L-38.89324615288262,-73.97341338521075L-43.613165498189176,-71.96237854292649zM-141.8327583584029,-73.47046309843645L-136.64226758962977,-70.82045816828564L-131.29435136094048,-68.41732759031025z" style="fill:rgb(127,37,217)"/><path d="M-10.673785306993047,-155.33777711452018L-11.41096940426183,-94.16152935833158L-8.461533673101503,-97.81811032015092z" style="fill:rgb(19,175,175)"/><path d="M-31.298322433225632,-70.25642974545521L-29.568943362980246,-71.10280907944878L-26.8957602928695,-72.60287997439194zM-35.86972068388183,-68.1072270638391L-31.298322433225632,-70.25642974545521L-34.33996462886187,-76.2168365215192zM-141.8327583584029,-73.47046309843645L-127.2193049933294,-66.8205310969888L-132.68645215119395,-75.95629264938651zM-127.2193049933294,-66.8205310969888L-127.78136804605958,-73.73841587529773L-132.68645215119395,-75.95629264938651zM-35.86972068388183,-68.1072270638391L-34.33996462886187,-76.2168365215192L-38.89324615288262,-73.97341338521075zM-26.8957602928695,-72.60287997439194L-24.798362323463845,-73.77985141781197L-22.67708968283918,-75.13728673146542zM-31.298322433225632,-70.25642974545521L-26.8957602928695,-72.60287997439194L-29.969690845512893,-78.68647550721586z" style="fill:rgb(127,37,217)"/><path d="M-7.913246324012179,-158.94162553812924L-8.461533673101503,-97.81811032015092L-5.798365268506636,-101.63702324475607z" style="fill:rgb(15,170,170)"/><path d="M-31.298322433225632,-70.25642974545521L-29.969690845512893,-78.68647550721586L-34.33996462886187,-76.2168365215192zM-141.8327583584029,-73.47046309843645L-134.99925487060045,-77.14469794655666L-143.82734803222968,-74.61988796345908zM-141.8327583584029,-73.47046309843645L-132.68645215119395,-75.95629264938651L-134.99925487060045,-77.14469794655666zM-26.8957602928695,-72.60287997439194L-22.67708968283918,-75.13728673146542L-25.79839832167692,-81.375459430821zM-22.67708968283918,-75.13728673146542L-20.241513169986806,-76.69584282802835L-18.656639549188938,-77.84875348379832zM-26.8957602928695,-72.60287997439194L-25.79839832167692,-81.375459430821L-29.969690845512893,-78.68647550721586z" style="fill:rgb(127,37,217)"/><path d="M-5.421467434592713,-162.7038650457948L-5.798365268506636,-101.63702324475607L-3.4339882309026115,-105.60612312081622z" style="fill:rgb(11,165,165)"/><path d="M-22.67708968283918,-75.13728673146542L-18.656639549188938,-77.84875348379832L-21.84177730871086,-84.27619066070443zM-18.656639549188938,-77.84875348379832L-15.915384476834756,-79.84287607970357L-14.847974342639674,-80.72463764506544zM-22.67708968283918,-75.13728673146542L-21.84177730871086,-84.27619066070443L-25.79839832167692,-81.375459430821zM-18.656639549188938,-77.84875348379832L-14.847974342639674,-80.72463764506544L-18.11516546126156,-87.38029552583012z" style="fill:rgb(127,37,217)"/><path d="M-3.2100521180363657,-166.61233155180204L-3.4339882309026115,-105.60612312081622L-1.380229953874041,-109.71238305954401z" style="fill:rgb(8,160,160)"/><path d="M-14.847974342639674,-80.72463764506544L-11.836655124666466,-83.21212730161994L-11.263535874026642,-83.75024494619599zM-18.656639549188938,-77.84875348379832L-18.11516546126156,-87.38029552583012L-21.84177730871086,-84.27619066070443zM-14.847974342639674,-80.72463764506544L-11.263535874026642,-83.75024494619599L-14.633428419640929,-90.67870664285223zM-11.263535874026642,-83.75024494619599L-8.021577877756497,-86.7941219521528L-7.914642997796428,-86.90857259182847z" style="fill:rgb(127,37,217)"/><path d="M-1.2899217589014602,-170.65399809132364L-1.380229953874041,-109.71238305954401L0.35202116587887705,-113.94209338136086z" style="fill:rgb(6,155,155)"/><path d="M-14.847974342639674,-80.72463764506544L-14.633428419640929,-90.67870664285223L-18.11516546126156,-87.38029552583012zM-11.263535874026642,-83.75024494619599L-7.914642997796428,-86.90857259182847L-11.41096940426183,-94.16152935833158zM-11.263535874026642,-83.75024494619599L-11.41096940426183,-94.16152935833158L-14.633428419640929,-90.67870664285223z" style="fill:rgb(127,37,217)"/><path d="M0.32890941132889817,-174.81522821603943L0.35202116587887705,-113.94209338136086L1.752742361127975,-118.28077205638182z" style="fill:rgb(3,149,149)"/><path d="M-4.827039207799995,-90.2132858379947L-4.485929476486387,-90.57839907112857L-2.001229578337134,-93.62607269172531z" style="fill:rgb(127,37,217)"/><path d="M10.528758589179027,-118.76535827304103L0.9644503003579787,-176.88767067852845L1.0323437379725575,-116.0494091800143z" style="fill:rgb(83,212,212)"/><path d="M-7.914642997796428,-86.90857259182847L-4.827039207799995,-90.2132858379947L-8.461533673101503,-97.81811032015092zM-7.914642997796428,-86.90857259182847L-8.461533673101503,-97.81811032015092L-11.41096940426183,-94.16152935833158zM-2.001229578337134,-93.62607269172531L-1.2449088147379164,-94.55376302294117L0.5606187629817277,-97.11224192013168zM-4.827039207799995,-90.2132858379947L-2.001229578337134,-93.62607269172531L-5.798365268506636,-101.63702324475607zM-4.827039207799995,-90.2132858379947L-5.798365268506636,-101.63702324475607L-8.461533673101503,-97.81811032015092zM-2.001229578337134,-93.62607269172531L0.5606187629817277,-97.11224192013168L-3.4339882309026115,-105.60612312081622zM0.5606187629817277,-97.11224192013168L1.6868267375975816,-98.70806267491167L2.8542842246701423,-100.64161203770239zM-2.001229578337134,-93.62607269172531L-3.4339882309026115,-105.60612312081622L-5.798365268506636,-101.63702324475607zM0.5606187629817277,-97.11224192013168L2.8542842246701423,-100.64161203770239L-1.380229953874041,-109.71238305954401zM2.8542842246701423,-100.64161203770239L4.2954046447962,-103.02840554020628L4.879153084555624,-104.1774009932793zM0.5606187629817277,-97.11224192013168L-1.380229953874041,-109.71238305954401L-3.4339882309026115,-105.60612312081622zM2.8542842246701423,-100.64161203770239L4.879153084555624,-104.1774009932793L0.35202116587887705,-113.94209338136086zM4.879153084555624,-104.1774009932793L6.567618522259835,-107.5009048578338L8.491172656502334,-112.11096620625186zM2.8542842246701423,-100.64161203770239L0.35202116587887705,-113.94209338136086L-1.380229953874041,-109.71238305954401zM4.879153084555624,-104.1774009932793L8.491172656502334,-112.11096620625186L10.054655473237753,-116.84299029287915zM4.879153084555624,-104.1774009932793L1.0323437379725575,-116.0494091800143L0.35202116587887705,-113.94209338136086zM4.879153084555624,-104.1774009932793L10.528758589179027,-118.76535827304103L1.0323437379725575,-116.0494091800143zM4.879153084555624,-104.1774009932793L10.054655473237753,-116.84299029287915L10.528758589179027,-118.76535827304103z" style="fill:rgb(127,37,217)"/></svg>
