<?xml version="1.0" encoding="UTF-8"?>
<!-- Generated by jsxcad -->
<!DOCTYPE svg PUBLIC "-//W3C//DTD SVG 1.1 Tiny//EN" "http://www.w3.org/Graphics/SVG/1.1/DTD/svg11-tiny.dtd">
<svg viewBox="-250 -250 500 500" width="500" height="500" xmlns="http://www.w3.org/2000/svg"><path d="M-31.525725594092954,156.7109524227175L-27.712034536565305,67.84927885140924L-29.427825549700213,77.00072737972407z" style="fill:rgb(1,140,140)"/><path d="M-29.707710511745393,147.7112159130777L-18.994356767077203,65.737129499996L-27.712034536565305,67.84927885140924z" style="fill:rgb(83,212,212)"/><path d="M-29.707702222409797,147.7112159130777L-27.167048972972086,64.94251484495818L-27.712026804082715,67.84927885140924z" style="fill:rgb(1,140,140)"/><path d="M-20.63078010576057,146.11016488294368L-18.994356767077203,65.737129499996L-19.242549857323652,66.22252927926253zM-20.63078010576057,146.11016488294368L-13.758233902734718,55.49662777131447L-19.242549857323652,66.22252927926253z" style="fill:rgb(7,157,157)"/><path d="M38.668033342718026,68.75666749563663L39.375167290929966,70.13965914473033L44.78287185499318,67.52695005103749z" style="fill:rgb(162,50,222)"/><path d="M-29.12974061106022,144.85009594235797L-21.249956710026435,53.167918838364564L-27.167048972972086,64.94251484495818z" style="fill:rgb(7,157,157)"/><path d="M33.706775937369144,72.0943628949041L34.42145832983917,73.47356470983361L39.375167290929966,70.13965914473033z" style="fill:rgb(183,62,221)"/><path d="M44.08333140382602,66.14002936155096L44.78287185499318,67.52695005103749L50.4503936893393,65.72967746712183z" style="fill:rgb(139,40,220)"/><path d="M38.668033342718026,68.75666749563663L44.78287185499318,67.52695005103749L44.08333140382602,66.14002936155096z" style="fill:rgb(162,50,222)"/><path d="M33.706775937369144,72.0943628949041L39.375167290929966,70.13965914473033L38.668033342718026,68.75666749563663z" style="fill:rgb(183,62,221)"/><path d="M44.08333140382602,66.14002936155096L50.4503936893393,65.72967746712183L49.75823564222982,64.33882088071465z" style="fill:rgb(139,40,220)"/><path d="M29.379111270289492,76.0344415611464L34.42145832983917,73.47356470983361L33.706775937369144,72.0943628949041zM29.379111270289492,76.0344415611464L30.101043669552546,77.41011583104405L34.42145832983917,73.47356470983361z" style="fill:rgb(203,77,216)"/><path d="M49.75823564222982,64.33882088071465L50.4503936893393,65.72967746712183L56.17414903028458,64.81503947146781zM49.75823564222982,64.33882088071465L56.17414903028458,64.81503947146781L55.48892640025676,63.4203793373716z" style="fill:rgb(115,34,214)"/><path d="M25.844416233378187,80.43710332941308L30.101043669552546,77.41011583104405L29.379111270289492,76.0344415611464zM25.844416233378187,80.43710332941308L26.573038615604208,81.8096245420281L30.101043669552546,77.41011583104405z" style="fill:rgb(220,94,208)"/><path d="M55.48892640025676,63.4203793373716L56.17414903028458,64.81503947146781L61.746945321819204,64.82088520987942z" style="fill:rgb(92,32,204)"/><path d="M21.927328222874802,96.15392929346767L44.78287185499318,67.52695005103749L39.375167290929966,70.13965914473033zM21.927328222874802,96.15392929346767L39.375167290929966,70.13965914473033L34.42145832983917,73.47356470983361zM21.927328222874802,96.15392929346767L50.4503936893393,65.72967746712183L44.78287185499318,67.52695005103749z" style="fill:rgb(83,212,212)"/><path d="M55.48892640025676,63.4203793373716L61.746945321819204,64.82088520987942L61.06795709156696,63.4226963259056z" style="fill:rgb(92,32,204)"/><path d="M21.927328222874802,96.15392929346767L34.42145832983917,73.47356470983361L30.101043669552546,77.41011583104405zM21.927328222874802,96.15392929346767L56.17414903028458,64.81503947146781L50.4503936893393,65.72967746712183z" style="fill:rgb(83,212,212)"/><path d="M23.23680736374329,85.14512589151377L26.573038615604208,81.8096245420281L25.844416233378187,80.43710332941308zM23.23680736374329,85.14512589151377L23.971322618000126,86.5149687789683L26.573038615604208,81.8096245420281z" style="fill:rgb(233,112,197)"/><path d="M61.06795709156696,63.4226963259056L61.746945321819204,64.82088520987942L66.9640364133231,65.75393754263908z" style="fill:rgb(71,33,192)"/><path d="M21.927328222874802,96.15392929346767L30.101043669552546,77.41011583104405L26.573038615604208,81.8096245420281z" style="fill:rgb(83,212,212)"/><path d="M26.516816806148547,50.81853829119635L34.42145832983917,73.47356470983361L37.20510821252554,71.60013644104114z" style="fill:rgb(183,62,221)"/><path d="M21.927328222874802,96.15392929346767L61.746945321819204,64.82088520987942L56.17414903028458,64.81503947146781z" style="fill:rgb(83,212,212)"/><path d="M61.06795709156696,63.4226963259056L66.9640364133231,65.75393754263908L66.29037793981622,64.35263567565703z" style="fill:rgb(71,33,192)"/><path d="M21.927328222874802,96.15392929346767L26.573038615604208,81.8096245420281L23.971322618000126,86.5149687789683z" style="fill:rgb(83,212,212)"/><path d="M21.660297544887527,89.98815552662907L23.971322618000126,86.5149687789683L23.23680736374329,85.14512589151377z" style="fill:rgb(242,130,183)"/><path d="M21.927328222874802,96.15392929346767L66.9640364133231,65.75393754263908L61.746945321819204,64.82088520987942z" style="fill:rgb(83,212,212)"/><path d="M-14.762517317737064,135.5440076813071L-5.0626466691833985,45.50485921168928L-13.758233902734718,55.49662777131447z" style="fill:rgb(17,173,173)"/><path d="M21.660297544887527,89.98815552662907L22.399676783027125,91.3558822414243L23.971322618000126,86.5149687789683z" style="fill:rgb(242,130,183)"/><path d="M66.29037793981622,64.35263567565703L66.9640364133231,65.75393754263908L71.62959282456961,67.58853085782246z" style="fill:rgb(51,38,177)"/><path d="M17.651095010672304,58.65871846696109L26.573038615604208,81.8096245420281L28.55691364856437,79.33568548818178z" style="fill:rgb(220,94,208)"/><path d="M21.927328222874802,96.15392929346767L23.971322618000126,86.5149687789683L22.399676783027125,91.3558822414243zM21.927328222874802,96.15392929346767L71.62959282456961,67.58853085782246L66.9640364133231,65.75393754263908z" style="fill:rgb(83,212,212)"/><path d="M66.29037793981622,64.35263567565703L71.62959282456961,67.58853085782246L70.96015562525766,66.18466524492199z" style="fill:rgb(51,38,177)"/><path d="M-22.805030554257275,133.247770744327L-11.790692824347937,42.17701064290926L-21.249956710026435,53.167918838364564z" style="fill:rgb(17,173,173)"/><path d="M21.184316622530563,94.78769285210826L22.399676783027125,91.3558822414243L21.660297544887527,89.98815552662907z" style="fill:rgb(246,149,167)"/><path d="M-31.525725594092954,156.7109524227175L-29.707710511745393,147.7112159130777L-27.712034536565305,67.84927885140924z" style="fill:rgb(1,140,140)"/><path d="M14.432960800118703,63.23451339992142L23.971322618000126,86.5149687789683L25.43476110881882,83.86826134065183z" style="fill:rgb(233,112,197)"/><path d="M21.184316622530563,94.78769285210826L21.927328222874802,96.15392929346767L22.399676783027125,91.3558822414243z" style="fill:rgb(246,149,167)"/><path d="M70.96015562525766,66.18466524492199L71.62959282456961,67.58853085782246L75.56345761592601,70.26617022502062z" style="fill:rgb(34,46,160)"/><path d="M21.927328222874802,96.15392929346767L75.56345761592601,70.26617022502062L71.62959282456961,67.58853085782246z" style="fill:rgb(83,212,212)"/><path d="M26.516816806148547,50.81853829119635L23.669250109294612,52.723856543176296L34.42145832983917,73.47356470983361z" style="fill:rgb(183,62,221)"/><path d="M66.29037793981622,64.35263567565703L54.50202371902755,44.27988783267538L63.99762790815552,63.94437066154028z" style="fill:rgb(71,33,192)"/><path d="M70.96015562525766,66.18466524492199L75.56345761592601,70.26617022502062L74.89696684000567,68.8604084577012z" style="fill:rgb(34,46,160)"/><path d="M21.839817650846555,99.36272957388901L21.927328222874802,96.15392929346767L21.184316622530563,94.78769285210826z" style="fill:rgb(246,167,149)"/><path d="M21.927328222874802,96.15392929346767L78.60810578261199,73.69601006664965L75.56345761592601,70.26617022502062zM-29.707710511745393,147.7112159130777L-20.365412548756908,145.6323509475632L-18.994356767077203,65.737129499996z" style="fill:rgb(83,212,212)"/><path d="M21.839817650846555,99.36272957388901L22.585055794867728,100.72818926003575L21.927328222874802,96.15392929346767z" style="fill:rgb(246,167,149)"/><path d="M17.651095010672304,58.65871846696109L15.61027490475068,61.15885679228156L26.573038615604208,81.8096245420281z" style="fill:rgb(220,94,208)"/><path d="M74.89696684000567,68.8604084577012L75.56345761592601,70.26617022502062L78.60810578261199,73.69601006664965z" style="fill:rgb(21,57,142)"/><path d="M22.547293039876294,87.26330975246992L11.273610597365254,70.77456048023134L21.660297544887527,89.98815552662907z" style="fill:rgb(242,130,183)"/><path d="M-29.707702222409797,147.7112159130777L-29.12974061106022,144.85009594235797L-27.167048972972086,64.94251484495818z" style="fill:rgb(1,140,140)"/><path d="M-20.63078010576057,146.11016488294368L-20.365412548756908,145.6323509475632L-18.994356767077203,65.737129499996z" style="fill:rgb(7,157,157)"/><path d="M21.927328222874802,96.15392929346767L22.585055794867728,100.72818926003575L24.36218716306072,104.90157370666846z" style="fill:rgb(83,212,212)"/><path d="M61.555759461282186,46.46281065770779L66.29037793981622,64.35263567565703L70.96015562525766,66.18466524492199z" style="fill:rgb(51,38,177)"/><path d="M24.636844168979167,59.89597219287233L25.84978188202369,27.79867235296181L23.932662596909463,28.426323405883977zM26.563345327343775,57.30525757714545L28.189009313059533,27.032825249951053L25.84978188202369,27.79867235296181zM23.218977758736777,62.61043955527415L23.932662596909463,28.426323405883977L22.509651294837376,28.892205349781147z" style="fill:rgb(72,208,208)"/><path d="M-5.436216003172058,125.68594197026512L6.571805421988696,36.694168685736955L-5.0626466691833985,45.50485921168928z" style="fill:rgb(32,187,187)"/><path d="M28.92533325748814,54.93391745935233L30.862135828151413,26.157665500988184L28.189009313059533,27.032825249951053zM22.365104419542053,65.34778996755101L22.509651294837376,28.892205349781147L21.634017747880847,29.1788830410336z" style="fill:rgb(72,208,208)"/><path d="M74.89696684000567,68.8604084577012L78.60810578261199,73.69601006664965L77.94314214127878,72.28911919891516z" style="fill:rgb(21,57,142)"/><path d="M21.927328222874802,96.15392929346767L80.63553483700491,77.75650890581652L78.60810578261199,73.69601006664965z" style="fill:rgb(83,212,212)"/><path d="M31.63454815503128,52.86923090977836L33.76787067403457,25.20634828801979L30.862135828151413,26.157665500988184z" style="fill:rgb(72,208,208)"/><path d="M11.273610597365254,70.77456048023134L21.184316622530563,94.78769285210826L21.660297544887527,89.98815552662907z" style="fill:rgb(246,149,167)"/><path d="M22.11054549187984,68.00525861920536L21.634017747880847,29.1788830410336L21.338463544799257,29.275643290425357z" style="fill:rgb(72,208,208)"/><path d="M14.432960800118703,63.23451339992142L12.919236552129096,65.90327217368637L23.971322618000126,86.5149687789683z" style="fill:rgb(233,112,197)"/><path d="M34.590625401597755,51.187326958748486L36.79551304125864,24.215119680281884L33.76787067403457,25.20634828801979z" style="fill:rgb(72,208,208)"/><path d="M23.616247603064366,103.53616599620668L22.585055794867728,100.72818926003575L21.839817650846555,99.36272957388901z" style="fill:rgb(242,183,130)"/><path d="M37.68439720593586,49.9507761880095L40.035331005762956,23.645227329489224L36.79551304125864,24.215119680281884z" style="fill:rgb(95,214,214)"/><path d="M21.927328222874802,96.15392929346767L24.36218716306072,104.90157370666846L27.20482607064496,108.50776674572028z" style="fill:rgb(83,212,212)"/><path d="M41.012327637532124,49.62898860755534L43.15406673369005,23.096629329198443L40.035331005762956,23.645227329489224z" style="fill:rgb(95,214,214)"/><path d="M23.616247603064366,103.53616599620668L24.36218716306072,104.90157370666846L22.585055794867728,100.72818926003575z" style="fill:rgb(242,183,130)"/><path d="M77.94314214127878,72.28911919891516L78.60810578261199,73.69601006664965L80.63553483700491,77.75650890581652z" style="fill:rgb(12,71,124)"/><path d="M66.29037793981622,64.35263567565703L56.82743883795152,44.668375754093496L54.50202371902755,44.27988783267538z" style="fill:rgb(71,33,192)"/><path d="M21.927328222874802,96.15392929346767L81.55377306658443,82.29853056812954L80.63553483700491,77.75650890581652z" style="fill:rgb(83,212,212)"/><path d="M65.5330646304145,49.11016821479726L70.96015562525766,66.18466524492199L74.89696684000567,68.8604084577012z" style="fill:rgb(34,46,160)"/><path d="M44.23745718997216,49.8138926124059L46.031290553983816,22.590517481012657L43.15406673369005,23.096629329198443z" style="fill:rgb(95,214,214)"/><path d="M-12.663842407733517,122.39939153180546L0.9226475542526185,32.46745387409579L-11.790692824347937,42.17701064290926z" style="fill:rgb(32,187,187)"/><path d="M47.23907538239404,50.50042899102934L48.55554701599946,22.146492098686654L46.031290553983816,22.590517481012657z" style="fill:rgb(95,214,214)"/><path d="M22.547293039876294,87.26330975246992L12.199521910218422,68.03372999256429L11.273610597365254,70.77456048023134z" style="fill:rgb(242,130,183)"/><path d="M10.745726120861843,75.59323488268534L21.839817650846555,99.36272957388901L21.184316622530563,94.78769285210826z" style="fill:rgb(246,167,149)"/><path d="M61.555759461282186,46.46281065770779L56.82743883795152,44.668375754093496L66.29037793981622,64.35263567565703z" style="fill:rgb(51,38,177)"/><path d="M77.94314214127878,72.28911919891516L80.63553483700491,77.75650890581652L79.970589301199,76.34932196396689z" style="fill:rgb(12,71,124)"/><path d="M21.927328222874802,96.15392929346767L27.20482607064496,108.50776674572028L31.015713728619357,111.39840535462072z" style="fill:rgb(83,212,212)"/><path d="M49.90356588067871,51.66524461131783L50.62879689929801,21.781799530818226L48.55554701599946,22.146492098686654z" style="fill:rgb(95,214,214)"/><path d="M21.927328222874802,96.15392929346767L81.31250337686238,87.14991049902812L81.55377306658443,82.29853056812954z" style="fill:rgb(83,212,212)"/><path d="M-20.63078010576057,146.11016488294368L-14.762517317737064,135.5440076813071L-13.758233902734718,55.49662777131447z" style="fill:rgb(7,157,157)"/><path d="M52.12853017943444,53.26712979782371L52.17032282789644,21.51064066184227L50.62879689929801,21.781799530818226zM53.826683988787806,55.24810694770134L53.11999979052556,21.34358997224639L52.17032282789644,21.51064066184227z" style="fill:rgb(95,214,214)"/><path d="M68.59979937975442,52.52113441283557L74.89696684000567,68.8604084577012L77.94314214127878,72.28911919891516z" style="fill:rgb(21,57,142)"/><path d="M21.927328222874802,96.15392929346767L31.015713728619357,111.39840535462072L35.65604227618551,113.45023369207863z" style="fill:rgb(83,212,212)"/><path d="M54.92947114424067,57.535070841516024L53.440734732709316,21.287170986241062L53.11999979052556,21.34358997224639z" style="fill:rgb(95,214,214)"/><path d="M-29.12974061106022,144.85009594235797L-22.805030554257275,133.247770744327L-21.249956710026435,53.167918838364564z" style="fill:rgb(7,157,157)"/><path d="M7.061343728085203,116.98104151064541L20.715973330144525,29.47944207347932L6.571805421988696,36.694168685736955z" style="fill:rgb(50,199,199)"/><path d="M28.92533325748814,54.93391745935233L31.63454815503128,52.86923090977836L30.862135828151413,26.157665500988184zM26.563345327343775,57.30525757714545L28.92533325748814,54.93391745935233L28.189009313059533,27.032825249951053z" style="fill:rgb(72,208,208)"/><path d="M11.273610597365254,70.77456048023134L10.745726120861843,75.59323488268534L21.184316622530563,94.78769285210826z" style="fill:rgb(246,149,167)"/><path d="M65.5330646304145,49.11016821479726L61.555759461282186,46.46281065770779L70.96015562525766,66.18466524492199z" style="fill:rgb(34,46,160)"/><path d="M21.927328222874802,96.15392929346767L79.90733918943099,92.12161514531468L81.31250337686238,87.14991049902812z" style="fill:rgb(83,212,212)"/><path d="M31.63454815503128,52.86923090977836L34.590625401597755,51.187326958748486L33.76787067403457,25.20634828801979zM24.636844168979167,59.89597219287233L26.563345327343775,57.30525757714545L25.84978188202369,27.79867235296181z" style="fill:rgb(72,208,208)"/><path d="M11.368948656263639,80.17754219653654L23.616247603064366,103.53616599620668L21.839817650846555,99.36272957388901z" style="fill:rgb(242,183,130)"/><path d="M34.590625401597755,51.187326958748486L37.68439720593586,49.9507761880095L36.79551304125864,24.215119680281884zM23.218977758736777,62.61043955527415L24.636844168979167,59.89597219287233L23.932662596909463,28.426323405883977z" style="fill:rgb(72,208,208)"/><path d="M-29.707710511745393,147.7112159130777L-31.525725594092954,156.7109524227175L-30.596737565543826,164.05446153142495z" style="fill:rgb(127,37,217)"/><path d="M21.927328222874802,96.15392929346767L35.65604227618551,113.45023369207863L40.94952846358826,114.57169543796493z" style="fill:rgb(83,212,212)"/><path d="M37.68439720593586,49.9507761880095L41.012327637532124,49.62898860755534L40.035331005762956,23.645227329489224z" style="fill:rgb(95,214,214)"/><path d="M22.365104419542053,65.34778996755101L23.218977758736777,62.61043955527415L22.509651294837376,28.892205349781147z" style="fill:rgb(72,208,208)"/><path d="M21.927328222874802,96.15392929346767L77.3821452170973,97.01531997304727L79.90733918943099,92.12161514531468z" style="fill:rgb(83,212,212)"/><path d="M41.012327637532124,49.62898860755534L44.23745718997216,49.8138926124059L43.15406673369005,23.096629329198443z" style="fill:rgb(95,214,214)"/><path d="M128.43671399683217,112.52065309044362L128.86143794333987,29.914127744524883L119.49267886341006,32.18402128559962z" style="fill:rgb(83,212,212)"/><path d="M22.11054549187984,68.00525861920536L22.365104419542053,65.34778996755101L21.634017747880847,29.1788830410336z" style="fill:rgb(72,208,208)"/><path d="M70.6265978924291,56.57526602363262L77.94314214127878,72.28911919891516L79.970589301199,76.34932196396689z" style="fill:rgb(12,71,124)"/><path d="M21.927328222874802,96.15392929346767L40.94952846358826,114.57169543796493L46.688734874688656,114.7084469940133z" style="fill:rgb(83,212,212)"/><path d="M44.23745718997216,49.8138926124059L47.23907538239404,50.50042899102934L46.031290553983816,22.590517481012657z" style="fill:rgb(95,214,214)"/><path d="M21.927328222874802,96.15392929346767L73.82903007894964,101.63210822725753L77.3821452170973,97.01531997304727z" style="fill:rgb(83,212,212)"/><path d="M10.745726120861843,75.59323488268534L11.368948656263639,80.17754219653654L21.839817650846555,99.36272957388901z" style="fill:rgb(246,167,149)"/><path d="M0.9916869401365925,112.80104412020687L16.424301284231102,24.504198868001822L0.9226475542526185,32.46745387409579z" style="fill:rgb(50,199,199)"/><path d="M68.59979937975442,52.52113441283557L65.5330646304145,49.11016821479726L74.89696684000567,68.8604084577012z" style="fill:rgb(21,57,142)"/><path d="M34.200484938533094,57.89844711548751L37.24369635287688,56.426881932727746L34.590625401597755,51.187326958748486z" style="fill:rgb(162,50,222)"/><path d="M31.41100296390687,59.76967122574188L34.200484938533094,57.89844711548751L31.63454815503128,52.86923090977836z" style="fill:rgb(183,62,221)"/><path d="M22.271031911505677,109.84446711086639L21.338463544799257,29.275643290425357L20.715973330144525,29.47944207347932z" style="fill:rgb(72,208,208)"/><path d="M47.23907538239404,50.50042899102934L49.90356588067871,51.66524461131783L48.55554701599946,22.146492098686654z" style="fill:rgb(95,214,214)"/><path d="M21.927328222874802,96.15392929346767L46.688734874688656,114.7084469940133L52.64360652824096,113.84723423190754z" style="fill:rgb(83,212,212)"/><path d="M37.24369635287688,56.426881932727746L40.4280048985689,55.4095719159481L37.68439720593586,49.9507761880095z" style="fill:rgb(139,40,220)"/><path d="M28.978941416394417,61.97165632152652L31.41100296390687,59.76967122574188L28.92533325748814,54.93391745935233z" style="fill:rgb(203,77,216)"/><path d="M21.927328222874802,96.15392929346767L69.38565991623383,105.7817508308878L73.82903007894964,101.63210822725753z" style="fill:rgb(83,212,212)"/><path d="M-29.707710511745393,147.7112159130777L-30.596737565543826,164.05446153142495L-20.365412548756908,145.6323509475632z" style="fill:rgb(127,37,217)"/><path d="M135.1502882758735,108.18248051267044L128.86143794333987,29.914127744524883L125.69786112121726,27.800359943228397z" style="fill:rgb(212,194,194)"/><path d="M40.4280048985689,55.4095719159481L43.635523116873365,54.885001985681846L41.012327637532124,49.62898860755534z" style="fill:rgb(115,34,214)"/><path d="M21.927328222874802,96.15392929346767L52.64360652824096,113.84723423190754L58.571740737470996,112.01776188219658z" style="fill:rgb(83,212,212)"/><path d="M113.6326914865788,106.69171483352625L119.49267886341006,32.18402128559962L105.67340314955501,26.294621384972015z" style="fill:rgb(192,205,205)"/><path d="M26.99557928355418,64.42340782799342L28.978941416394417,61.97165632152652L26.563345327343775,57.30525757714545z" style="fill:rgb(220,94,208)"/><path d="M21.927328222874802,96.15392929346767L64.22987279899029,109.29211856347239L69.38565991623383,105.7817508308878z" style="fill:rgb(83,212,212)"/><path d="M34.200484938533094,57.89844711548751L34.590625401597755,51.187326958748486L31.63454815503128,52.86923090977836z" style="fill:rgb(162,50,222)"/><path d="M49.90356588067871,51.66524461131783L52.12853017943444,53.26712979782371L50.62879689929801,21.781799530818226z" style="fill:rgb(95,214,214)"/><path d="M21.927328222874802,96.15392929346767L58.571740737470996,112.01776188219658L64.22987279899029,109.29211856347239z" style="fill:rgb(83,212,212)"/><path d="M31.41100296390687,59.76967122574188L31.63454815503128,52.86923090977836L28.92533325748814,54.93391745935233z" style="fill:rgb(183,62,221)"/><path d="M37.24369635287688,56.426881932727746L37.68439720593586,49.9507761880095L34.590625401597755,51.187326958748486z" style="fill:rgb(139,40,220)"/><path d="M28.978941416394417,61.97165632152652L28.92533325748814,54.93391745935233L26.563345327343775,57.30525757714545z" style="fill:rgb(203,77,216)"/><path d="M43.635523116873365,54.885001985681846L46.74697376341266,54.874167073163285L44.23745718997216,49.8138926124059z" style="fill:rgb(92,32,204)"/><path d="M40.4280048985689,55.4095719159481L41.012327637532124,49.62898860755534L37.68439720593586,49.9507761880095z" style="fill:rgb(115,34,214)"/><path d="M25.536608048873187,67.03441337930187L26.99557928355418,64.42340782799342L24.636844168979167,59.89597219287233z" style="fill:rgb(233,112,197)"/><path d="M52.12853017943444,53.26712979782371L53.826683988787806,55.24810694770134L52.17032282789644,21.51064066184227z" style="fill:rgb(95,214,214)"/><path d="M26.99557928355418,64.42340782799342L26.563345327343775,57.30525757714545L24.636844168979167,59.89597219287233z" style="fill:rgb(220,94,208)"/><path d="M-14.762517317737064,135.5440076813071L-5.436216003172058,125.68594197026512L-5.0626466691833985,45.50485921168928z" style="fill:rgb(17,173,173)"/><path d="M43.635523116873365,54.885001985681846L44.23745718997216,49.8138926124059L41.012327637532124,49.62898860755534z" style="fill:rgb(92,32,204)"/><path d="M11.368948656263639,80.17754219653654L13.134513458465385,84.34986021680002L23.616247603064366,103.53616599620668z" style="fill:rgb(242,183,130)"/><path d="M70.6265978924291,56.57526602363262L68.59979937975442,52.52113441283557L77.94314214127878,72.28911919891516z" style="fill:rgb(12,71,124)"/><path d="M46.74697376341266,54.874167073163285L49.645694939837384,55.37963386368042L47.23907538239404,50.50042899102934z" style="fill:rgb(71,33,192)"/><path d="M24.659316063343447,69.70756111132346L25.536608048873187,67.03441337930187L23.218977758736777,62.61043955527415z" style="fill:rgb(242,130,183)"/><path d="M25.536608048873187,67.03441337930187L24.636844168979167,59.89597219287233L23.218977758736777,62.61043955527415z" style="fill:rgb(233,112,197)"/><path d="M53.826683988787806,55.24810694770134L54.92947114424067,57.535070841516024L53.11999979052556,21.34358997224639z" style="fill:rgb(95,214,214)"/><path d="M46.74697376341266,54.874167073163285L47.23907538239404,50.50042899102934L44.23745718997216,49.8138926124059z" style="fill:rgb(71,33,192)"/><path d="M49.645694939837384,55.37963386368042L52.22164706859686,56.385148950324805L49.90356588067871,51.66524461131783z" style="fill:rgb(51,38,177)"/><path d="M96.11142404710765,102.67163713506605L105.67340314955501,26.294621384972015L89.35248151768347,22.235833565682654z" style="fill:rgb(169,212,212)"/><path d="M118.1355363532928,101.43260845752762L125.69786112121726,27.800359943228397L109.81757777003021,20.985368729340895z" style="fill:rgb(192,205,205)"/><path d="M54.92947114424067,57.535070841516024L55.390177642279106,60.042174077658956L53.440734732709316,21.287170986241062z" style="fill:rgb(95,214,214)"/><path d="M24.40021299677168,72.34240250288426L24.659316063343447,69.70756111132346L22.365104419542053,65.34778996755101z" style="fill:rgb(246,149,167)"/><path d="M24.659316063343447,69.70756111132346L23.218977758736777,62.61043955527415L22.365104419542053,65.34778996755101z" style="fill:rgb(242,130,183)"/><path d="M-22.805030554257275,133.247770744327L-12.663842407733517,122.39939153180546L-11.790692824347937,42.17701064290926z" style="fill:rgb(17,173,173)"/><path d="M17.66372089386637,104.91866604096612L34.08232449490333,18.686596060396354L16.424301284231102,24.504198868001822z" style="fill:rgb(72,208,208)"/><path d="M49.645694939837384,55.37963386368042L49.90356588067871,51.66524461131783L47.23907538239404,50.50042899102934z" style="fill:rgb(51,38,177)"/><path d="M52.22164706859686,56.385148950324805L54.375472229157005,57.855780951404554L52.12853017943444,53.26712979782371z" style="fill:rgb(34,46,160)"/><path d="M57.487231211902824,101.73167719086557L54.116577859759474,21.168287211642117L53.440734732709316,21.287170986241062z" style="fill:rgb(95,214,214)"/><path d="M77.35367237288918,100.94846578601496L89.35248151768347,22.235833565682654L71.9045697724563,20.49681992485635z" style="fill:rgb(145,216,216)"/><path d="M58.21476228889782,101.61387263747604L71.9045697724563,20.49681992485635L54.116577859759474,21.168287211642117z" style="fill:rgb(120,217,217)"/><path d="M24.40021299677168,72.34240250288426L22.365104419542053,65.34778996755101L22.11054549187984,68.00525861920536z" style="fill:rgb(246,149,167)"/><path d="M24.773221340994983,74.83863390231053L24.40021299677168,72.34240250288426L22.11054549187984,68.00525861920536z" style="fill:rgb(246,167,149)"/><path d="M52.22164706859686,56.385148950324805L52.12853017943444,53.26712979782371L49.90356588067871,51.66524461131783z" style="fill:rgb(34,46,160)"/><path d="M54.375472229157005,57.855780951404554L56.02230368093543,59.738722181985345L53.826683988787806,55.24810694770134z" style="fill:rgb(21,57,142)"/><path d="M24.773221340994983,74.83863390231053L22.11054549187984,68.00525861920536L22.46887797810561,70.48175917350144z" style="fill:rgb(246,167,149)"/><path d="M25.768558691435988,77.0998207322415L24.773221340994983,74.83863390231053L22.46887797810561,70.48175917350144z" style="fill:rgb(242,183,130)"/><path d="M54.375472229157005,57.855780951404554L53.826683988787806,55.24810694770134L52.12853017943444,53.26712979782371z" style="fill:rgb(21,57,142)"/><path d="M98.87687306644071,96.98413236146605L109.81757777003021,20.985368729340895L91.88430849362454,16.497732434178754z" style="fill:rgb(169,212,212)"/><path d="M36.67009249124356,99.15426041008944L53.12694522285465,15.316798182193232L34.08232449490333,18.686596060396354z" style="fill:rgb(95,214,214)"/><path d="M-5.436216003172058,125.68594197026512L7.061343728085203,116.98104151064541L6.571805421988696,36.694168685736955z" style="fill:rgb(32,187,187)"/><path d="M25.768558691435988,77.0998207322415L22.46887797810561,70.48175917350144L23.430843382785675,72.68159089034198z" style="fill:rgb(242,183,130)"/><path d="M-18.77778341517687,128.93967932300538L-29.707702222409797,147.7112159130777L-20.365412548756908,145.6323509475632zM-18.77778341517687,128.93967932300538L-29.12974061106022,144.85009594235797L-29.707702222409797,147.7112159130777z" style="fill:rgb(127,37,217)"/><path d="M78.23807542990467,95.07615421058823L91.88430849362454,16.497732434178754L72.6947007043193,14.573883318646912z" style="fill:rgb(145,216,216)"/><path d="M57.17501588637278,95.81300264803217L72.6947007043193,14.573883318646912L53.12694522285465,15.316798182193232z" style="fill:rgb(120,217,217)"/><path d="M-12.663842407733517,122.39939153180546L0.9916869401365925,112.80104412020687L0.9226475542526185,32.46745387409579z" style="fill:rgb(32,187,187)"/><path d="M-18.77778341517687,128.93967932300538L-20.365412548756908,145.6323509475632L-14.762517317737064,135.5440076813071zM-18.77778341517687,128.93967932300538L-22.805030554257275,133.247770744327L-29.12974061106022,144.85009594235797z" style="fill:rgb(127,37,217)"/><path d="M7.061343728085203,116.98104151064541L22.271031911505677,109.84446711086639L20.715973330144525,29.47944207347932z" style="fill:rgb(50,199,199)"/><path d="M128.43671399683217,112.52065309044362L138.53004345377025,110.27466626074032L128.86143794333987,29.914127744524883z" style="fill:rgb(83,212,212)"/><path d="M113.6326914865788,106.69171483352625L128.43671399683217,112.52065309044362L119.49267886341006,32.18402128559962z" style="fill:rgb(192,205,205)"/><path d="M22.271031911505677,109.84446711086639L22.94059672491102,109.64277388035325L21.338463544799257,29.275643290425357zM22.94059672491102,109.64277388035325L22.46887797810561,70.48175917350144L22.11054549187984,68.00525861920536z" style="fill:rgb(72,208,208)"/><path d="M135.1502882758735,108.18248051267044L138.53004345377025,110.27466626074032L128.86143794333987,29.914127744524883z" style="fill:rgb(212,194,194)"/><path d="M23.258508576103868,109.54700401299279L23.430843382785675,72.68159089034198L22.46887797810561,70.48175917350144z" style="fill:rgb(72,208,208)"/><path d="M0.9916869401365925,112.80104412020687L17.66372089386637,104.91866604096612L16.424301284231102,24.504198868001822z" style="fill:rgb(50,199,199)"/><path d="M113.6326914865788,106.69171483352625L-14.762517317737064,135.5440076813071L-20.365412548756908,145.6323509475632z" style="fill:rgb(127,37,217)"/><path d="M24.200407733212643,109.26326127451644L24.9640387027129,74.51819104952237L23.430843382785675,72.68159089034198z" style="fill:rgb(72,208,208)"/><path d="M-8.93078044191449,119.77546091409255L-18.77778341517687,128.93967932300538L-14.762517317737064,135.5440076813071z" style="fill:rgb(127,37,217)"/><path d="M118.1355363532928,101.43260845752762L135.1502882758735,108.18248051267044L125.69786112121726,27.800359943228397z" style="fill:rgb(192,205,205)"/><path d="M96.11142404710765,102.67163713506605L113.6326914865788,106.69171483352625L105.67340314955501,26.294621384972015z" style="fill:rgb(169,212,212)"/><path d="M-8.93078044191449,119.77546091409255L-14.762517317737064,135.5440076813071L-5.436216003172058,125.68594197026512z" style="fill:rgb(127,37,217)"/><path d="M25.731194107665942,108.80212024686624L27.013454920552036,75.91775738334601L24.9640387027129,74.51819104952237zM27.793678407779332,108.180815805314L29.502985080135606,76.82253773228102L27.013454920552036,75.91775738334601z" style="fill:rgb(72,208,208)"/><path d="M77.35367237288918,100.94846578601496L96.11142404710765,102.67163713506605L89.35248151768347,22.235833565682654z" style="fill:rgb(145,216,216)"/><path d="M57.14197102097978,101.7875796186578L55.390177642279106,60.042174077658956L55.186391659895584,62.67377276578612zM57.487231211902824,101.73167719086557L58.21476228889782,101.61387263747604L54.116577859759474,21.168287211642117z" style="fill:rgb(95,214,214)"/><path d="M-8.93078044191449,119.77546091409255L-12.663842407733517,122.39939153180546L-18.77778341517687,128.93967932300538z" style="fill:rgb(127,37,217)"/><path d="M30.310536846079344,107.42261825581951L32.33793281459049,77.19367887248944L29.502985080135606,76.82253773228102z" style="fill:rgb(72,208,208)"/><path d="M58.21476228889782,101.61387263747604L77.35367237288918,100.94846578601496L71.9045697724563,20.49681992485635z" style="fill:rgb(120,217,217)"/><path d="M17.66372089386637,104.91866604096612L36.67009249124356,99.15426041008944L34.08232449490333,18.686596060396354z" style="fill:rgb(72,208,208)"/><path d="M56.119693816669354,101.95310981136997L55.186391659895584,62.67377276578612L54.32156252647665,65.32800359778047z" style="fill:rgb(95,214,214)"/><path d="M113.6326914865788,106.69171483352625L-5.436216003172058,125.68594197026512L-14.762517317737064,135.5440076813071z" style="fill:rgb(127,37,217)"/><path d="M98.87687306644071,96.98413236146605L118.1355363532928,101.43260845752762L109.81757777003021,20.985368729340895z" style="fill:rgb(169,212,212)"/><path d="M33.18699964088228,106.55610456588872L35.40847280336192,77.01334191715375L32.33793281459049,77.19367887248944z" style="fill:rgb(72,208,208)"/><path d="M113.6326914865788,106.69171483352625L-20.365412548756908,145.6323509475632L128.43671399683217,112.52065309044362z" style="fill:rgb(127,37,217)"/><path d="M54.46037583086404,102.22178112876975L54.32156252647665,65.32800359778047L52.825571354839205,67.90077834491078z" style="fill:rgb(95,214,214)"/><path d="M36.31418837436234,105.61406111521109L38.59398814745167,76.28594843467432L35.40847280336192,77.01334191715375z" style="fill:rgb(72,208,208)"/><path d="M52.22880908542676,102.58311751735938L52.825571354839205,67.90077834491078L50.754098211962955,70.29009350010865z" style="fill:rgb(95,214,214)"/><path d="M22.94059672491102,109.64277388035325L23.258508576103868,109.54700401299279L22.46887797810561,70.48175917350144z" style="fill:rgb(72,208,208)"/><path d="M49.51195954338504,103.023037956034L50.754098211962955,70.29009350010865L48.18678516053075,72.40043903983386zM39.573044995733,104.632347819026L41.98356924283576,75.45969983540246L38.59398814745167,76.28594843467432zM46.41543028802315,103.5244273018669L48.18678516053075,72.40043903983386L45.22417148902784,74.14704559553626zM43.05924365476633,104.06786839124742L45.22417148902784,74.14704559553626L41.98356924283576,75.45969983540246zM36.67009249124356,99.15426041008944L57.17501588637278,95.81300264803217L53.12694522285465,15.316798182193232z" style="fill:rgb(95,214,214)"/><path d="M23.258508576103868,109.54700401299279L24.200407733212643,109.26326127451644L23.430843382785675,72.68159089034198z" style="fill:rgb(72,208,208)"/><path d="M3.886588026778155,111.43235753132849L-8.93078044191449,119.77546091409255L-5.436216003172058,125.68594197026512z" style="fill:rgb(127,37,217)"/><path d="M78.23807542990467,95.07615421058823L98.87687306644071,96.98413236146605L91.88430849362454,16.497732434178754z" style="fill:rgb(145,216,216)"/><path d="M24.200407733212643,109.26326127451644L25.731194107665942,108.80212024686624L24.9640387027129,74.51819104952237z" style="fill:rgb(72,208,208)"/><path d="M3.886588026778155,111.43235753132849L-5.436216003172058,125.68594197026512L7.061343728085203,116.98104151064541z" style="fill:rgb(127,37,217)"/><path d="M57.17501588637278,95.81300264803217L78.23807542990467,95.07615421058823L72.6947007043193,14.573883318646912z" style="fill:rgb(120,217,217)"/><path d="M25.731194107665942,108.80212024686624L27.793678407779332,108.180815805314L27.013454920552036,75.91775738334601z" style="fill:rgb(72,208,208)"/><path d="M113.6326914865788,106.69171483352625L7.061343728085203,116.98104151064541L-5.436216003172058,125.68594197026512z" style="fill:rgb(127,37,217)"/><path d="M27.793678407779332,108.180815805314L30.310536846079344,107.42261825581951L29.502985080135606,76.82253773228102zM30.310536846079344,107.42261825581951L33.18699964088228,106.55610456588872L32.33793281459049,77.19367887248944z" style="fill:rgb(72,208,208)"/><path d="M3.886588026778155,111.43235753132849L0.9916869401365925,112.80104412020687L-8.93078044191449,119.77546091409255z" style="fill:rgb(127,37,217)"/><path d="M33.18699964088228,106.55610456588872L36.31418837436234,105.61406111521109L35.40847280336192,77.01334191715375z" style="fill:rgb(72,208,208)"/><path d="M57.14197102097978,101.7875796186578L57.487231211902824,101.73167719086557L55.390177642279106,60.042174077658956z" style="fill:rgb(95,214,214)"/><path d="M36.31418837436234,105.61406111521109L39.573044995733,104.632347819026L38.59398814745167,76.28594843467432z" style="fill:rgb(72,208,208)"/><path d="M56.119693816669354,101.95310981136997L57.14197102097978,101.7875796186578L55.186391659895584,62.67377276578612zM54.46037583086404,102.22178112876975L56.119693816669354,101.95310981136997L54.32156252647665,65.32800359778047zM39.573044995733,104.632347819026L43.05924365476633,104.06786839124742L41.98356924283576,75.45969983540246zM52.22880908542676,102.58311751735938L54.46037583086404,102.22178112876975L52.825571354839205,67.90077834491078zM43.05924365476633,104.06786839124742L46.41543028802315,103.5244273018669L45.22417148902784,74.14704559553626zM49.51195954338504,103.023037956034L52.22880908542676,102.58311751735938L50.754098211962955,70.29009350010865zM46.41543028802315,103.5244273018669L49.51195954338504,103.023037956034L48.18678516053075,72.40043903983386z" style="fill:rgb(95,214,214)"/><path d="M113.6326914865788,106.69171483352625L22.271031911505677,109.84446711086639L7.061343728085203,116.98104151064541zM19.283723546673293,104.4273370513735L3.886588026778155,111.43235753132849L7.061343728085203,116.98104151064541zM19.283723546673293,104.4273370513735L7.061343728085203,116.98104151064541L22.271031911505677,109.84446711086639zM135.1502882758735,108.18248051267044L128.43671399683217,112.52065309044362L138.53004345377025,110.27466626074032zM135.1502882758735,108.18248051267044L113.6326914865788,106.69171483352625L128.43671399683217,112.52065309044362z" style="fill:rgb(127,37,217)"/><path d="M-34.43006879317606,-76.61702233860701L26.10486250860291,49.446825230315156L28.829719302544586,47.37178123683367z" style="fill:rgb(183,62,221)"/><path d="M-30.977265337537897,-78.30281940922349L28.829719302544586,47.37178123683367L31.801421555005817,45.67892104665911z" style="fill:rgb(162,50,222)"/><path d="M-37.63162276579286,-74.54943392381973L23.727770625152342,51.82755848438544L26.10486250860291,49.446825230315156z" style="fill:rgb(203,77,216)"/><path d="M-27.400344351990746,-79.54460882864701L31.801421555005817,45.67892104665911L34.91024812315117,44.43120852463474z" style="fill:rgb(139,40,220)"/><path d="M113.6326914865788,106.69171483352625L39.573044995733,104.632347819026L22.271031911505677,109.84446711086639zM19.283723546673293,104.4273370513735L17.66372089386637,104.91866604096612L3.886588026778155,111.43235753132849z" style="fill:rgb(127,37,217)"/><path d="M-40.463522670024275,-72.17580472324266L21.78725854614077,54.42637327572899L23.727770625152342,51.82755848438544z" style="fill:rgb(220,94,208)"/><path d="M-23.831104256173003,-80.2957225462433L34.91024812315117,44.43120852463474L38.25448235704487,44.103188192928954z" style="fill:rgb(115,34,214)"/><path d="M-20.401771964779126,-80.52667293102074L38.25448235704487,44.103188192928954L41.49420808533664,44.28231987707878z" style="fill:rgb(92,32,204)"/><path d="M-42.81996509440009,-69.58305186191546L20.356985898878268,57.14736418728212L21.78725854614077,54.42637327572899z" style="fill:rgb(233,112,197)"/><path d="M135.1502882758735,108.18248051267044L110.45457664389099,99.6584226618928L113.6326914865788,106.69171483352625zM36.67009249124356,99.15426041008944L22.271031911505677,109.84446711086639L39.573044995733,104.632347819026zM36.67009249124356,99.15426041008944L19.283723546673293,104.4273370513735L22.271031911505677,109.84446711086639zM113.6326914865788,106.69171483352625L58.21476228889782,101.61387263747604L39.573044995733,104.632347819026z" style="fill:rgb(127,37,217)"/><path d="M-17.24066298172193,-80.22636206102342L41.49420808533664,44.28231987707878L44.5081710385062,44.96377559652028z" style="fill:rgb(71,33,192)"/><path d="M-44.61135497624793,-66.86654839983335L19.49278833570727,59.889429594883L20.356985898878268,57.14736418728212z" style="fill:rgb(242,130,183)"/><path d="M113.6326914865788,106.69171483352625L96.11142404710765,102.67163713506605L77.35367237288918,100.94846578601496zM135.1502882758735,108.18248051267044L118.1355363532928,101.43260845752762L110.45457664389099,99.6584226618928zM113.6326914865788,106.69171483352625L77.35367237288918,100.94846578601496L58.21476228889782,101.61387263747604zM110.45457664389099,99.6584226618928L96.11142404710765,102.67163713506605L113.6326914865788,106.69171483352625z" style="fill:rgb(127,37,217)"/><path d="M-14.46777609580882,-79.40283893649098L44.5081710385062,44.96377559652028L47.18230208111214,46.12441019890604z" style="fill:rgb(51,38,177)"/><path d="M-45.767587584083294,-64.12710295104172L19.2304040174488,62.5496306885241L19.49278833570727,59.889429594883z" style="fill:rgb(246,149,167)"/><path d="M55.41175415243468,96.10032625443993L39.573044995733,104.632347819026L58.21476228889782,101.61387263747604zM93.200381878924,96.45936124522046L77.35367237288918,100.94846578601496L96.11142404710765,102.67163713506605zM55.41175415243468,96.10032625443993L36.67009249124356,99.15426041008944L39.573044995733,104.632347819026z" style="fill:rgb(127,37,217)"/><path d="M-12.190422105626265,-78.08349582394983L47.18230208111214,46.12441019890604L49.41381535763153,47.72320220929977z" style="fill:rgb(34,46,160)"/><path d="M110.45457664389099,99.6584226618928L93.200381878924,96.45936124522046L96.11142404710765,102.67163713506605z" style="fill:rgb(127,37,217)"/><path d="M-46.24091613343726,-61.46761198282511L19.58374250600988,65.02677049970622L19.2304040174488,62.5496306885241z" style="fill:rgb(246,167,149)"/><path d="M74.55274317075273,95.20507723766922L58.21476228889782,101.61387263747604L77.35367237288918,100.94846578601496zM110.45457664389099,99.6584226618928L98.87687306644071,96.98413236146605L93.200381878924,96.45936124522046zM74.55274317075273,95.20507723766922L55.41175415243468,96.10032625443993L58.21476228889782,101.61387263747604z" style="fill:rgb(127,37,217)"/><path d="M-10.499010563869998,-76.3146368904242L49.41381535763153,47.72320220929977L51.115150802489225,49.702315819701965z" style="fill:rgb(21,57,142)"/><path d="M93.200381878924,96.45936124522046L74.55274317075273,95.20507723766922L77.35367237288918,100.94846578601496z" style="fill:rgb(127,37,217)"/><path d="M-46.00826207269602,-58.98948299625038L20.543782909782905,67.22510580810066L19.58374250600988,65.02677049970622z" style="fill:rgb(242,183,130)"/><path d="M74.55274317075273,95.20507723766922L57.17501588637278,95.81300264803217L55.41175415243468,96.10032625443993zM93.200381878924,96.45936124522046L78.23807542990467,95.07615421058823L74.55274317075273,95.20507723766922z" style="fill:rgb(127,37,217)"/><path d="M-6.745426167588445,-31.67674939261253L57.725854639913365,95.79372259744441L53.638706404135156,15.297358355915641z" style="fill:rgb(247,158,158)"/><path d="M-30.977265337537897,-78.30281940922349L-34.43006879317606,-76.61702233860701L28.829719302544586,47.37178123683367z" style="fill:rgb(162,50,222)"/><path d="M-34.43006879317606,-76.61702233860701L-37.63162276579286,-74.54943392381973L26.10486250860291,49.446825230315156z" style="fill:rgb(183,62,221)"/><path d="M-27.400344351990746,-79.54460882864701L-30.977265337537897,-78.30281940922349L31.801421555005817,45.67892104665911z" style="fill:rgb(139,40,220)"/><path d="M-37.63162276579286,-74.54943392381973L-40.463522670024275,-72.17580472324266L23.727770625152342,51.82755848438544z" style="fill:rgb(203,77,216)"/><path d="M-23.831104256173003,-80.2957225462433L-27.400344351990746,-79.54460882864701L34.91024812315117,44.43120852463474z" style="fill:rgb(115,34,214)"/><path d="M-40.463522670024275,-72.17580472324266L-42.81996509440009,-69.58305186191546L21.78725854614077,54.42637327572899z" style="fill:rgb(220,94,208)"/><path d="M-20.401771964779126,-80.52667293102074L-23.831104256173003,-80.2957225462433L38.25448235704487,44.103188192928954z" style="fill:rgb(92,32,204)"/><path d="M-42.81996509440009,-69.58305186191546L-44.61135497624793,-66.86654839983335L20.356985898878268,57.14736418728212z" style="fill:rgb(233,112,197)"/><path d="M-17.24066298172193,-80.22636206102342L-20.401771964779126,-80.52667293102074L41.49420808533664,44.28231987707878z" style="fill:rgb(71,33,192)"/><path d="M-44.61135497624793,-66.86654839983335L-45.767587584083294,-64.12710295104172L19.49278833570727,59.889429594883z" style="fill:rgb(242,130,183)"/><path d="M-14.46777609580882,-79.40283893649098L-17.24066298172193,-80.22636206102342L44.5081710385062,44.96377559652028z" style="fill:rgb(51,38,177)"/><path d="M-51.37605331550473,-19.820062471566928L17.223774276018712,105.12666890987039L17.66372089386637,104.91866604096612z" style="fill:rgb(127,37,217)"/><path d="M-45.767587584083294,-64.12710295104172L-46.24091613343726,-61.46761198282511L19.2304040174488,62.5496306885241z" style="fill:rgb(246,149,167)"/><path d="M-12.190422105626265,-78.08349582394983L-14.46777609580882,-79.40283893649098L47.18230208111214,46.12441019890604z" style="fill:rgb(34,46,160)"/><path d="M-6.745426167588445,-31.67674939261253L53.638706404135156,15.297358355915641L-6.208582639190026,-112.01434266626508z" style="fill:rgb(247,158,158)"/><path d="M-46.24091613343726,-61.46761198282511L-46.00826207269602,-58.98948299625038L19.58374250600988,65.02677049970622z" style="fill:rgb(246,167,149)"/><path d="M-10.499010563869998,-76.3146368904242L-12.190422105626265,-78.08349582394983L49.41381535763153,47.72320220929977z" style="fill:rgb(21,57,142)"/><path d="M-29.461972628577115,-25.64181372624348L17.66372089386637,104.91866604096612L36.67009249124356,99.15426041008944z" style="fill:rgb(127,37,217)"/><path d="M-46.00826207269602,-58.98948299625038L-45.07281597926596,-56.78887979663198L20.543782909782905,67.22510580810066z" style="fill:rgb(242,183,130)"/><path d="M-7.306156782225518,-31.527784520456834L36.67009249124356,99.15426041008944L57.17501588637278,95.81300264803217zM-6.745426167588445,-31.67674939261253L57.17501588637278,95.81300264803217L57.725854639913365,95.79372259744441z" style="fill:rgb(127,37,217)"/><path d="M-46.111237058674504,-75.38813347785974L-9.210586989547503,-111.1572382344788L-44.88974339636071,-100.97043414748772zM-46.111237058674504,-75.38813347785974L-9.46351207833668,-85.62031529835006L-9.210586989547503,-111.1572382344788zM-51.924465239927635,-19.674370647131266L-44.88974339636071,-100.97043414748772L-47.834564530578376,-100.12965663539714zM-40.463522670024275,-72.17580472324266L-37.54734043923346,-76.71422953741796L-40.30613191581062,-75.94469530640204zM-42.81996509440009,-69.58305186191546L-40.30613191581062,-75.94469530640204L-42.567378119413505,-75.31395045866071zM-37.63162276579286,-74.54943392381973L-34.39521214562087,-77.5934750038592L-37.54734043923346,-76.71422953741796zM-44.61135497624793,-66.86654839983335L-42.567378119413505,-75.31395045866071L-44.245985109183614,-74.84571980064179zM-34.43006879317606,-76.61702233860701L-30.969342256448925,-78.5490822362556L-34.39521214562087,-77.5934750038592z" style="fill:rgb(83,212,212)"/><path d="M-9.46351207833668,-85.62031529835006L-46.111237058674504,-75.38813347785974L-45.627640299815646,-74.46032219050403z" style="fill:rgb(127,37,217)"/><path d="M-37.63162276579286,-74.54943392381973L-34.43006879317606,-76.61702233860701L-34.39521214562087,-77.5934750038592zM-45.767587584083294,-64.12710295104172L-44.245985109183614,-74.84571980064179L-45.27896629330163,-74.55758627893574zM-34.43006879317606,-76.61702233860701L-30.977265337537897,-78.30281940922349L-30.969342256448925,-78.5490822362556zM-40.463522670024275,-72.17580472324266L-37.63162276579286,-74.54943392381973L-37.54734043923346,-76.71422953741796zM-30.977265337537897,-78.30281940922349L-27.400344351990746,-79.54460882864701L-30.969342256448925,-78.5490822362556zM-42.81996509440009,-69.58305186191546L-40.463522670024275,-72.17580472324266L-40.30613191581062,-75.94469530640204zM-46.24091613343726,-61.46761198282511L-45.27896629330163,-74.55758627893574L-45.627640299815646,-74.46032219050403zM-23.831104256173003,-80.2957225462433L-23.824998038626433,-80.54191264463542L-27.400344351990746,-79.54460882864701zM-44.61135497624793,-66.86654839983335L-42.81996509440009,-69.58305186191546L-42.567378119413505,-75.31395045866071zM-23.831104256173003,-80.2957225462433L-20.381045213642984,-81.50255791740247L-23.824998038626433,-80.54191264463542z" style="fill:rgb(83,212,212)"/><path d="M-9.46351207833668,-85.62031529835006L-45.627640299815646,-74.46032219050403L-9.006207843452913,-84.67543386818609z" style="fill:rgb(127,37,217)"/><path d="M-23.831104256173003,-80.2957225462433L-20.401771964779126,-80.52667293102074L-20.381045213642984,-81.50255791740247zM-45.767587584083294,-64.12710295104172L-44.61135497624793,-66.86654839983335L-44.245985109183614,-74.84571980064179zM-20.401771964779126,-80.52667293102074L-17.201853663613072,-82.38935885346888L-20.381045213642984,-81.50255791740247zM-20.401771964779126,-80.52667293102074L-17.24066298172193,-80.22636206102342L-17.201853663613072,-82.38935885346888zM-17.24066298172193,-80.22636206102342L-14.411137026322715,-83.16779128564045L-17.201853663613072,-82.38935885346888zM-46.24091613343726,-61.46761198282511L-45.767587584083294,-64.12710295104172L-45.27896629330163,-74.55758627893574z" style="fill:rgb(83,212,212)"/><path d="M-69.84566017157456,-108.32844340549156L-54.1928355998252,-28.813641997249622L-49.890420611509604,-109.18123661007806z" style="fill:rgb(120,217,217)"/><path d="M-14.46777609580882,-79.40283893649098L-12.117966259326286,-83.80744739018965L-14.411137026322715,-83.16779128564045z" style="fill:rgb(83,212,212)"/><path d="M-46.111237058674504,-75.38813347785974L-46.870902223551944,-48.120869658450644L-45.627640299815646,-74.46032219050403z" style="fill:rgb(247,158,158)"/><path d="M-89.83928401440477,-110.54198462159626L-75.86411234134127,-27.952060919244254L-69.84566017157456,-108.32844340549156z" style="fill:rgb(145,216,216)"/><path d="M-17.24066298172193,-80.22636206102342L-14.46777609580882,-79.40283893649098L-14.411137026322715,-83.16779128564045zM-12.190422105626265,-78.08349582394983L-10.41229608127839,-84.28322072100792L-12.117966259326286,-83.80744739018965zM-14.46777609580882,-79.40283893649098L-12.190422105626265,-78.08349582394983L-12.117966259326286,-83.80744739018965zM-10.006364855843831,-30.81044212263318L-6.208582639190026,-112.01434266626508L-9.210586989547503,-111.1572382344788zM-10.499010563869998,-76.3146368904242L-9.361232100502368,-84.57640492954765L-10.41229608127839,-84.28322072100792z" style="fill:rgb(83,212,212)"/><path d="M-49.890420611509604,-109.18123661007806L-33.23141582005323,-32.75503313557395L-30.58420471221967,-113.08101790089734z" style="fill:rgb(95,214,214)"/><path d="M-109.25743691669227,-115.77143081786707L-97.59673337912587,-30.188648092928947L-89.83928401440477,-110.54198462159626z" style="fill:rgb(169,212,212)"/><path d="M-50.48896681954937,-83.7870524653542L-31.425495065235406,-87.55322090473233L-13.603525416325363,-94.17441441835206z" style="fill:rgb(127,37,217)"/><path d="M-9.46316913312786,-74.16037442714897L-9.006207843452913,-84.67543386818609L-9.361232100502368,-84.57640492954765zM-12.190422105626265,-78.08349582394983L-10.499010563869998,-76.3146368904242L-10.41229608127839,-84.28322072100792z" style="fill:rgb(83,212,212)"/><path d="M-43.567170515985666,-107.54912455288596L-57.34301793388162,-119.06781713331186L-49.87568341542938,-104.46282509067709z" style="fill:rgb(162,50,222)"/><path d="M-57.34301793388162,-119.06781713331186L-55.74187473425714,-100.70505402627464L-49.87568341542938,-104.46282509067709z" style="fill:rgb(183,62,221)"/><path d="M-37.040211876187996,-109.85397627131947L-50.95542562085462,-122.1960635533689L-43.567170515985666,-107.54912455288596z" style="fill:rgb(139,40,220)"/><path d="M-10.499010563869998,-76.3146368904242L-9.46316913312786,-74.16037442714897L-9.361232100502368,-84.57640492954765z" style="fill:rgb(83,212,212)"/><path d="M-51.37605331550473,-19.820062471566928L-51.924465239927635,-19.674370647131266L17.223774276018712,105.12666890987039z" style="fill:rgb(127,37,217)"/><path d="M-55.74187473425714,-100.70505402627464L-68.58431456280334,-110.94822760961313L-60.95587734831358,-96.40796067446777z" style="fill:rgb(203,77,216)"/><path d="M-30.526742248264487,-111.2925245874648L-44.3538288735078,-124.54749570436282L-37.040211876187996,-109.85397627131947z" style="fill:rgb(115,34,214)"/><path d="M-9.078016252362705,-107.61614937732847L-43.567170515985666,-107.54912455288596L-49.87568341542938,-104.46282509067709zM-9.078016252362705,-107.61614937732847L-49.87568341542938,-104.46282509067709L-55.74187473425714,-100.70505402627464zM-9.078016252362705,-107.61614937732847L-37.040211876187996,-109.85397627131947L-43.567170515985666,-107.54912455288596z" style="fill:rgb(83,212,212)"/><path d="M-30.58420471221967,-113.08101790089734L-13.622473410679241,-39.69066941446095L-12.530864148300347,-119.93791202795481z" style="fill:rgb(72,208,208)"/><path d="M-9.46316913312786,-74.16037442714897L-9.128382245649926,-71.70075030095259L-9.006207843452913,-84.67543386818609z" style="fill:rgb(83,212,212)"/><path d="M-29.461972628577115,-25.64181372624348L-51.37605331550473,-19.820062471566928L17.66372089386637,104.91866604096612z" style="fill:rgb(127,37,217)"/><path d="M-9.078016252362705,-107.61614937732847L-55.74187473425714,-100.70505402627464L-60.95587734831358,-96.40796067446777z" style="fill:rgb(83,212,212)"/><path d="M-50.48896681954937,-83.7870524653542L-13.603525416325363,-94.17441441835206L-18.773484076166717,-104.85658081013072zM-50.48896681954937,-83.7870524653542L-18.773484076166717,-104.85658081013072L-55.954930030512294,-94.27380873567675z" style="fill:rgb(127,37,217)"/><path d="M-127.4868745291371,-123.89456480841292L-118.7381455130005,-35.47548868245857L-109.25743691669227,-115.77143081786707z" style="fill:rgb(192,205,205)"/><path d="M-9.078016252362705,-107.61614937732847L-30.526742248264487,-111.2925245874648L-37.040211876187996,-109.85397627131947z" style="fill:rgb(83,212,212)"/><path d="M-43.567170515985666,-107.54912455288596L-50.95542562085462,-122.1960635533689L-57.34301793388162,-119.06781713331186z" style="fill:rgb(162,50,222)"/><path d="M-60.95587734831358,-96.40796067446777L-73.03272422555004,-106.24198601273375L-65.32766668030679,-91.72248853815522z" style="fill:rgb(220,94,208)"/><path d="M-24.260567222204198,-111.80774102284525L-37.77260394955013,-126.03566262520852L-30.526742248264487,-111.2925245874648z" style="fill:rgb(92,32,204)"/><path d="M-46.111237058674504,-75.38813347785974L-47.36874908793034,-49.05148833888611L-46.870902223551944,-48.120869658450644z" style="fill:rgb(247,158,158)"/><path d="M-46.870902223551944,-48.120869658450644L-46.00826207269602,-58.98948299625038L-46.24091613343726,-61.46761198282511z" style="fill:rgb(83,212,212)"/><path d="M-57.34301793388162,-119.06781713331186L-63.29015951965541,-115.27410800921896L-55.74187473425714,-100.70505402627464z" style="fill:rgb(183,62,221)"/><path d="M-9.078016252362705,-107.61614937732847L-60.95587734831358,-96.40796067446777L-65.32766668030679,-91.72248853815522z" style="fill:rgb(83,212,212)"/><path d="M-37.040211876187996,-109.85397627131947L-44.3538288735078,-124.54749570436282L-50.95542562085462,-122.1960635533689z" style="fill:rgb(139,40,220)"/><path d="M-9.078016252362705,-107.61614937732847L-24.260567222204198,-111.80774102284525L-30.526742248264487,-111.2925245874648z" style="fill:rgb(83,212,212)"/><path d="M-55.74187473425714,-100.70505402627464L-63.29015951965541,-115.27410800921896L-68.58431456280334,-110.94822760961313z" style="fill:rgb(203,77,216)"/><path d="M-9.078016252362705,-107.61614937732847L-65.32766668030679,-91.72248853815522L-65.42682668544045,-91.57787361576109z" style="fill:rgb(83,212,212)"/><path d="M-51.87650351576955,-57.47773980297056L-50.48896681954937,-83.7870524653542L-55.954930030512294,-94.27380873567675z" style="fill:rgb(247,158,158)"/><path d="M-46.512838145070546,-48.218423106781145L-45.07281597926596,-56.78887979663198L-46.00826207269602,-58.98948299625038z" style="fill:rgb(83,212,212)"/><path d="M-30.526742248264487,-111.2925245874648L-37.77260394955013,-126.03566262520852L-44.3538288735078,-124.54749570436282z" style="fill:rgb(115,34,214)"/><path d="M-137.71740602424978,-43.317339468806615L-126.64765906208491,-123.52061036090086L-136.77366842892613,-120.51095948427611z" style="fill:rgb(83,212,212)"/><path d="M-65.32766668030679,-91.72248853815522L-76.46821443367082,-101.32202750149452L-68.6928321025006,-86.81463055357166z" style="fill:rgb(233,112,197)"/><path d="M-18.470764978685665,-111.37284863505786L-31.44780616876551,-126.6017539786257L-24.260567222204198,-111.80774102284525z" style="fill:rgb(71,33,192)"/><path d="M-60.95587734831358,-96.40796067446777L-68.58431456280334,-110.94822760961313L-73.03272422555004,-106.24198601273375z" style="fill:rgb(220,94,208)"/><path d="M-9.078016252362705,-107.61614937732847L-18.470764978685665,-111.37284863505786L-24.260567222204198,-111.80774102284525z" style="fill:rgb(83,212,212)"/><path d="M-127.4868745291371,-123.89456480841292L-137.71740602424978,-43.317339468806615L-126.64765906208491,-123.52061036090086z" style="fill:rgb(192,205,205)"/><path d="M-45.45202738889268,-48.507428294170744L-43.46478314698568,-54.9529036921485L-45.07281597926596,-56.78887979663198z" style="fill:rgb(83,212,212)"/><path d="M-7.306156782225518,-31.527784520456834L-29.461972628577115,-25.64181372624348L36.67009249124356,99.15426041008944z" style="fill:rgb(127,37,217)"/><path d="M-46.870902223551944,-48.120869658450644L-46.512838145070546,-48.218423106781145L-46.00826207269602,-58.98948299625038z" style="fill:rgb(83,212,212)"/><path d="M-24.260567222204198,-111.80774102284525L-31.44780616876551,-126.6017539786257L-37.77260394955013,-126.03566262520852z" style="fill:rgb(92,32,204)"/><path d="M-46.512838145070546,-48.218423106781145L-45.45202738889268,-48.507428294170744L-45.07281597926596,-56.78887979663198zM-43.72816553857184,-48.97707633863084L-41.24110150717596,-53.55587537389376L-43.46478314698568,-54.9529036921485zM-9.078016252362705,-107.61614937732847L-13.374680335399628,-109.99323740989503L-18.470764978685665,-111.37284863505786z" style="fill:rgb(83,212,212)"/><path d="M-65.32766668030679,-91.72248853815522L-73.03272422555004,-106.24198601273375L-76.46821443367082,-101.32202750149452z" style="fill:rgb(233,112,197)"/><path d="M-12.530864148300347,-119.93791202795481L4.0009411247186195,-49.46364134657657L3.6776700673141116,-129.587972679047z" style="fill:rgb(50,199,199)"/><path d="M-45.45202738889268,-48.507428294170744L-43.72816553857184,-48.97707633863084L-43.46478314698568,-54.9529036921485z" style="fill:rgb(83,212,212)"/><path d="M-68.6928321025006,-86.81463055357166L-78.75500306862794,-96.36541262877049L-70.9182502643147,-81.86107604768064z" style="fill:rgb(242,130,183)"/><path d="M-13.374680335399628,-109.99323740989503L-25.610573275352483,-126.21707337471125L-18.470764978685665,-111.37284863505786z" style="fill:rgb(51,38,177)"/><path d="M-57.507409974193436,-68.00347661025035L-55.954930030512294,-94.27380873567675L-65.42682668544045,-91.57787361576109z" style="fill:rgb(83,212,212)"/><path d="M-6.745426167588445,-31.67674939261253L-7.306156782225518,-31.527784520456834L57.17501588637278,95.81300264803217z" style="fill:rgb(127,37,217)"/><path d="M-57.507409974193436,-68.00347661025035L-65.42682668544045,-91.57787361576109L-68.6928321025006,-86.81463055357166zM-41.40589402709336,-49.60975445807887L-38.48400812671055,-52.655937816197735L-41.24110150717596,-53.55587537389376zM-43.72816553857184,-48.97707633863084L-41.40589402709336,-49.60975445807887L-41.24110150717596,-53.55587537389376z" style="fill:rgb(83,212,212)"/><path d="M-18.470764978685665,-111.37284863505786L-25.610573275352483,-126.21707337471125L-31.44780616876551,-126.6017539786257z" style="fill:rgb(71,33,192)"/><path d="M-9.078016252362705,-107.61614937732847L-9.17043370577466,-107.70788642870002L-13.374680335399628,-109.99323740989503zM-41.40589402709336,-49.60975445807887L-38.57255316515838,-50.38166716728289L-38.48400812671055,-52.655937816197735zM-9.618682699790913,-58.269838748615896L-9.128382245649926,-71.70075030095259L-9.51338640073193,-69.02912253920343zM-38.57255316515838,-50.38166716728289L-35.29840357998835,-52.29210374526194L-38.48400812671055,-52.655937816197735z" style="fill:rgb(83,212,212)"/><path d="M-68.6928321025006,-86.81463055357166L-76.46821443367082,-101.32202750149452L-78.75500306862794,-96.36541262877049z" style="fill:rgb(242,130,183)"/><path d="M-57.507409974193436,-68.00347661025035L-68.6928321025006,-86.81463055357166L-70.9182502643147,-81.86107604768064zM-38.57255316515838,-50.38166716728289L-35.33511596503476,-51.263672068181464L-35.29840357998835,-52.29210374526194zM-51.924465239927635,-19.674370647131266L-48.73092747828497,-20.52277302183428L-44.88974339636071,-100.97043414748772zM-10.698576213765943,-57.97563086682453L-9.51338640073193,-69.02912253920343L-10.608548054228036,-66.24873631221563zM-35.33511596503476,-51.263672068181464L-31.808013058407358,-52.482094860328125L-35.29840357998835,-52.29210374526194z" style="fill:rgb(83,212,212)"/><path d="M-70.9182502643147,-81.86107604768064L-79.7943292467076,-91.55465748421278L-71.90768314133639,-77.04421867778315z" style="fill:rgb(246,149,167)"/><path d="M-9.17043370577466,-107.70788642870002L-20.4800387396796,-124.88501888785899L-13.374680335399628,-109.99323740989503z" style="fill:rgb(34,46,160)"/><path d="M-35.33511596503476,-51.263672068181464L-31.81637123050561,-52.2223151518031L-31.808013058407358,-52.482094860328125zM-12.450998147991987,-57.49820530579619L-10.608548054228036,-66.24873631221563L-12.37542124176362,-63.46871800930319zM-31.81637123050561,-52.2223151518031L-28.150443448833606,-53.22105804986812L-31.808013058407358,-52.482094860328125z" style="fill:rgb(83,212,212)"/><path d="M-13.374680335399628,-109.99323740989503L-20.4800387396796,-124.88501888785899L-25.610573275352483,-126.21707337471125z" style="fill:rgb(51,38,177)"/><path d="M-9.618682699790913,-58.269838748615896L-9.25391702210446,-58.36921440562103L-9.128382245649926,-71.70075030095259zM-14.80695965333644,-56.85634533589162L-12.37542124176362,-63.46871800930319L-14.747639288090683,-60.79954365619348zM-57.507409974193436,-68.00347661025035L-70.9182502643147,-81.86107604768064L-71.90768314133639,-77.04421867778315zM-24.477816373745135,-54.22162370483859L-24.471374291503707,-54.48135517506058L-28.150443448833606,-53.22105804986812zM-17.67399135529736,-56.07525795014473L-14.747639288090683,-60.79954365619348L-17.63320895406228,-58.34822246893057zM-24.477816373745135,-54.22162370483859L-20.91815435989585,-56.213501559836985L-24.471374291503707,-54.48135517506058zM-10.698576213765943,-57.97563086682453L-9.618682699790913,-58.269838748615896L-9.51338640073193,-69.02912253920343zM-20.939988401183754,-55.185468639355676L-17.63320895406228,-58.34822246893057L-20.91815435989585,-56.213501559836985zM-24.477816373745135,-54.22162370483859L-20.939988401183754,-55.185468639355676L-20.91815435989585,-56.213501559836985z" style="fill:rgb(83,212,212)"/><path d="M-51.87650351576955,-57.47773980297056L-55.954930030512294,-94.27380873567675L-57.507409974193436,-68.00347661025035z" style="fill:rgb(247,158,158)"/><path d="M-70.9182502643147,-81.86107604768064L-78.75500306862794,-96.36541262877049L-79.7943292467076,-91.55465748421278z" style="fill:rgb(246,149,167)"/><path d="M-12.450998147991987,-57.49820530579619L-10.698576213765943,-57.97563086682453L-10.608548054228036,-66.24873631221563zM-20.939988401183754,-55.185468639355676L-17.67399135529736,-56.07525795014473L-17.63320895406228,-58.34822246893057zM-14.80695965333644,-56.85634533589162L-12.450998147991987,-57.49820530579619L-12.37542124176362,-63.46871800930319zM-17.67399135529736,-56.07525795014473L-14.80695965333644,-56.85634533589162L-14.747639288090683,-60.79954365619348zM-57.507409974193436,-68.00347661025035L-71.90768314133639,-77.04421867778315L-71.606888436451,-72.54640689132655z" style="fill:rgb(83,212,212)"/><path d="M3.6776700673141116,-129.587972679047L19.022731767395243,-61.8389127960503L17.46970757412684,-141.78758218303713z" style="fill:rgb(32,187,187)"/><path d="M-71.90768314133639,-77.04421867778315L-79.52970929427975,-87.07197507903668L-71.606888436451,-72.54640689132655z" style="fill:rgb(246,167,149)"/><path d="M-9.17043370577466,-107.70788642870002L-16.2558056868599,-122.64258814031592L-20.4800387396796,-124.88501888785899z" style="fill:rgb(34,46,160)"/><path d="M-69.84566017157456,-108.32844340549156L-75.86411234134127,-27.952060919244254L-54.1928355998252,-28.813641997249622z" style="fill:rgb(120,217,217)"/><path d="M-13.110073167215491,-119.56099844737476L-9.17043370577466,-107.70788642870002L-6.029138245212624,-104.5898887300928z" style="fill:rgb(21,57,142)"/><path d="M-89.83928401440477,-110.54198462159626L-97.59673337912587,-30.188648092928947L-75.86411234134127,-27.952060919244254z" style="fill:rgb(145,216,216)"/><path d="M-71.90768314133639,-77.04421867778315L-79.7943292467076,-91.55465748421278L-79.52970929427975,-87.07197507903668z" style="fill:rgb(246,167,149)"/><path d="M-9.332929319212083,-81.40321020304165L-9.078016252362705,-107.61614937732847L-18.773484076166717,-104.85658081013072z" style="fill:rgb(83,212,212)"/><path d="M-49.890420611509604,-109.18123661007806L-54.1928355998252,-28.813641997249622L-33.23141582005323,-32.75503313557395z" style="fill:rgb(95,214,214)"/><path d="M-57.507409974193436,-68.00347661025035L-71.606888436451,-72.54640689132655L-70.00803311705171,-68.54345131477595zM-10.006364855843831,-30.81044212263318L-6.745426167588445,-31.67674939261253L-6.208582639190026,-112.01434266626508z" style="fill:rgb(83,212,212)"/><path d="M-13.110073167215491,-119.56099844737476L-16.2558056868599,-122.64258814031592L-9.17043370577466,-107.70788642870002z" style="fill:rgb(21,57,142)"/><path d="M-71.606888436451,-72.54640689132655L-77.95147279343514,-83.09277614085562L-70.00803311705171,-68.54345131477595z" style="fill:rgb(242,183,130)"/><path d="M-9.332929319212083,-81.40321020304165L-6.029138245212624,-104.5898887300928L-9.078016252362705,-107.61614937732847z" style="fill:rgb(83,212,212)"/><path d="M-4.087045707764089,-100.7458398339785L-13.110073167215491,-119.56099844737476L-6.029138245212624,-104.5898887300928z" style="fill:rgb(12,71,124)"/><path d="M-48.73092747828497,-20.52277302183428L-9.724023467024232,-59.317428211985664L-47.36874908793034,-49.05148833888611z" style="fill:rgb(83,212,212)"/><path d="M-109.25743691669227,-115.77143081786707L-118.7381455130005,-35.47548868245857L-97.59673337912587,-30.188648092928947z" style="fill:rgb(169,212,212)"/><path d="M-57.507409974193436,-68.00347661025035L-70.00803311705171,-68.54345131477595L-67.23767818826747,-65.29700543236429z" style="fill:rgb(83,212,212)"/><path d="M-71.606888436451,-72.54640689132655L-79.52970929427975,-87.07197507903668L-77.95147279343514,-83.09277614085562z" style="fill:rgb(242,183,130)"/><path d="M-30.58420471221967,-113.08101790089734L-33.23141582005323,-32.75503313557395L-13.622473410679241,-39.69066941446095z" style="fill:rgb(72,208,208)"/><path d="M-9.332929319212083,-81.40321020304165L-4.087045707764089,-100.7458398339785L-6.029138245212624,-104.5898887300928zM-9.332929319212083,-81.40321020304165L-18.773484076166717,-104.85658081013072L-19.299347018240343,-78.6310545326065z" style="fill:rgb(83,212,212)"/><path d="M-4.087045707764089,-100.7458398339785L-11.179704461912028,-115.74517883108025L-13.110073167215491,-119.56099844737476z" style="fill:rgb(12,71,124)"/><path d="M17.46970757412684,-141.78758218303713L30.856662839750527,-76.49507961701184L28.30681439154428,-156.20684075035248z" style="fill:rgb(17,173,173)"/><path d="M-9.332929319212083,-81.40321020304165L-3.4380933226125405,-96.31378070848383L-4.087045707764089,-100.7458398339785z" style="fill:rgb(83,212,212)"/><path d="M-127.4868745291371,-123.89456480841292L-138.6338628219484,-43.69599987886289L-118.7381455130005,-35.47548868245857z" style="fill:rgb(192,205,205)"/><path d="M-137.71740602424978,-43.317339468806615L-136.77366842892613,-120.51095948427611L-148.6949131729452,-40.270614599680655zM-32.06236017752457,-64.5186284183299L-67.23767818826747,-65.29700543236429L-67.1528412076505,-65.19758391158165z" style="fill:rgb(83,212,212)"/><path d="M-12.530864148300347,-119.93791202795481L-13.622473410679241,-39.69066941446095L4.0009411247186195,-49.46364134657657z" style="fill:rgb(50,199,199)"/><path d="M-9.332929319212083,-81.40321020304165L-4.1274059230350115,-91.45953060272804L-3.4380933226125405,-96.31378070848383z" style="fill:rgb(83,212,212)"/><path d="M-127.4868745291371,-123.89456480841292L-138.6338628219484,-43.69599987886289L-137.71740602424978,-43.317339468806615z" style="fill:rgb(192,205,205)"/><path d="M-32.06236017752457,-64.5186284183299L-67.1528412076505,-65.19758391158165L-63.13405444140246,-62.65005214161286zM-48.73092747828497,-20.52277302183428L-10.006364855843831,-30.81044212263318L-9.724023467024232,-59.317428211985664zM-9.332929319212083,-81.40321020304165L-6.146426690109211,-86.37107061085351L-4.1274059230350115,-91.45953060272804zM-32.06236017752457,-64.5186284183299L-9.332929319212083,-81.40321020304165L-67.23767818826747,-65.29700543236429zM-32.06236017752457,-64.5186284183299L-63.13405444140246,-62.65005214161286L-58.09452940898381,-61.01381899420413zM-32.06236017752457,-64.5186284183299L-58.09452940898381,-61.01381899420413L-52.223736729407115,-60.36692342938227zM-32.06236017752457,-64.5186284183299L-9.430360800051067,-81.25131435794474L-9.332929319212083,-81.40321020304165zM-32.06236017752457,-64.5186284183299L-52.223736729407115,-60.36692342938227L-45.75130065205179,-60.74707044072258z" style="fill:rgb(83,212,212)"/><path d="M-54.1928355998252,-28.813641997249622L-96.0068323511789,-22.526639550278063L-82.71087927727932,-21.167877293244366z" style="fill:rgb(127,37,217)"/><path d="M3.6776700673141116,-129.587972679047L4.0009411247186195,-49.46364134657657L19.022731767395243,-61.8389127960503z" style="fill:rgb(32,187,187)"/><path d="M-32.06236017752457,-64.5186284183299L-13.85851892703706,-76.30918271188872L-9.430360800051067,-81.25131435794474z" style="fill:rgb(83,212,212)"/><path d="M-75.86411234134127,-27.952060919244254L-99.39072711430677,-22.872452789778194L-96.0068323511789,-22.526639550278063z" style="fill:rgb(127,37,217)"/><path d="M28.30681439154428,-156.20684075035248L38.59011386154098,-92.25012780397256L35.360033572652156,-171.6724175989834z" style="fill:rgb(7,157,157)"/><path d="M-8.1183384350973,-33.131726831762116L-78.22904779043904,-20.70986206925199L-75.78313340860322,-20.459905717515653zM-33.23141582005323,-32.75503313557395L-82.71087927727932,-21.167877293244366L-78.22904779043904,-20.70986206925199zM-8.1183384350973,-33.131726831762116L-75.78313340860322,-20.459905717515653L-52.2445145699899,-21.389167119679122z" style="fill:rgb(127,37,217)"/><path d="M-32.06236017752457,-64.5186284183299L-45.75130065205179,-60.74707044072258L-38.937675567850924,-62.14806118459689z" style="fill:rgb(83,212,212)"/><path d="M-75.86411234134127,-27.952060919244254L-112.53268847165765,-26.135064893835175L-99.39072711430677,-22.872452789778194z" style="fill:rgb(127,37,217)"/><path d="M-32.06236017752457,-64.5186284183299L-19.25793764023362,-71.74975010128311L-13.85851892703706,-76.30918271188872z" style="fill:rgb(83,212,212)"/><path d="M-54.1928355998252,-28.813641997249622L-75.86411234134127,-27.952060919244254L-96.0068323511789,-22.526639550278063zM-8.1183384350973,-33.131726831762116L-52.2445145699899,-21.389167119679122L-29.461972628577115,-25.64181372624348z" style="fill:rgb(127,37,217)"/><path d="M-32.06236017752457,-64.5186284183299L-25.410376219861504,-67.7639315372151L-19.25793764023362,-71.74975010128311z" style="fill:rgb(83,212,212)"/><path d="M-33.23141582005323,-32.75503313557395L-54.1928355998252,-28.813641997249622L-82.71087927727932,-21.167877293244366zM-75.86411234134127,-27.952060919244254L-97.59673337912587,-30.188648092928947L-112.53268847165765,-26.135064893835175zM-97.59673337912587,-30.188648092928947L-122.37568593287514,-28.578685448701325L-112.53268847165765,-26.135064893835175zM-97.59673337912587,-30.188648092928947L-130.99839857296593,-32.11366856655141L-122.37568593287514,-28.578685448701325z" style="fill:rgb(127,37,217)"/><path d="M50.64952311686707,-95.59711992854132L46.3985777360911,-174.95328829928832L35.360033572652156,-171.6724175989834z" style="fill:rgb(83,212,212)"/><path d="M-13.622473410679241,-39.69066941446095L-75.86411234134127,-27.952060919244254L-54.1928355998252,-28.813641997249622zM-97.59673337912587,-30.188648092928947L-118.7381455130005,-35.47548868245857L-130.99839857296593,-32.11366856655141zM-13.622473410679241,-39.69066941446095L-97.59673337912587,-30.188648092928947L-75.86411234134127,-27.952060919244254zM-8.1183384350973,-33.131726831762116L12.798408318645382,-45.07650682157155L-78.22904779043904,-20.70986206925199zM-13.622473410679241,-39.69066941446095L-54.1928355998252,-28.813641997249622L-33.23141582005323,-32.75503313557395zM-118.7381455130005,-35.47548868245857L-144.04179066967043,-37.46096186926161L-130.99839857296593,-32.11366856655141zM-13.622473410679241,-39.69066941446095L-118.7381455130005,-35.47548868245857L-97.59673337912587,-30.188648092928947z" style="fill:rgb(127,37,217)"/><path d="M17.46970757412684,-141.78758218303713L19.022731767395243,-61.8389127960503L30.856662839750527,-76.49507961701184z" style="fill:rgb(17,173,173)"/><path d="M-118.7381455130005,-35.47548868245857L-148.6949131729452,-40.270614599680655L-144.04179066967043,-37.46096186926161zM12.798408318645382,-45.07650682157155L-13.622473410679241,-39.69066941446095L-33.23141582005323,-32.75503313557395zM-13.622473410679241,-39.69066941446095L-137.71740602424978,-43.317339468806615L-118.7381455130005,-35.47548868245857zM-118.7381455130005,-35.47548868245857L-137.71740602424978,-43.317339468806615L-148.6949131729452,-40.270614599680655zM-8.1183384350973,-33.131726831762116L11.109565626761146,-43.69993992884201L12.798408318645382,-45.07650682157155zM12.798408318645382,-45.07650682157155L15.902068327605088,-47.60628304251047L-13.622473410679241,-39.69066941446095zM-137.71740602424978,-43.317339468806615L-163.6907637958267,-49.325384667602826L-148.69492654990694,-40.27061125546511zM15.902068327605088,-47.60628304251047L4.0009411247186195,-49.46364134657657L-13.622473410679241,-39.69066941446095zM-13.622473410679241,-39.69066941446095L4.0009411247186195,-49.46364134657657L19.022731767395243,-61.8389127960503zM-137.71740602424978,-43.317339468806615L-174.2633423412874,-58.4173828826013L-163.6907637958267,-49.325384667602826zM15.902068327605088,-47.60628304251047L25.17914136250257,-55.167970013387766L4.0009411247186195,-49.46364134657657z" style="fill:rgb(127,37,217)"/><path d="M28.30681439154428,-156.20684075035248L30.856662839750527,-76.49507961701184L38.59011386154098,-92.25012780397256z" style="fill:rgb(7,157,157)"/><path d="M25.17914136250257,-55.167970013387766L19.022731767395243,-61.8389127960503L4.0009411247186195,-49.46364134657657zM-13.622473410679241,-39.69066941446095L38.59011386154098,-92.25012780397256L-137.71740602424978,-43.317339468806615zM-13.622473410679241,-39.69066941446095L19.022731767395243,-61.8389127960503L30.856662839750527,-76.49507961701184zM25.17914136250257,-55.167970013387766L27.556989759147918,-57.10613901673263L34.97635266957756,-66.1686959120325zM25.17914136250257,-55.167970013387766L34.97635266957756,-66.1686959120325L19.022731767395243,-61.8389127960503z" style="fill:rgb(127,37,217)"/><path d="M50.64952311686707,-95.59711992854132L35.360033572652156,-171.6724175989834L38.59011386154098,-92.25012780397256z" style="fill:rgb(83,212,212)"/><path d="M34.97635266957756,-66.1686959120325L30.856662839750527,-76.49507961701184L19.022731767395243,-61.8389127960503zM-13.622473410679241,-39.69066941446095L30.856662839750527,-76.49507961701184L38.59011386154098,-92.25012780397256zM34.97635266957756,-66.1686959120325L40.58370059333893,-73.01791614944322L44.153203091200474,-80.14105172026281zM34.97635266957756,-66.1686959120325L44.153203091200474,-80.14105172026281L30.856662839750527,-76.49507961701184zM44.153203091200474,-80.14105172026281L38.59011386154098,-92.25012780397256L30.856662839750527,-76.49507961701184zM44.153203091200474,-80.14105172026281L49.59466386447661,-90.99977321034146L50.64952311686707,-95.59711992854132zM44.153203091200474,-80.14105172026281L50.64952311686707,-95.59711992854132L38.59011386154098,-92.25012780397256z" style="fill:rgb(127,37,217)"/></svg>
